<svg width="48" height="48" xmlns="http://www.w3.org/2000/svg"><path d="M44.984.323c.723 0 1.343.258 1.86.775.517.516.775 1.137.775 1.86v42.35c0 .722-.26 1.342-.78 1.86-.517.515-1.137.774-1.86.774H32.86V29.496h6.17l.93-7.193h-7.1v-4.588c0-1.158.243-2.026.73-2.604.484-.574 1.43-.863 2.835-.863l3.783-.03v-6.42c-1.304-.185-3.143-.278-5.52-.278-2.81 0-5.058.826-6.743 2.48-1.684 1.653-2.526 3.99-2.526 7.006v5.3h-6.2V29.5h6.2v18.445H2.634c-.723 0-1.343-.26-1.86-.775C.258 46.65 0 46.03 0 45.307V2.957c0-.723.258-1.343.775-1.86C1.292.58 1.912.32 2.635.32h42.35z" fill="#FFF"/></svg>