<svg width="48" height="48" xmlns="http://www.w3.org/2000/svg"><path d="M31.746 24.132c0-2.19-.775-4.06-2.325-5.61-1.55-1.55-3.42-2.326-5.61-2.326-2.19 0-4.06.775-5.61 2.325-1.55 1.55-2.32 3.42-2.32 5.62 0 2.19.78 4.06 2.33 5.61 1.55 1.55 3.42 2.33 5.61 2.33 2.19 0 4.06-.77 5.61-2.32 1.55-1.55 2.33-3.42 2.33-5.61zm4.278 0c0 3.39-1.188 6.273-3.565 8.65-2.38 2.377-5.26 3.565-8.65 3.565-3.39 0-6.28-1.188-8.65-3.565-2.38-2.377-3.57-5.26-3.57-8.65 0-3.39 1.19-6.272 3.56-8.65 2.37-2.376 5.26-3.565 8.65-3.565 3.39 0 6.27 1.19 8.65 3.566 2.37 2.377 3.56 5.26 3.56 8.65zm3.35-12.71c0 .785-.28 1.457-.84 2.015-.557.558-1.228.837-2.014.837-.785 0-1.457-.28-2.015-.837-.558-.558-.837-1.23-.837-2.016 0-.78.28-1.45.837-2.01.558-.56 1.23-.83 2.015-.83.786 0 1.457.28 2.015.84.56.56.838 1.23.838 2.02zM23.81 4.6l-2.372-.016c-1.437-.01-2.527-.01-3.27 0-.745.01-1.742.04-2.993.093-1.25.05-2.314.154-3.193.31-.878.154-1.617.345-2.216.572-1.034.41-1.943 1.01-2.73 1.79-.784.78-1.383 1.69-1.797 2.73-.23.6-.42 1.34-.58 2.21-.16.88-.26 1.94-.31 3.19-.05 1.25-.09 2.25-.1 2.99-.01.74-.01 1.83 0 3.27l.01 2.37-.02 2.37c-.01 1.43-.01 2.52 0 3.27.01.74.04 1.74.09 2.99.05 1.25.156 2.31.31 3.19.156.875.35 1.614.574 2.213.415 1.036 1.014 1.945 1.8 2.73.785.787 1.694 1.386 2.73 1.8.6.227 1.336.42 2.214.573.88.153 1.942.26 3.192.31 1.25.05 2.246.08 2.99.09.744.01 1.834.01 3.27 0l2.373-.015 2.37.015c1.44.01 2.53.01 3.272 0 .74-.01 1.74-.04 2.99-.094 1.25-.05 2.31-.15 3.19-.31.875-.15 1.614-.34 2.213-.57 1.034-.41 1.94-1.01 2.73-1.8.784-.783 1.38-1.692 1.8-2.73.23-.6.42-1.334.57-2.212.16-.88.26-1.945.31-3.196.057-1.25.088-2.247.098-2.99.01-.745.01-1.836 0-3.27l-.016-2.374.017-2.37c.01-1.44.01-2.53 0-3.27-.01-.742-.04-1.74-.09-2.99-.05-1.25-.158-2.313-.31-3.19-.158-.88-.35-1.617-.576-2.217-.417-1.034-1.016-1.943-1.8-2.73-.787-.784-1.696-1.384-2.73-1.797-.6-.23-1.34-.42-2.216-.573-.88-.156-1.94-.26-3.19-.31-1.25-.053-2.248-.084-2.99-.094-.745-.01-1.835-.01-3.27 0l-2.37.02zm23.81 19.53c0 4.733-.053 8.01-.156 9.828-.207 4.3-1.488 7.626-3.844 9.983s-5.684 3.64-9.983 3.85c-1.82.11-5.095.16-9.827.16-4.733 0-8.01-.05-9.828-.15-4.3-.21-7.627-1.49-9.982-3.84-2.358-2.37-3.64-5.7-3.846-10C.052 32.14 0 28.87 0 24.14s.052-8.01.155-9.827C.362 10.01 1.643 6.68 4 4.323 6.354 1.967 9.682.683 13.98.48 15.8.374 19.075.323 23.808.323c4.732 0 8.008.05 9.827.155 4.3.206 7.627 1.488 9.983 3.844 2.356 2.356 3.637 5.684 3.844 9.983.103 1.818.155 5.094.155 9.827z" fill="#FFF"/></svg>