<svg width="48" height="48" xmlns="http://www.w3.org/2000/svg"><path d="M7.347 40.19h7.162V18.677H7.344V40.19zm7.627-28.148c-.02-1.075-.393-1.964-1.116-2.667-.723-.702-1.685-1.054-2.883-1.054-1.2 0-2.176.355-2.93 1.057-.754.703-1.132 1.592-1.132 2.667 0 1.054.367 1.937 1.1 2.65.735.713 1.69 1.07 2.87 1.07h.03c1.22 0 2.2-.357 2.945-1.07.744-.713 1.116-1.596 1.116-2.65zm18.136 28.15h7.162V27.85c0-3.182-.755-5.59-2.264-7.223-1.508-1.634-3.503-2.45-5.983-2.45-2.81 0-4.97 1.21-6.48 3.627h.063v-3.13h-7.162c.062 1.363.062 8.535 0 21.514h7.162V28.164c0-.786.072-1.365.217-1.737.31-.723.775-1.338 1.395-1.844.62-.507 1.384-.76 2.294-.76 2.397 0 3.596 1.623 3.596 4.868v11.5zM47.62 9.25v29.76c0 2.46-.874 4.564-2.62 6.31-1.747 1.747-3.85 2.62-6.31 2.62H8.93c-2.46 0-4.564-.873-6.31-2.62C.873 43.576 0 41.472 0 39.012V9.252c0-2.46.873-4.562 2.62-6.31C4.366 1.197 6.47.322 8.93.322h29.76c2.46 0 4.563.875 6.31 2.62 1.746 1.748 2.62 3.85 2.62 6.31z" fill="#FFF"/></svg>