<svg width="60" height="49" xmlns="http://www.w3.org/2000/svg"><path d="M59.963 5.783c-1.7 2.486-3.754 4.604-6.163 6.354.025.355.038.888.038 1.598 0 3.298-.482 6.59-1.446 9.874-.964 3.28-2.43 6.43-4.395 9.45-1.965 3.02-4.305 5.69-7.02 8.01-2.714 2.32-5.986 4.17-9.816 5.553-3.83 1.382-7.92 2.073-12.283 2.073C12 48.7 5.707 46.86 0 43.183c.89.102 1.878.153 2.97.153 5.706 0 10.792-1.75 15.256-5.25-2.663-.052-5.048-.87-7.153-2.455-2.105-1.582-3.55-3.605-4.338-6.07.838.13 1.61.19 2.32.19 1.092 0 2.17-.135 3.235-.414-2.84-.583-5.194-1.998-7.058-4.242-1.865-2.245-2.797-4.852-2.797-7.82v-.15c1.725.962 3.577 1.482 5.555 1.56-1.674-1.118-3.006-2.576-3.995-4.377-.99-1.8-1.484-3.754-1.484-5.86 0-2.232.56-4.3 1.68-6.2 3.07 3.78 6.8 6.805 11.2 9.075 4.4 2.27 9.116 3.53 14.138 3.785-.203-.964-.304-1.902-.304-2.816 0-3.4 1.2-6.297 3.596-8.694C35.212 1.2 38.11 0 41.51 0c3.55 0 6.544 1.294 8.98 3.88 2.764-.532 5.364-1.52 7.8-2.967-.94 2.917-2.74 5.175-5.403 6.773 2.36-.254 4.718-.888 7.076-1.903z" fill="#FFF"/></svg>