<svg width="38" height="49" xmlns="http://www.w3.org/2000/svg"><path d="M19.26 35.752v3.43c-.02 5.256-.073 8-.163 8.235-.216.576-.675.936-1.377 1.08-.972.162-2.605-.18-4.9-1.026-2.296-.84-3.758-1.64-4.388-2.4-.234-.27-.387-.59-.46-.97-.017-.21.02-.45.11-.7.07-.18.377-.6.917-1.27.54-.66 2.16-2.61 4.88-5.83.02 0 .56-.63 1.62-1.89.27-.34.62-.56 1.06-.66.44-.1.88-.06 1.33.1.43.18.77.44 1.012.788.24.34.352.72.334 1.134zm-4.024-6.777c-.054.99-.522 1.62-1.404 1.89l-3.24 1.053c-4.95 1.584-7.58 2.376-7.885 2.376-.63-.036-1.116-.36-1.458-.972-.22-.45-.37-1.125-.46-2.025C.64 29.93.65 28.43.81 26.8c.162-1.628.432-2.75.81-3.36.378-.613.882-.9 1.512-.865.232 0 2.05.693 5.453 2.08 1.28.52 2.313.944 3.105 1.268l2.267.92c.413.16.733.435.96.822.223.387.326.824.31 1.31zm22.304 8.02c-.126.97-.95 2.42-2.47 4.346-1.522 1.93-2.742 3.07-3.66 3.43-.666.26-1.233.19-1.7-.18-.253-.18-1.91-2.76-4.97-7.75l-1.268-2.08c-.252-.37-.356-.79-.31-1.24.044-.45.22-.86.526-1.24.63-.77 1.377-1.01 2.24-.7.02.02 1.09.38 3.214 1.08 3.654 1.19 5.832 1.91 6.534 2.15.703.248 1.126.43 1.27.558.504.397.702.946.594 1.648zM19.394 19.928c.09 1.835-.396 2.933-1.458 3.293-1.044.31-2.07-.33-3.078-1.91L4.65 5.16c-.143-.63.028-1.19.515-1.675.738-.774 2.605-1.58 5.602-2.417 2.998-.837 5.018-1.12 6.062-.85.72.18 1.16.585 1.32 1.215.05.324.25 3.074.59 8.25.34 5.174.56 8.59.65 10.246zm17.876 2.915c.054.702-.18 1.233-.702 1.593-.27.18-3.232.954-8.884 2.323-1.206.27-2.025.47-2.457.62l.027-.06c-.414.11-.828.07-1.242-.11-.414-.18-.747-.47-1-.87-.54-.85-.54-1.63 0-2.35.02-.02.694-.94 2.026-2.758 2.25-3.078 3.6-4.914 4.05-5.508.45-.596.756-.947.918-1.055.504-.34 1.09-.36 1.755-.055.87.414 1.98 1.615 3.33 3.604 1.35 1.99 2.08 3.5 2.19 4.525v.08z" fill="#FFF"/></svg>