<?xml version="1.0" standalone="no"?>
<!DOCTYPE svg PUBLIC "-//W3C//DTD SVG 1.1//EN" "http://www.w3.org/Graphics/SVG/1.1/DTD/svg11.dtd" >
<svg xmlns="http://www.w3.org/2000/svg">
<metadata>
Created by FontPrep 20130207 at Sat May 28 16:59:40 2016
 By Nico Watine
Copyright 2012 Adobe Systems Incorporated. All rights reserved.
</metadata>
<defs>
<font id="2181a38877e29ea77015cbef17265b86" horiz-adv-x='1024' >
  <font-face 
    font-family="Novecento-WideDemiBold"
    font-weight="600"
    font-stretch="normal"
    units-per-em="2048"
    panose-1="0 0 0 0 0 0 0 0 0 0"
    ascent="1726"
    descent="-322"
    x-height="1434"
    cap-height="1434"
    bbox="-469 -569 2687 1972"
    underline-thickness="256"
    underline-position="-139"
    unicode-range="U+0020-25CA"
  />
<missing-glyph horiz-adv-x="1363" 
d="M940 1149l188 -191l-256 -256l256 -258l-190 -188l-256 256l-254 -254l-190 191l254 253l-254 254l188 189l256 -252zM217 197q0 -156 152 -156h628q76 0 115 35q37 35 37 121v1040q0 86 -43 121q-45 35 -131 35h-586q-96 0 -134 -35t-38 -121v-1040zM1022 1434
q78 0 126 -45t48 -129v-1086q0 -86 -49 -129t-125 -43h-676q-76 0 -125 43t-49 129l49 1212q51 47 125 48h676z" />
    <glyph glyph-name=".notdef" horiz-adv-x="1363" 
d="M940 1149l188 -191l-256 -256l256 -258l-190 -188l-256 256l-254 -254l-190 191l254 253l-254 254l188 189l256 -252zM217 197q0 -156 152 -156h628q76 0 115 35q37 35 37 121v1040q0 86 -43 121q-45 35 -131 35h-586q-96 0 -134 -35t-38 -121v-1040zM1022 1434
q78 0 126 -45t48 -129v-1086q0 -86 -49 -129t-125 -43h-676q-76 0 -125 43t-49 129l49 1212q51 47 125 48h676z" />
    <glyph glyph-name=".null" horiz-adv-x="0" 
 />
    <glyph glyph-name="nonmarkingreturn" horiz-adv-x="681" 
 />
    <glyph glyph-name="space" unicode=" " horiz-adv-x="512" 
 />
    <glyph glyph-name="exclam" unicode="!" horiz-adv-x="624" 
d="M170 0v322h285v-322h-285zM170 449v985h285v-985h-285z" />
    <glyph glyph-name="quotedbl" unicode="&#x22;" horiz-adv-x="1120" 
d="M682 989v445h268v-445h-268zM170 989v445h268v-445h-268z" />
    <glyph glyph-name="numbersign" unicode="#" horiz-adv-x="1859" 
d="M997 549l170 334h-333l-166 -334h329zM1669 883h-219l-166 -334h219l-129 -246h-211l-149 -303h-297l155 303h-327l-150 -303h-295l156 303h-199l129 246h195l170 334h-199l131 247h195l156 304h272l-150 -304h338l156 304h272l-149 -304h225z" />
    <glyph glyph-name="dollar" unicode="$" horiz-adv-x="1245" 
d="M387 1082q0 -52 29 -84t74 -54t112 -47l129 -43q300 -91 408 -274q41 -72 41 -166q0 -164 -112 -278t-296 -144v-168h-285v170q-167 31 -281 138t-163 271l274 74q39 -166 203 -229q54 -20 148 -20t152 48q58 50 58 114t-32 100q-61 66 -215 112q-277 79 -402 178
q-129 110 -129 261t109 262q110 110 283 145v168h284v-174q147 -37 252 -135q104 -99 141 -234l-274 -76l-12 11q-12 49 -41 92q-82 118 -266 120q-72 0 -130 -42q-58 -44 -59 -96z" />
    <glyph glyph-name="percent" unicode="%" horiz-adv-x="1810" 
d="M1423 176v-2q85 0 131 68q45 68 45 158t-47 157q-42 66 -124 67q-81 1 -128 -65t-48 -137q-2 -167 100 -227q30 -19 71 -19zM1055 395q0 182 103 298t269 116t261 -117q100 -117 100 -296t-97 -295q-97 -117 -268 -117q-81 0 -149 30q-135 58 -193 215q-27 74 -26 166z
M389 811v-2q82 0 129 68t47 158q0 91 -47 157t-127 66t-127 -66t-47 -158t47 -157q47 -66 125 -66zM305 -2l1012 1432h186l-1009 -1432h-189zM389 618v-2q-162 0 -265 117q-104 117 -104 298q0 182 104 298q104 117 269 117q166 0 260 -117q101 -118 101 -297t-101 -297
q-96 -117 -264 -117z" />
    <glyph glyph-name="ampersand" unicode="&#x26;" horiz-adv-x="1452" 
d="M913 502v123l-297 2q-126 1 -194 -53t-68 -146t73 -150t208 -59q278 0 278 283zM1438 850v-223l-264 -15v-137q0 -230 -130 -362q-142 -150 -432 -150q-121 0 -220 29q-206 60 -283 231q-39 80 -39 163q0 144 84 239q81 85 202 106v2q-93 12 -178 92q-86 80 -86 213
q0 180 131 301t356 121q224 0 358 -108t177 -295l-240 -68q-33 115 -94 173t-175 58t-171 -65q-41 -45 -41 -120q-1 -75 59 -130t183 -55h803z" />
    <glyph glyph-name="quotesingle" unicode="'" horiz-adv-x="608" 
d="M170 989v445h268v-445h-268z" />
    <glyph glyph-name="parenleft" unicode="(" horiz-adv-x="784" 
d="M360 698q0 -304 87 -482q87 -179 290 -241l-73 -268q-234 77 -375 258q-87 109 -149 288t-62 449t62 450q115 334 339 464q103 59 185 86l73 -270v-9q-205 -63 -291 -242t-86 -483z" />
    <glyph glyph-name="parenright" unicode=")" horiz-adv-x="784" 
d="M707 660q1 -222 -61 -402q-112 -327 -341 -461q-100 -59 -184 -86l-74 269q203 61 290 240q87 178 87 484t-86 486t-291 242l74 270l-2 2q150 -51 235 -119q85 -69 142 -137q211 -255 211 -788z" />
    <glyph glyph-name="asterisk" unicode="*" horiz-adv-x="1050" 
d="M434 1434h178v-226l213 70l56 -172l-215 -62l137 -182l-148 -108l-131 190l-127 -190l-149 108l137 182l-215 62l55 172l209 -70v226z" />
    <glyph glyph-name="plus" unicode="+" 
d="M1184 844v-234h-342v-354h-250v354h-344v234h342v350h250v-350h344z" />
    <glyph glyph-name="comma" unicode="," horiz-adv-x="528" 
d="M117 114q0 58 44 98t101 40t98 -44t41 -122t-59 -186q-67 -111 -145 -170h-107q45 32 93 109t48 141l27 8l-33 -2q-39 2 -73 36t-35 92z" />
    <glyph glyph-name="hyphen" unicode="-" horiz-adv-x="1273" 
d="M170 844h934v-234h-934v234z" />
    <glyph glyph-name="period" unicode="." horiz-adv-x="528" 
d="M264 -23q-55 0 -98 39q-41 40 -41 98t41 99t98 41t98 -41t41 -98t-41 -99q-43 -39 -98 -39z" />
    <glyph glyph-name="slash" unicode="/" horiz-adv-x="1030" 
d="M12 0l733 1434h273l-709 -1434h-297z" />
    <glyph glyph-name="zero" unicode="0" horiz-adv-x="1468" 
d="M461 1042q-86 -120 -86 -324q0 -203 88 -333q89 -137 271 -137q181 0 269 135q89 135 89 334q0 320 -199 428q-68 37 -160 37l-2 -4q-178 0 -270 -136zM731 1458v-4q152 0 277 -59q240 -113 335 -396q45 -133 45 -289q1 -309 -174 -524q-82 -100 -208 -158t-275 -58
q-151 0 -275 58q-253 119 -339 396q-43 135 -43 289q0 324 172 526q86 99 210 159t275 60z" />
    <glyph glyph-name="one" unicode="1" horiz-adv-x="921" 
d="M469 1016h-2l-37 -43q-6 -6 -24 -28t-50 -54l-102 -103l-176 170l475 476h199l-4 -1432h-285v862l6 129v23z" />
    <glyph glyph-name="two" unicode="2" horiz-adv-x="1226" 
d="M811 264h330v-264h-1035v231q206 177 306 265t305 264q135 117 135 241q0 85 -61 147t-166 62q-147 0 -228 -135q-20 -35 -32 -76l-263 70l-8 -10q91 282 346 366q90 29 195 29q221 0 363 -129q143 -129 143 -321t-119 -330q-71 -85 -246 -207l-104 -74q-28 -20 -90 -64
q-61 -44 -74 -53l-27 -18l2 -2l11 2l79 2q115 4 238 4z" />
    <glyph glyph-name="three" unicode="3" horiz-adv-x="1245" 
d="M1143 1046q0 -138 -96 -227q-77 -74 -193 -86v-2q123 0 213 -82q98 -93 96 -233q0 -206 -149 -326q-148 -123 -372 -123q-108 0 -200 29q-188 60 -292 211q-53 74 -74 162l258 71q26 -100 102 -158t188 -58t178 58t66 150t-67 141q-68 49 -185 50h-122v225h122
q117 0 175 49q57 49 57 128t-58 131t-167 52t-171 -52t-94 -159l-256 70l-8 -14q44 180 186 287t351 108q129 0 221 -33q291 -106 291 -369z" />
    <glyph glyph-name="four" unicode="4" horiz-adv-x="1327" 
d="M399 541h412l4 176v299l2 31h-2l-14 -19q-40 -49 -73 -94q-34 -45 -58 -74l-176 -207q-45 -55 -72 -84l-23 -26v-2zM1251 543v-248h-168v-293h-268v293h-733v211l770 930h231v-893h168z" />
    <glyph glyph-name="five" unicode="5" horiz-adv-x="1247" 
d="M1018 801q151 -138 151 -345q0 -206 -149 -347q-144 -140 -366 -140t-365 110q-144 110 -180 261l260 70q17 -81 85 -139q67 -58 177 -58t181 71t71 182t-70 181t-180 72q-151 0 -209 -84q-14 -20 -25 -43l-245 67l127 775h798v-267h-590l-16 -88q-25 -123 -35 -161
t-10 -41l2 -3l2 -4q20 20 76 42t150 22q96 0 192 -35t168 -98z" />
    <glyph glyph-name="six" unicode="6" horiz-adv-x="1230" 
d="M635 725q-123 0 -196 -70t-73 -182q0 -111 76 -181t193 -70q118 0 195 70q77 71 79 184q1 114 -75 182t-199 67zM1182 459q0 -107 -43 -197q-82 -174 -293 -254q-104 -35 -216 -35t-216 33q-210 66 -295 256q-43 92 -43 192q0 222 141 441q41 66 96 139l303 400h310
l-408 -539l2 -2q66 66 177 66q221 -1 353 -148q132 -146 132 -352z" />
    <glyph glyph-name="seven" unicode="7" horiz-adv-x="1165" 
d="M63 1434h1074l-7 -172l-710 -1266h-305l491 864q44 82 104 174t68 105l19 26l-2 2h-732v267z" />
    <glyph glyph-name="eight" unicode="8" horiz-adv-x="1243" 
d="M625 193q123 0 197 61q74 60 73 158q0 98 -76 155q-75 57 -197 57t-197 -58t-75 -154l2 -2q0 -98 74 -158q76 -59 199 -59zM626 879q105 0 170 52q64 52 64 134t-68 134t-171 52q-102 0 -168 -53t-66 -135l-2 -6q0 -80 68 -129t173 -49zM1145 383q0 -86 -39 -165
q-79 -159 -285 -226q-96 -33 -215 -33t-221 33q-203 66 -285 229q-41 82 -41 164q0 146 93 244t215 121v2q-27 2 -70 28q-84 52 -139 160q-27 53 -27 130t37 149q74 144 254 204q90 31 192 31t194 -31q179 -61 253 -204q37 -72 37 -148q0 -121 -90 -225q-33 -38 -75 -62
t-71 -28v-2l-22 -4q117 -20 209 -115q96 -105 96 -252z" />
    <glyph glyph-name="nine" unicode="9" horiz-adv-x="1236" 
d="M317 956q0 -115 78 -182t198 -67q120 -1 198 67q77 68 77 182t-73 184t-197 70l-4 -4q-117 0 -197 -68t-80 -182zM530 473q-229 0 -357 141t-128 356t160 357q156 133 395 133t393 -131q160 -136 160 -393t-252 -551l-332 -387h-325l467 534l-6 5q-57 -64 -175 -64z" />
    <glyph glyph-name="colon" unicode=":" horiz-adv-x="528" 
d="M264 -23q-55 0 -98 39q-41 40 -41 98t41 99t98 41t98 -41t41 -98t-41 -99q-43 -39 -98 -39zM264 584q-57 0 -98 41t-41 98t41 98t98 41t98 -41t41 -98t-41 -98t-98 -41z" />
    <glyph glyph-name="semicolon" unicode=";" horiz-adv-x="563" 
d="M295 250q57 0 98 -44t41 -122t-59 -186q-68 -113 -146 -170h-106q45 32 93 109t48 140l27 9l-33 -2q-39 2 -74 36q-34 34 -34 90q0 58 43 99q45 41 102 41zM291 578q-57 0 -98 40t-41 98t41 99t98 41t98 -41t41 -98t-41 -98t-98 -41z" />
    <glyph glyph-name="less" unicode="&#x3c;" 
d="M592 752l579 -502h-331l-604 502l604 499h331z" />
    <glyph glyph-name="equal" unicode="=" 
d="M248 600h936v-233h-936v233zM248 1055h936v-234h-936v234z" />
    <glyph glyph-name="greater" unicode="&#x3e;" 
d="M258 250l580 502l-580 499h332l604 -499l-604 -502h-332z" />
    <glyph glyph-name="question" unicode="?" horiz-adv-x="1196" 
d="M440 0v322h287v-322h-287zM440 449v247l-14 -4q211 112 299 180q88 72 88 149q0 76 -45 124q-54 63 -174 63q-122 0 -188 -51t-99 -162l-239 68q45 181 186 289t366 108t360 -121q136 -121 136 -295q0 -231 -246 -372q-94 -53 -143 -80v-143h-287z" />
    <glyph glyph-name="at" unicode="@" horiz-adv-x="1638" 
d="M975 686v45l-4 -10q7 99 -60 149q-48 41 -126 41q-77 0 -116 -40q-71 -73 -71 -176q0 -104 64 -158q51 -48 123 -49t124 49q66 56 66 149zM1245 412q139 0 139 286q0 129 -43 241q-85 221 -301 314q-102 45 -228 45q-245 0 -409 -170q-77 -78 -119 -190t-42 -238t44 -236
q89 -223 300 -312q102 -45 242 -46t257 52q41 16 61 34t25 17l127 -64q0 -7 -28 -35q-79 -79 -238 -120q-88 -27 -232 -27t-279 54q-273 108 -388 386q-55 135 -55 296q0 321 209 538q209 213 534 213t527 -211q98 -99 153 -239t55 -302q0 -270 -178 -387q-59 -39 -147 -39
q-87 0 -151 50t-81 122l-2 2q-21 -57 -93 -110t-153 -53q-164 0 -267 107t-103 291q0 183 105 302t276 119q78 0 149 -47q29 -20 42 -40t16 -24h2v76h184l-6 -516q0 -63 21 -101t75 -38z" />
    <glyph glyph-name="A" unicode="A" horiz-adv-x="1472" 
d="M524 526h424l-145 359q-24 60 -39 113t-23 67l-6 20h-2l-22 -67q-18 -61 -45 -129zM1149 -2l-107 272h-620l-107 -272h-307l590 1432h268l590 -1432h-307z" />
    <glyph glyph-name="B" unicode="B" horiz-adv-x="1343" 
d="M455 242h290l3 -4q102 0 163 55t62 147q0 92 -66 148t-164 55h-288v-401zM457 858h252v-2q88 0 143 49t55 119t-55 117q-57 47 -143 47h-252v-330zM172 1427h594l-6 -6q184 0 307 -102t123 -256q0 -153 -125 -256q-33 -27 -72 -37v-2q109 -25 195 -121q86 -97 86 -223
q0 -186 -125 -307t-375 -121h-602v1431z" />
    <glyph glyph-name="C" unicode="C" horiz-adv-x="1548" 
d="M826 248q110 0 216 59t158 154l287 -76q-90 -188 -266 -303q-177 -115 -423 -115q-132 0 -268 54q-277 111 -397 391q-57 135 -57 298t59 303q117 278 397 392q136 55 268 55q233 0 407 -102q175 -102 266 -275l-291 -75l-6 -9q-60 82 -158 128q-98 47 -200 47
q-205 1 -328 -131q-123 -131 -121 -334q1 -103 35 -191t92 -145q124 -125 330 -125z" />
    <glyph glyph-name="D" unicode="D" horiz-adv-x="1607" 
d="M1100 383q135 122 135 324t-130 332t-317 128h-333v-901l503 31q80 31 142 86zM166 1434h618l-2 -4q311 0 527 -202q215 -202 216 -516q1 -315 -214 -517q-95 -91 -231 -143t-292 -52h-622v1434z" />
    <glyph glyph-name="E" unicode="E" horiz-adv-x="1335" 
d="M455 266h741v-266h-1026v1434h1014v-267h-729v-305h575v-250h-575v-346z" />
    <glyph glyph-name="F" unicode="F" horiz-adv-x="1234" 
d="M1163 1167h-708v-350h555v-256h-555v-561h-285v1434h993v-267z" />
    <glyph glyph-name="G" unicode="G" horiz-adv-x="1624" 
d="M1257 150h-2l-6 -5q-63 -72 -180 -121q-118 -49 -263 -50q-145 0 -280 54q-278 112 -397 390q-57 135 -57 298t59 303q117 278 397 392q135 55 289 55q217 -4 386 -105t267 -276l-290 -75q-60 82 -158 128t-200 46t-185 -34q-167 -68 -234 -245q-31 -86 -31 -188
q1 -208 130 -336q129 -129 353 -129t355 162q33 43 50 84v61h-398v232h641v-789h-246v148z" />
    <glyph glyph-name="H" unicode="H" horiz-adv-x="1529" 
d="M1075 1434h285v-1434h-285v592h-620v-592h-285v1434h285v-574h620v574z" />
    <glyph glyph-name="I" unicode="I" horiz-adv-x="624" 
d="M455 0h-285v1434h285v-1434z" />
    <glyph glyph-name="J" unicode="J" horiz-adv-x="1374" 
d="M950 1434h285l2 -822q0 -305 -174 -479q-82 -82 -200 -124q-117 -42 -237 -42q-324 0 -513 221q-57 66 -88 148l280 76q39 -84 116 -129t183 -45q166 0 256 99t90 273v824z" />
    <glyph glyph-name="K" unicode="K" horiz-adv-x="1470" 
d="M451 829q4 1 47 47t161 164l394 394h350l-600 -603l618 -831h-338l-473 643l-159 -160v-483h-285v1434h285v-283l-2 -322h2z" />
    <glyph glyph-name="L" unicode="L" horiz-adv-x="1204" 
d="M455 266h708v-266h-993v1434h285v-1168z" />
    <glyph glyph-name="M" unicode="M" horiz-adv-x="1736" 
d="M446 449v-449h-280v1434h268l297 -492q8 -14 32 -54t36 -61q13 -21 29 -46t20 -34t16 -28h2l15 24q6 12 50 81t68 118l299 492h269l-11 -1434h-280v446l6 367v105l2 36h-2l-16 -28q-45 -82 -89 -155l-15 -25q-5 -9 -7 -11l-223 -385h-148l-223 385q-2 2 -13 22
q-11 19 -18 29l-43 74q-10 16 -36 66l-17 28h-2l2 -36q2 -14 3 -50t5 -114q4 -77 4 -305z" />
    <glyph glyph-name="N" unicode="N" horiz-adv-x="1589" 
d="M1135 1434h284l-4 -1434h-268l-408 551q-49 63 -98 135t-99 140t-63 85l-26 39h-2v-950h-285v1432h268l416 -560q8 -10 27 -36t70 -94q52 -68 155 -214l31 -41h2v947z" />
    <glyph glyph-name="O" unicode="O" horiz-adv-x="1644" 
d="M1268 713q0 202 -124 336q-124 133 -322 133q-199 0 -322 -127q-125 -134 -125 -338l-2 -8q0 -207 124 -335t322 -128q199 0 324 132q125 133 125 335zM815 1452q154 0 290 -55q279 -113 396 -389q59 -141 59 -304q1 -324 -217 -534q-100 -98 -237 -152t-289 -55
q-152 0 -287 54q-277 111 -397 391q-57 135 -57 301l-6 -4q0 160 59 300q117 278 397 392q135 55 289 55z" />
    <glyph glyph-name="P" unicode="P" horiz-adv-x="1296" 
d="M455 739h221v-2q130 -1 196 57t66 160t-70 158t-192 55h-221v-428zM170 1432h512q252 0 401 -126q148 -126 148 -354q0 -339 -318 -448q-98 -33 -231 -33h-227v-471h-285v1432z" />
    <glyph glyph-name="Q" unicode="Q" horiz-adv-x="1644" 
d="M500 1053q-125 -134 -125 -337t125 -337q123 -127 321 -127l-2 -8q199 0 324 132t125 335q0 202 -124 336q-124 133 -322 133q-199 0 -322 -127zM674 -276v256l-4 -5q-268 53 -434 250t-166 480q0 160 59 300q117 278 397 392q135 55 289 55t290 -55q279 -113 396 -389
q59 -142 59 -294q1 -292 -169 -492q-171 -201 -433 -245v-253h-284z" />
    <glyph glyph-name="R" unicode="R" horiz-adv-x="1363" 
d="M455 1167v-424l252 -4q115 0 174 68q57 61 57 147t-58 149q-58 64 -171 64h-254zM455 485v-487h-285v1432h502q269 0 413 -132q150 -141 150 -350q0 -150 -71 -254t-201 -155l327 -541h-319l-283 487h-233z" />
    <glyph glyph-name="S" unicode="S" horiz-adv-x="1245" 
d="M383 1072q0 -52 37 -92t178 -93l129 -43q66 -20 155 -62q173 -81 253 -213q41 -72 41 -168t-39 -174q-82 -165 -283 -227q-98 -33 -223 -33q-229 0 -379 116t-207 312l274 74q26 -108 110 -178q85 -70 209 -71t183 48q59 50 59 114t-32 100q-61 66 -215 112
q-278 77 -402 178q-129 110 -129 275q0 164 151 287q151 124 362 124q210 0 361 -108t193 -277l-274 -76h-16q-25 101 -101 157q-77 56 -178 56q-100 0 -158 -43t-59 -95z" />
    <glyph glyph-name="T" unicode="T" horiz-adv-x="1239" 
d="M29 1434h1181v-267h-450v-1167h-285v1167h-446v267z" />
    <glyph glyph-name="U" unicode="U" horiz-adv-x="1515" 
d="M760 238q330 0 330 389v807h286l-2 -813q0 -310 -166 -484q-78 -80 -194 -125q-117 -41 -256 -41t-256 43q-232 85 -318 328q-43 123 -43 281v811h285v-807q0 -199 83 -294t251 -95z" />
    <glyph glyph-name="V" unicode="V" horiz-adv-x="1472" 
d="M731 315h2q2 0 25 72q20 72 61 178l328 869h311l-577 -1434h-303l-572 1432h311l330 -869q29 -78 55 -163t29 -85z" />
    <glyph glyph-name="W" unicode="W" horiz-adv-x="2103" 
d="M1047 946q-1 0 -15 -70t-51 -184l-221 -692h-266l-451 1434h303l225 -775q27 -98 43 -159t19 -62h2q4 0 18 62t49 159l218 621h264l217 -621q33 -98 49 -159t18 -62h2q4 0 18 62t44 159l225 775h301l-450 -1434h-265l-221 692q-39 121 -55 188t-18 66h-2z" />
    <glyph glyph-name="X" unicode="X" horiz-adv-x="1396" 
d="M700 496h-2l-14 -29q-12 -20 -31 -49l-37 -56q-8 -12 -26 -43l-230 -323h-340l502 733l-473 698h342l221 -329q12 -16 28 -47t27 -48l25 -42h2l11 18l18 33q11 22 25 48t26 44l221 330h344l-475 -699l502 -735h-340l-229 326q-10 14 -25 43l-31 55q-21 35 -28 49z" />
    <glyph glyph-name="Y" unicode="Y" horiz-adv-x="1435" 
d="M854 0h-283v657l-551 777h320l295 -412q74 -107 80 -104h2q7 0 80 104l293 412h321l-557 -777v-657z" />
    <glyph glyph-name="Z" unicode="Z" horiz-adv-x="1443" 
d="M719 256h600v-264h-1198v264l710 784q23 27 50 51q26 25 32 31l31 31l14 12l-2 2h-813v267h1178v-267l-692 -782q-121 -131 -121 -135l2 -2l6 2l55 2q78 4 148 4z" />
    <glyph glyph-name="bracketleft" unicode="[" horiz-adv-x="763" 
d="M457 1487v-1528h274v-268h-561v2062h561v-266h-274z" />
    <glyph glyph-name="backslash" unicode="\" horiz-adv-x="1030" 
d="M285 1434l733 -1434h-295l-711 1434h273z" />
    <glyph glyph-name="bracketright" unicode="]" horiz-adv-x="770" 
d="M313 -41v1528h-274v266h561v-2062h-561v268h274z" />
    <glyph glyph-name="asciicircum" unicode="^" horiz-adv-x="1298" 
d="M1128 977l-124 -113l-355 363l-352 -363l-127 113l479 481z" />
    <glyph glyph-name="underscore" unicode="_" horiz-adv-x="1589" 
d="M170 0h1249v-223h-1249v223z" />
    <glyph glyph-name="grave" unicode="`" horiz-adv-x="647" 
d="M500 1497l-488 211l99 195l473 -254z" />
    <glyph glyph-name="a" unicode="a" horiz-adv-x="1472" 
d="M524 526h424l-145 359q-24 60 -39 113t-23 67l-6 20h-2l-22 -67q-18 -61 -45 -129zM1149 -2l-107 272h-620l-107 -272h-307l590 1432h268l590 -1432h-307z" />
    <glyph glyph-name="b" unicode="b" horiz-adv-x="1343" 
d="M455 242h290l3 -4q102 0 163 55t62 147q0 92 -66 148t-164 55h-288v-401zM457 858h252v-2q88 0 143 49t55 119t-55 117q-57 47 -143 47h-252v-330zM172 1427h594l-6 -6q184 0 307 -102t123 -256q0 -153 -125 -256q-33 -27 -72 -37v-2q109 -25 195 -121q86 -97 86 -223
q0 -186 -125 -307t-375 -121h-602v1431z" />
    <glyph glyph-name="c" unicode="c" horiz-adv-x="1548" 
d="M826 248q110 0 216 59t158 154l287 -76q-90 -188 -266 -303q-177 -115 -423 -115q-132 0 -268 54q-277 111 -397 391q-57 135 -57 298t59 303q117 278 397 392q136 55 268 55q233 0 407 -102q175 -102 266 -275l-291 -75l-6 -9q-60 82 -158 128q-98 47 -200 47
q-205 1 -328 -131q-123 -131 -121 -334q1 -103 35 -191t92 -145q124 -125 330 -125z" />
    <glyph glyph-name="d" unicode="d" horiz-adv-x="1607" 
d="M1100 383q135 122 135 324t-130 332t-317 128h-333v-901l503 31q80 31 142 86zM166 1434h618l-2 -4q311 0 527 -202q215 -202 216 -516q1 -315 -214 -517q-95 -91 -231 -143t-292 -52h-622v1434z" />
    <glyph glyph-name="e" unicode="e" horiz-adv-x="1335" 
d="M455 266h741v-266h-1026v1434h1014v-267h-729v-305h575v-250h-575v-346z" />
    <glyph glyph-name="f" unicode="f" horiz-adv-x="1234" 
d="M1163 1167h-708v-350h555v-256h-555v-561h-285v1434h993v-267z" />
    <glyph glyph-name="g" unicode="g" horiz-adv-x="1624" 
d="M1257 150h-2l-6 -5q-63 -72 -180 -121q-118 -49 -263 -50q-145 0 -280 54q-278 112 -397 390q-57 135 -57 298t59 303q117 278 397 392q135 55 289 55q217 -4 386 -105t267 -276l-290 -75q-60 82 -158 128t-200 46t-185 -34q-167 -68 -234 -245q-31 -86 -31 -188
q1 -208 130 -336q129 -129 353 -129t355 162q33 43 50 84v61h-398v232h641v-789h-246v148z" />
    <glyph glyph-name="h" unicode="h" horiz-adv-x="1529" 
d="M1075 1434h285v-1434h-285v592h-620v-592h-285v1434h285v-574h620v574z" />
    <glyph glyph-name="i" unicode="i" horiz-adv-x="624" 
d="M455 0h-285v1434h285v-1434z" />
    <glyph glyph-name="j" unicode="j" horiz-adv-x="1374" 
d="M950 1434h285l2 -822q0 -305 -174 -479q-82 -82 -200 -124q-117 -42 -237 -42q-324 0 -513 221q-57 66 -88 148l280 76q39 -84 116 -129t183 -45q166 0 256 99t90 273v824z" />
    <glyph glyph-name="k" unicode="k" horiz-adv-x="1470" 
d="M451 829q4 1 47 47t161 164l394 394h350l-600 -603l618 -831h-338l-473 643l-159 -160v-483h-285v1434h285v-283l-2 -322h2z" />
    <glyph glyph-name="l" unicode="l" horiz-adv-x="1204" 
d="M455 266h708v-266h-993v1434h285v-1168z" />
    <glyph glyph-name="m" unicode="m" horiz-adv-x="1736" 
d="M446 449v-449h-280v1434h268l297 -492q8 -14 32 -54t36 -61q13 -21 29 -46t20 -34t16 -28h2l15 24q6 12 50 81t68 118l299 492h269l-11 -1434h-280v446l6 367v105l2 36h-2l-16 -28q-45 -82 -89 -155l-15 -25q-5 -9 -7 -11l-223 -385h-148l-223 385q-2 2 -13 22
q-11 19 -18 29l-43 74q-10 16 -36 66l-17 28h-2l2 -36q2 -14 3 -50t5 -114q4 -77 4 -305z" />
    <glyph glyph-name="n" unicode="n" horiz-adv-x="1589" 
d="M1135 1434h284l-4 -1434h-268l-408 551q-49 63 -98 135t-99 140t-63 85l-26 39h-2v-950h-285v1432h268l416 -560q8 -10 27 -36t70 -94q52 -68 155 -214l31 -41h2v947z" />
    <glyph glyph-name="o" unicode="o" horiz-adv-x="1644" 
d="M1268 713q0 202 -124 336q-124 133 -322 133q-199 0 -322 -127q-125 -134 -125 -338l-2 -8q0 -207 124 -335t322 -128q199 0 324 132q125 133 125 335zM815 1452q154 0 290 -55q279 -113 396 -389q59 -141 59 -304q1 -324 -217 -534q-100 -98 -237 -152t-289 -55
q-152 0 -287 54q-277 111 -397 391q-57 135 -57 301l-6 -4q0 160 59 300q117 278 397 392q135 55 289 55z" />
    <glyph glyph-name="p" unicode="p" horiz-adv-x="1296" 
d="M455 739h221v-2q130 -1 196 57t66 160t-70 158t-192 55h-221v-428zM170 1432h512q252 0 401 -126q148 -126 148 -354q0 -339 -318 -448q-98 -33 -231 -33h-227v-471h-285v1432z" />
    <glyph glyph-name="q" unicode="q" horiz-adv-x="1644" 
d="M500 1053q-125 -134 -125 -337t125 -337q123 -127 321 -127l-2 -8q199 0 324 132t125 335q0 202 -124 336q-124 133 -322 133q-199 0 -322 -127zM674 -276v256l-4 -5q-268 53 -434 250t-166 480q0 160 59 300q117 278 397 392q135 55 289 55t290 -55q279 -113 396 -389
q59 -142 59 -294q1 -292 -169 -492q-171 -201 -433 -245v-253h-284z" />
    <glyph glyph-name="r" unicode="r" horiz-adv-x="1363" 
d="M455 1167v-424l252 -4q115 0 174 68q57 61 57 147t-58 149q-58 64 -171 64h-254zM455 485v-487h-285v1432h502q269 0 413 -132q150 -141 150 -350q0 -150 -71 -254t-201 -155l327 -541h-319l-283 487h-233z" />
    <glyph glyph-name="s" unicode="s" horiz-adv-x="1245" 
d="M383 1072q0 -52 37 -92t178 -93l129 -43q66 -20 155 -62q173 -81 253 -213q41 -72 41 -168t-39 -174q-82 -165 -283 -227q-98 -33 -223 -33q-229 0 -379 116t-207 312l274 74q26 -108 110 -178q85 -70 209 -71t183 48q59 50 59 114t-32 100q-61 66 -215 112
q-278 77 -402 178q-129 110 -129 275q0 164 151 287q151 124 362 124q210 0 361 -108t193 -277l-274 -76h-16q-25 101 -101 157q-77 56 -178 56q-100 0 -158 -43t-59 -95z" />
    <glyph glyph-name="t" unicode="t" horiz-adv-x="1239" 
d="M29 1434h1181v-267h-450v-1167h-285v1167h-446v267z" />
    <glyph glyph-name="u" unicode="u" horiz-adv-x="1515" 
d="M760 238q330 0 330 389v807h286l-2 -813q0 -310 -166 -484q-78 -80 -194 -125q-117 -41 -256 -41t-256 43q-232 85 -318 328q-43 123 -43 281v811h285v-807q0 -199 83 -294t251 -95z" />
    <glyph glyph-name="v" unicode="v" horiz-adv-x="1472" 
d="M731 315h2q2 0 25 72q20 72 61 178l328 869h311l-577 -1434h-303l-572 1432h311l330 -869q29 -78 55 -163t29 -85z" />
    <glyph glyph-name="w" unicode="w" horiz-adv-x="2103" 
d="M1047 946q-1 0 -15 -70t-51 -184l-221 -692h-266l-451 1434h303l225 -775q27 -98 43 -159t19 -62h2q4 0 18 62t49 159l218 621h264l217 -621q33 -98 49 -159t18 -62h2q4 0 18 62t44 159l225 775h301l-450 -1434h-265l-221 692q-39 121 -55 188t-18 66h-2z" />
    <glyph glyph-name="x" unicode="x" horiz-adv-x="1396" 
d="M700 496h-2l-14 -29q-12 -20 -31 -49l-37 -56q-8 -12 -26 -43l-230 -323h-340l502 733l-473 698h342l221 -329q12 -16 28 -47t27 -48l25 -42h2l11 18l18 33q11 22 25 48t26 44l221 330h344l-475 -699l502 -735h-340l-229 326q-10 14 -25 43l-31 55q-21 35 -28 49z" />
    <glyph glyph-name="y" unicode="y" horiz-adv-x="1435" 
d="M854 0h-283v657l-551 777h320l295 -412q74 -107 80 -104h2q7 0 80 104l293 412h321l-557 -777v-657z" />
    <glyph glyph-name="z" unicode="z" horiz-adv-x="1443" 
d="M719 256h600v-264h-1198v264l710 784q23 27 50 51q26 25 32 31l31 31l14 12l-2 2h-813v267h1178v-267l-692 -782q-121 -131 -121 -135l2 -2l6 2l55 2q78 4 148 4z" />
    <glyph glyph-name="braceleft" unicode="{" horiz-adv-x="886" 
d="M588 1210v-161l-6 -19q0 -176 -50 -264q-18 -35 -36 -47t-23 -12q5 -1 23 -13q40 -27 63 -123q24 -96 25 -192v-160q0 -179 88 -254q62 -53 188 -53v-266q-274 0 -416 144t-141 390v217q0 173 -65 262q-27 39 -66 56q39 16 66 53q71 97 69 264v217q-1 246 141 391
t416 146v-266q-125 0 -188 -54q-88 -74 -88 -256z" />
    <glyph glyph-name="bar" unicode="|" horiz-adv-x="567" 
d="M397 -150h-227v1737h227v-1737z" />
    <glyph glyph-name="braceright" unicode="}" horiz-adv-x="886" 
d="M299 1049v161l-4 -2q0 177 -88 258q-60 51 -189 54v266q271 0 416 -138q146 -138 146 -391v-217q0 -173 65 -262q27 -41 68 -55q-41 -14 -66 -50q-67 -96 -67 -267v-218q0 -249 -147 -388q-147 -138 -413 -138v266q126 0 189 54q88 65 88 256v159q0 165 51 267
q18 37 36 49t24 12q-4 0 -23 12q-44 29 -65 118q-21 88 -21 194z" />
    <glyph glyph-name="asciitilde" unicode="~" 
d="M602 648q-33 16 -87 16t-88 -40t-34 -87l-235 61q18 140 123 213q87 64 185 65t166 -25t125 -52q57 -27 85 -40t86 -14t91 39q34 40 34 88l237 -63q-19 -94 -48 -140q-91 -141 -286 -145q-92 0 -216 60q-38 18 -72 33q-33 15 -66 31z" />
    <glyph glyph-name="uni00A0" unicode="&#xa0;" horiz-adv-x="512" 
 />
    <glyph glyph-name="exclamdown" unicode="&#xa1;" horiz-adv-x="624" 
d="M170 985h285v-985h-285v985zM170 1434h285v-322h-285v322z" />
    <glyph glyph-name="cent" unicode="&#xa2;" horiz-adv-x="1181" 
d="M725 -35h-229v201q-179 45 -301 188q-127 155 -126 353t124 346t303 190v217h229v-215q127 -29 227 -105t154 -190l-250 -65q-90 125 -229 125t-215 -79t-76 -220t78 -223t207 -80q184 0 260 157l247 -69l-10 -9q-49 -125 -152 -210t-241 -113v-199z" />
    <glyph glyph-name="sterling" unicode="&#xa3;" horiz-adv-x="1335" 
d="M723 266h530l2 -274h-1083v264q96 20 124 82t15 184l-6 60h-129v225h109l-17 184q-19 181 117 319q137 138 340 146q163 5 301 -82q177 -112 225 -313l-241 -68q-72 223 -269 215q-94 -8 -147 -74t-45 -163l14 -158h418v-225h-395l4 -51q16 -219 -80 -279l2 -2l27 2
q40 8 184 8z" />
    <glyph glyph-name="currency" unicode="&#xa4;" horiz-adv-x="1361" 
d="M891 479q88 88 88 217t-86 216t-213 87l-2 -6q-129 0 -215 -87t-85 -214t85 -211t215 -86q58 0 116 23t97 61zM1225 686q0 -177 -97 -311l140 -142l-142 -141l-141 141q-140 -100 -306 -100t-314 100l-142 -141l-139 141l137 140q-96 143 -96 318t96 310l-141 140
l141 141l141 -141q140 100 312 100t317 -100l144 141l135 -141l-142 -142q97 -136 97 -313z" />
    <glyph glyph-name="yen" unicode="&#xa5;" horiz-adv-x="1433" 
d="M1266 936v-186h-346l-48 -68h394v-188h-412v-494h-283v494h-405v188h387l-47 68h-340v186h207l-353 498h320l295 -412q74 -107 80 -104h2q7 0 80 104l293 412h321l-354 -498h209z" />
    <glyph glyph-name="brokenbar" unicode="&#xa6;" horiz-adv-x="567" 
d="M170 442h227v-592h-227v592zM170 1587h227v-573h-227v573z" />
    <glyph glyph-name="section" unicode="&#xa7;" horiz-adv-x="1087" 
d="M780 709q0 77 -88 110q-46 17 -104 31t-94 24q-108 -13 -150 -73q-14 -20 -14 -49l6 -11q0 -62 92 -92q51 -18 93 -27t120 -30q63 8 101 40t38 77zM831 524q191 -98 191 -236q0 -81 -33 -137q-69 -117 -244 -167q-86 -25 -192 -25q-195 0 -324 82q-125 82 -178 219
l232 62q20 -70 92 -125t179 -55t161 34q53 35 53 81t-29 71q-57 49 -197 82t-211 59q-146 54 -206 139q-31 47 -31 116t47 126t129 90q-161 80 -161 223q0 118 124 203q55 39 141 64q174 51 331 5t241 -139q41 -47 64 -106l-232 -62l-14 9q-24 75 -90 111t-147 36t-131 -28
t-50 -66q0 -67 88 -98q32 -12 72 -22q270 -65 388 -142t118 -199q0 -146 -181 -205z" />
    <glyph glyph-name="dieresis" unicode="&#xa8;" horiz-adv-x="878" 
d="M676 1571v-2q-57 0 -98 37q-39 37 -39 94t39 96t98 39t98 -39t39 -95t-40 -93t-97 -37zM147 1569v-2q-57 0 -98 37q-39 37 -39 94t39 96t96 39t97 -39t39 -95t-41 -93t-93 -37z" />
    <glyph glyph-name="copyright" unicode="&#xa9;" horiz-adv-x="1644" 
d="M426 1116q-150 -154 -150 -392t152 -394q144 -152 383 -152q113 0 214 41q199 81 280 285q41 100 41 221q0 239 -150 393q-146 154 -381 154l-8 -4q-237 0 -381 -152zM1546 712q0 -325 -217 -534q-100 -98 -237 -152t-289 -54t-287 54q-278 112 -397 390q-57 135 -57 298
t58 303q118 278 398 392q135 55 289 55l-6 -4q154 0 289 -55q280 -113 398 -391q58 -139 58 -302zM840 371q-158 0 -262 98q-103 98 -103 254q0 75 29 141q56 128 184 185q61 27 150 27q88 0 176 -57q88 -56 127 -142l-164 -43q-53 78 -145 78t-140 -53q-49 -52 -49 -138
t49 -138t131 -53q119 0 164 97l156 -43q-37 -92 -124 -152t-179 -61zM1143 584l2 4l6 -6z" />
    <glyph glyph-name="ordfeminine" unicode="&#xaa;" horiz-adv-x="743" 
d="M41 639h661v-174h-661v174zM373 1286h-2v-4q-5 0 -13 -50t-30 -120l-29 -90h139l-28 90q-23 72 -29 123t-8 51zM258 889l-41 -125h-174l248 682h160l249 -682h-178l-39 125h-225z" />
    <glyph glyph-name="guillemotleft" unicode="&#xab;" horiz-adv-x="1595" 
d="M170 721l483 479l154 -156l-336 -323l338 -324l-158 -157zM786 721l484 479l153 -156l-336 -323l338 -324l-157 -157z" />
    <glyph glyph-name="uni00AD" unicode="&#xad;" horiz-adv-x="1273" 
d="M170 844h934v-234h-934v234z" />
    <glyph glyph-name="registered" unicode="&#xae;" horiz-adv-x="1644" 
d="M737 922v-179l105 2q50 0 74 25t24 64q0 40 -25 64t-71 24h-107zM578 1069h245v-2q131 0 202 -61t71 -166q0 -143 -127 -197l164 -270h-170l-138 243h-90v-243h-157v696zM1194 322q152 156 152 394t-150 392q-146 154 -382 154t-380 -152q-149 -153 -149 -391t147 -392
q147 -155 387 -155l-8 -4q113 0 214 41t169 113zM1550 706q0 -325 -217 -534q-100 -98 -237 -152t-289 -55q-152 0 -287 54q-277 111 -397 391q-57 135 -57 298t59 303q117 278 397 392q135 55 289 55l-6 -4q154 0 289 -55q280 -113 398 -391q58 -139 58 -302z" />
    <glyph glyph-name="macron" unicode="&#xaf;" horiz-adv-x="704" 
d="M-18 1602h692v-222h-692v222z" />
    <glyph glyph-name="degree" unicode="&#xb0;" horiz-adv-x="659" 
d="M219 1459q1 -49 33 -81t78 -32t81 34q33 34 33 80q0 47 -32 80q-33 33 -80 33t-80 -33t-33 -81zM123 1649q86 82 204 82q117 0 200 -83t82 -198q-1 -114 -81 -194t-198 -80l-4 -5q-117 0 -203 82q-86 78 -84 195q1 56 23 110t61 91z" />
    <glyph glyph-name="plusminus" unicode="&#xb1;" 
d="M248 -16v231h936v-231h-936zM840 844h344v-234h-342v-239h-250v239h-344v234h342v350h250v-350z" />
    <glyph glyph-name="uni00B2" unicode="&#xb2;" horiz-adv-x="688" 
d="M494 1128h133v-161h-586v123l276 231q47 41 89 86t43 95q0 50 -31 79q-33 29 -84 29t-90 -43q-20 -26 -41 -88l-164 43q21 97 106 180q89 80 206 80t203 -77q87 -77 87 -194q0 -78 -48 -147t-194 -174q-47 -32 -79 -50t-33 -20l2 -2l-10 -2q4 0 65 6t150 6z" />
    <glyph glyph-name="uni00B3" unicode="&#xb3;" horiz-adv-x="704" 
d="M354 1110q57 0 90 29q31 29 31 73t-36 72q-36 27 -93 27h-76v131h76q47 0 81 28t34 64t-28 64t-84 28t-90 -26t-48 -93l-158 43q23 97 101 160q78 64 208 64t205 -68q74 -68 74 -156t-52 -132t-114 -44v-2q80 -8 114 -40q64 -60 64 -122q0 -124 -84 -190
q-80 -68 -201 -69t-216 67q-94 68 -113 168l160 43q17 -119 155 -119z" />
    <glyph glyph-name="acute" unicode="&#xb4;" horiz-adv-x="647" 
d="M485 1903l99 -195l-490 -211l-82 152z" />
    <glyph glyph-name="paragraph" unicode="&#xb6;" horiz-adv-x="1566" 
d="M578 1434h817l-2 -1432h-285v1165h-172v-1165h-268v612h-93q-235 0 -367 108t-132 301q0 195 133 303t369 108z" />
    <glyph glyph-name="periodcentered" unicode="&#xb7;" horiz-adv-x="528" 
d="M264 584q-57 0 -98 41t-41 98t41 98t98 41t98 -41t41 -98t-41 -98t-98 -41z" />
    <glyph glyph-name="cedilla" unicode="&#xb8;" horiz-adv-x="532" 
d="M307 -315q0 53 -76 61h-190l88 254h160l-41 -109q140 -4 194 -118q18 -37 18 -91q1 -99 -60 -156q-62 -56 -171 -56h-219l60 151h159q41 1 59 19t19 45z" />
    <glyph glyph-name="uni00B9" unicode="&#xb9;" horiz-adv-x="514" 
d="M252 969v401q0 36 3 60t5 44l8 54h-2q-4 0 -14 -18t-53 -60l-60 -57l-116 104l292 268h131l-8 -796h-186z" />
    <glyph glyph-name="ordmasculine" unicode="&#xba;" horiz-adv-x="745" 
d="M41 639h664v-174h-664v174zM195 1106v-6q0 -80 49 -131t127 -51t127 53t49 135t-49 134t-127 52t-127 -52t-49 -134zM20 1100h-6q0 153 104 253q104 99 247 99q144 0 251 -100q105 -101 105 -254q0 -154 -105 -253t-247 -98q-143 1 -246 99q-103 99 -103 254z" />
    <glyph glyph-name="guillemotright" unicode="&#xbb;" horiz-adv-x="1595" 
d="M942 1200l483 -479l-481 -481l-158 157l338 324l-336 323zM326 1200l483 -479l-481 -481l-158 157l338 324l-336 323z" />
    <glyph glyph-name="onequarter" unicode="&#xbc;" horiz-adv-x="1476" 
d="M1065 305h106l-4 131l4 111h-2q-2 -1 -17 -23t-44 -55l-96 -113q-14 -16 -34 -36t-20 -21l3 -2l4 2l28 2q41 4 72 4zM1423 305v-153h-90v-152h-166v152h-397v127l422 514h141v-488h90zM1135 1432h188l-1012 -1432h-186zM434 1430v-795h-186v401q0 37 3 60q3 24 5 46l8 52
h-2q-4 0 -14 -18t-53 -60l-60 -57l-125 102l293 269h131z" />
    <glyph glyph-name="onehalf" unicode="&#xbd;" horiz-adv-x="1544" 
d="M1350 158h133v-160h-586v121l277 231q47 41 89 86q42 46 42 96t-32 78t-71 29q-89 0 -127 -86q-14 -39 -16 -45l-164 43q21 97 106 180q89 80 207 80t205 -78q86 -78 84 -192q0 -78 -49 -148t-193 -174q-47 -31 -79 -49t-33 -20l2 -3l-10 -2q4 1 65 7t150 6zM119 0
l1009 1432h189l-1012 -1432h-186zM242 635v401q0 61 6 97t10 61h-2q-2 0 -13 -18t-55 -60l-59 -57l-117 104l293 269h131l-8 -797h-186z" />
    <glyph glyph-name="threequarters" unicode="&#xbe;" horiz-adv-x="1609" 
d="M1198 305h107l-5 131l5 111h-2q-1 -1 -17 -23t-45 -55l-96 -113q-13 -16 -33 -36t-20 -21l2 -2l4 2l28 2q41 4 72 4zM1556 305v-153h-90v-152h-166v152h-397v127l422 514h141v-488h90zM1268 1432h188l-1012 -1432h-188zM350 774q57 0 90 29q31 29 31 73t-36 72
q-36 27 -93 27h-76v131h76q47 0 81 28t34 64t-28 65q-28 27 -84 27t-90 -26t-48 -93l-158 43q21 102 101 166t210 66q130 0 205 -68q74 -68 74 -156t-52 -131q-52 -44 -114 -44v-3l-2 -8q80 -8 114 -40q64 -60 64 -122q0 -124 -84 -190q-80 -68 -201 -69t-215 67
q-95 68 -114 168l160 43q17 -119 155 -119z" />
    <glyph glyph-name="questiondown" unicode="&#xbf;" horiz-adv-x="1196" 
d="M758 1436v-322h-287v322h287zM469 985h287v-247q-223 -120 -304 -186t-81 -142t45 -123q53 -62 174 -63q120 -1 188 51t101 161l239 -67q-45 -183 -184 -289t-369 -106t-362 122q-133 120 -131 293q0 233 252 373q47 27 145 80v143zM756 738v-1l2 2q-1 0 -2 -1z" />
    <glyph glyph-name="Agrave" unicode="&#xc0;" horiz-adv-x="1472" 
d="M524 526h424l-145 359q-24 60 -39 113t-23 67l-6 20h-2l-22 -67q-18 -61 -45 -129zM1149 -2l-107 272h-620l-107 -272h-307l590 1432h268l590 -1432h-307zM924 1645l-82 -152l-490 211l101 194z" />
    <glyph glyph-name="Aacute" unicode="&#xc1;" horiz-adv-x="1472" 
d="M524 526h424l-145 359q-24 60 -39 113t-23 67l-6 20h-2l-22 -67q-18 -61 -45 -129zM1149 -2l-107 272h-620l-107 -272h-307l590 1432h268l590 -1432h-307zM1065 1704l-487 -211l-84 152l473 253z" />
    <glyph glyph-name="Acircumflex" unicode="&#xc2;" horiz-adv-x="1472" 
d="M524 526h424l-145 359q-24 60 -39 113t-23 67l-6 20h-2l-22 -67q-18 -61 -45 -129zM1149 -2l-107 272h-620l-107 -272h-307l590 1432h268l590 -1432h-307zM725 1696l-244 -203l-139 141l383 326l381 -326l-137 -141z" />
    <glyph glyph-name="Atilde" unicode="&#xc3;" horiz-adv-x="1472" 
d="M524 526h424l-145 359q-24 60 -39 113t-23 67l-6 20h-2l-22 -67q-18 -61 -45 -129zM1149 -2l-107 272h-620l-107 -272h-307l590 1432h268l590 -1432h-307zM965 1806h223l-8 -4q0 -182 -174 -258q-50 -20 -110 -20t-112 24t-131 76q-31 18 -67 18t-66 -24q-27 -25 -26 -66
h-224q0 123 86 206t207 81q91 0 176 -61q29 -20 63 -40q78 -47 136 3q27 24 27 65z" />
    <glyph glyph-name="Adieresis" unicode="&#xc4;" horiz-adv-x="1472" 
d="M524 526h424l-145 359q-24 60 -39 113t-23 67l-6 20h-2l-22 -67q-18 -61 -45 -129zM1149 -2l-107 272h-620l-107 -272h-307l590 1432h268l590 -1432h-307zM989 1567v-2q-59 0 -98 37t-39 94t39 96t96 39t96 -39t39 -95t-39 -93t-94 -37zM461 1565v-2q-59 0 -99 36
q-38 37 -38 95t38 96q38 39 96 39t97 -39t39 -95t-39 -93t-94 -37z" />
    <glyph glyph-name="Aring" unicode="&#xc5;" horiz-adv-x="1472" 
d="M524 526h424l-145 359q-24 60 -39 113t-23 67l-6 20h-2l-22 -67q-18 -61 -45 -129zM614 1671q0 -47 34 -81t81 -34t81 34t34 82t-34 82t-79 34l-4 -4q-47 0 -80 -33t-33 -80zM442 1650q0 122 82 205q89 84 201 82q55 -1 109 -23q107 -44 151 -145q23 -51 23 -117
t-39 -130q-39 -63 -105 -99l588 -1429h-307l-107 272l-626 -4l-107 -272h-305l586 1427q-64 37 -104 101t-40 132z" />
    <glyph glyph-name="AE" unicode="&#xc6;" horiz-adv-x="2074" 
d="M918 526v641l-144 -2l-10 -30q-2 -5 -24 -59t-36 -92t-26 -70t-16 -44l-134 -344h390zM1198 264h739v-264h-1017v272h-488l-108 -272h-310l596 1432h1315v-267h-727v-305h576v-250h-576v-346z" />
    <glyph glyph-name="Ccedilla" unicode="&#xc7;" horiz-adv-x="1548" 
d="M903 -322q0 55 -76 62h-188l80 233q-273 31 -457 234q-184 201 -184 509q0 155 59 295q117 278 398 392q135 55 267 55q232 0 407 -102t266 -275l-291 -75q-60 82 -158 128t-200 46t-185 -34q-169 -68 -233 -245q-31 -86 -31 -187q0 -102 35 -190q68 -173 233 -237
q79 -33 189 -33t216 60t158 153l287 -76l-14 -6q-82 -180 -245 -290t-370 -126l-30 -84q148 0 204 -118q18 -37 18 -90q1 -105 -67 -162q-53 -50 -166 -52h-217l60 152h157q78 0 78 63z" />
    <glyph glyph-name="Egrave" unicode="&#xc8;" horiz-adv-x="1335" 
d="M455 266h741v-266h-1026v1434h1014v-267h-729v-305h575v-250h-575v-346zM895 1649l-82 -152l-489 211l100 195z" />
    <glyph glyph-name="Eacute" unicode="&#xc9;" horiz-adv-x="1335" 
d="M455 266h741v-266h-1026v1434h1014v-267h-729v-305h575v-250h-575v-346zM1036 1708l-487 -211l-84 152l473 254z" />
    <glyph glyph-name="Ecircumflex" unicode="&#xca;" horiz-adv-x="1335" 
d="M455 266h741v-266h-1026v1434h1014v-267h-729v-305h575v-250h-575v-346zM696 1700l-243 -203l-140 141l383 326l381 -326l-137 -141z" />
    <glyph glyph-name="Edieresis" unicode="&#xcb;" horiz-adv-x="1335" 
d="M455 266h741v-266h-1026v1434h1014v-267h-729v-305h575v-250h-575v-346zM961 1571v-2q-59 0 -99 37q-39 37 -39 94t39 96q38 39 96 39t97 -39t39 -95t-39 -93t-94 -37zM432 1569v-2q-59 0 -98 37t-39 94t39 96t96 39t96 -39t39 -95t-39 -93t-94 -37z" />
    <glyph glyph-name="Igrave" unicode="&#xcc;" horiz-adv-x="624" 
d="M455 0h-285v1434h285v-1434zM424 1497l-487 211l98 195l471 -254z" />
    <glyph glyph-name="Iacute" unicode="&#xcd;" horiz-adv-x="624" 
d="M455 0h-285v1434h285v-1434zM549 1903l98 -195l-487 -211l-84 152z" />
    <glyph glyph-name="Icircumflex" unicode="&#xce;" horiz-adv-x="624" 
d="M455 0h-285v1434h285v-1434zM-74 1638l381 326l381 -326l-137 -141l-244 203l-244 -203z" />
    <glyph glyph-name="Idieresis" unicode="&#xcf;" horiz-adv-x="624" 
d="M455 0h-285v1434h285v-1434zM571 1571v-2q-59 0 -98 37t-39 94t39 96t96 39t97 -39t39 -95q1 -56 -39 -93t-95 -37zM43 1569v-2q-55 0 -96 37q-39 37 -39 94t39 96t95 39t95 -39t39 -95t-40 -93t-93 -37z" />
    <glyph glyph-name="Eth" unicode="&#xd0;" horiz-adv-x="1630" 
d="M477 1167v-313h268v-256h-268v-332l504 31q168 65 240 225q37 84 37 190q-1 200 -131 328q-130 129 -316 127h-334zM188 1434h619l-2 -4q313 0 524 -199q99 -96 159 -229t60 -294q0 -313 -215 -513q-96 -91 -231 -143t-291 -52h-623v598h-114v256h114v580z" />
    <glyph glyph-name="Ntilde" unicode="&#xd1;" horiz-adv-x="1589" 
d="M1135 1434h284l-4 -1434h-268l-408 551q-49 63 -98 135t-99 140t-63 85l-26 39h-2v-950h-285v1432h268l416 -560q8 -10 27 -36t70 -94q52 -68 155 -214l31 -41h2v947zM1026 1808h223l-8 -4q0 -182 -174 -258q-49 -20 -109 -20t-101 18q-40 18 -88 48q-49 30 -67 41
t-55 11t-65 -24q-28 -25 -27 -66h-223q0 125 86 207t207 80q88 0 176 -61q29 -20 63 -40t70 -22q36 0 64 24t28 66z" />
    <glyph glyph-name="Ograve" unicode="&#xd2;" horiz-adv-x="1644" 
d="M1268 713q0 202 -124 336q-124 133 -322 133q-199 0 -322 -127q-125 -134 -125 -338l-2 -8q0 -207 124 -335t322 -128q199 0 324 132q125 133 125 335zM815 1452q154 0 290 -55q279 -113 396 -389q59 -141 59 -304q1 -324 -217 -534q-100 -98 -237 -152t-289 -55
q-152 0 -287 54q-277 111 -397 391q-57 135 -57 301l-6 -4q0 160 59 300q117 278 397 392q135 55 289 55zM934 1485l-490 211l101 194l471 -254z" />
    <glyph glyph-name="Oacute" unicode="&#xd3;" horiz-adv-x="1644" 
d="M1268 713q0 202 -124 336q-124 133 -322 133q-199 0 -322 -127q-125 -134 -125 -338l-2 -8q0 -207 124 -335t322 -128q199 0 324 132q125 133 125 335zM815 1452q154 0 290 -55q279 -113 396 -389q59 -141 59 -304q1 -324 -217 -534q-100 -98 -237 -152t-289 -55
q-152 0 -287 54q-277 111 -397 391q-57 135 -57 301l-6 -4q0 160 59 300q117 278 397 392q135 55 289 55zM1059 1890l98 -194l-487 -211l-84 151z" />
    <glyph glyph-name="Ocircumflex" unicode="&#xd4;" horiz-adv-x="1644" 
d="M1268 713q0 202 -124 336q-124 133 -322 133q-199 0 -322 -127q-125 -134 -125 -338l-2 -8q0 -207 124 -335t322 -128q199 0 324 132q125 133 125 335zM815 1452q154 0 290 -55q279 -113 396 -389q59 -141 59 -304q1 -324 -217 -534q-100 -98 -237 -152t-289 -55
q-152 0 -287 54q-277 111 -397 391q-57 135 -57 301l-6 -4q0 160 59 300q117 278 397 392q135 55 289 55zM434 1626l383 326l381 -326l-137 -141l-244 203l-244 -203z" />
    <glyph glyph-name="Otilde" unicode="&#xd5;" horiz-adv-x="1644" 
d="M1268 713q0 202 -124 336q-124 133 -322 133q-199 0 -322 -127q-125 -134 -125 -338l-2 -8q0 -207 124 -335t322 -128q199 0 324 132q125 133 125 335zM815 1452q154 0 290 -55q279 -113 396 -389q59 -141 59 -304q1 -324 -217 -534q-100 -98 -237 -152t-289 -55
q-152 0 -287 54q-277 111 -397 391q-57 135 -57 301l-6 -4q0 160 59 300q117 278 397 392q135 55 289 55zM1057 1798h223l-8 -4q0 -186 -174 -258q-48 -20 -108 -20t-94 15t-66 33t-55 33q-25 13 -43 25t-56 12t-64 -24q-27 -24 -26 -66h-224q0 123 85 205t191 82t193 -62
q29 -21 63 -41t72 -20t64 24t27 66z" />
    <glyph glyph-name="Odieresis" unicode="&#xd6;" horiz-adv-x="1644" 
d="M1268 713q0 202 -124 336q-124 133 -322 133q-199 0 -322 -127q-125 -134 -125 -338l-2 -8q0 -207 124 -335t322 -128q199 0 324 132q125 133 125 335zM815 1452q154 0 290 -55q279 -113 396 -389q59 -141 59 -304q1 -324 -217 -534q-100 -98 -237 -152t-289 -55
q-152 0 -287 54q-277 111 -397 391q-57 135 -57 301l-6 -4q0 160 59 300q117 278 397 392q135 55 289 55zM1081 1559v-3q-57 0 -98 37q-39 37 -39 95t39 96q39 39 96 39t97 -39t38 -95q0 -56 -38 -94q-42 -36 -95 -36zM553 1556v-2q-57 0 -98 37q-39 37 -39 95t39 96
q39 39 96 39t96 -39t39 -95q0 -55 -39 -93t-94 -38z" />
    <glyph glyph-name="multiply" unicode="&#xd7;" 
d="M973 1167l188 -190l-256 -256l256 -258l-190 -189l-256 256l-254 -254l-191 191l254 254l-254 254l189 188l256 -252z" />
    <glyph glyph-name="Oslash" unicode="&#xd8;" horiz-adv-x="1644" 
d="M826 252q92 0 176 34q168 68 235 244q33 84 33 189q0 157 -74 270l-543 -708q82 -29 173 -29zM373 729q0 -175 82 -293l544 713l-4 2q-92 33 -184 33t-174 -34q-166 -69 -231 -241q-33 -84 -33 -180zM74 715q0 160 59 300q117 278 397 392q135 55 314 55t325 -82l76 99
l203 -152l-78 -100l-2 -6q189 -201 190 -518t-217 -527q-210 -206 -543 -206q-169 0 -325 79l-76 -96l-202 149l73 99q-194 207 -194 514z" />
    <glyph glyph-name="Ugrave" unicode="&#xd9;" horiz-adv-x="1515" 
d="M760 238q330 0 330 389v807h286l-2 -813q0 -310 -166 -484q-78 -80 -194 -125q-117 -41 -256 -41t-256 43q-232 85 -318 328q-43 123 -43 281v811h285v-807q0 -199 83 -294t251 -95zM868 1495l-489 211l100 195l471 -254z" />
    <glyph glyph-name="Uacute" unicode="&#xda;" horiz-adv-x="1515" 
d="M760 238q330 0 330 389v807h286l-2 -813q0 -310 -166 -484q-78 -80 -194 -125q-117 -41 -256 -41t-256 43q-232 85 -318 328q-43 123 -43 281v811h285v-807q0 -199 83 -294t251 -95zM993 1901l99 -195l-488 -211l-84 152z" />
    <glyph glyph-name="Ucircumflex" unicode="&#xdb;" horiz-adv-x="1515" 
d="M760 238q330 0 330 389v807h286l-2 -813q0 -310 -166 -484q-78 -80 -194 -125q-117 -41 -256 -41t-256 43q-232 85 -318 328q-43 123 -43 281v811h285v-807q0 -199 83 -294t251 -95zM369 1636l383 326l381 -326l-138 -141l-243 203l-244 -203z" />
    <glyph glyph-name="Udieresis" unicode="&#xdc;" horiz-adv-x="1515" 
d="M760 238q330 0 330 389v807h286l-2 -813q0 -310 -166 -484q-78 -80 -194 -125q-117 -41 -256 -41t-256 43q-232 85 -318 328q-43 123 -43 281v811h285v-807q0 -199 83 -294t251 -95zM1016 1569v-2q-57 0 -98 37q-39 37 -39 94t39 96t96 39t96 -39t39 -95t-40 -93t-93 -37
zM487 1567v-2q-57 0 -98 37q-39 37 -39 94t39 96t96 39t97 -39t39 -95t-41 -93t-93 -37z" />
    <glyph glyph-name="Yacute" unicode="&#xdd;" horiz-adv-x="1435" 
d="M854 0h-283v657l-551 777h320l295 -412q74 -107 80 -104h2q7 0 80 104l293 412h321l-557 -777v-657zM948 1903l99 -195l-488 -211l-84 152z" />
    <glyph glyph-name="Thorn" unicode="&#xde;" horiz-adv-x="1302" 
d="M455 506h247v-2q109 0 172 59q62 59 62 153t-60 153q-60 60 -174 61h-247v-424zM455 1196h241l-4 8q236 0 388 -136q151 -136 151 -347t-152 -348t-383 -135h-241v-238h-285v1432h285v-236z" />
    <glyph glyph-name="germandbls" unicode="&#xdf;" horiz-adv-x="1658" 
d="M455 1167v-1167h-285v1434h1274l-221 -410q-19 -41 -29 -57q-10 -17 -20 -37t-17 -32t-33 -64l2 -3h11q191 0 311 -116q57 -55 92 -134t35 -166t-34 -171q-70 -173 -255 -242q-98 -33 -207 -33q-162 0 -295 76q-131 78 -200 203l270 74q83 -109 206 -109q122 0 177 61
q55 62 55 148t-58 146t-171 61h-207v207l119 235q16 33 20 43l11 22l16 33l-2 2l-139 -4h-426z" />
    <glyph glyph-name="agrave" unicode="&#xe0;" horiz-adv-x="1472" 
d="M524 526h424l-145 359q-24 60 -39 113t-23 67l-6 20h-2l-22 -67q-18 -61 -45 -129zM1149 -2l-107 272h-620l-107 -272h-307l590 1432h268l590 -1432h-307zM924 1645l-82 -152l-490 211l101 194z" />
    <glyph glyph-name="aacute" unicode="&#xe1;" horiz-adv-x="1472" 
d="M524 526h424l-145 359q-24 60 -39 113t-23 67l-6 20h-2l-22 -67q-18 -61 -45 -129zM1149 -2l-107 272h-620l-107 -272h-307l590 1432h268l590 -1432h-307zM1065 1704l-487 -211l-84 152l473 253z" />
    <glyph glyph-name="acircumflex" unicode="&#xe2;" horiz-adv-x="1472" 
d="M524 526h424l-145 359q-24 60 -39 113t-23 67l-6 20h-2l-22 -67q-18 -61 -45 -129zM1149 -2l-107 272h-620l-107 -272h-307l590 1432h268l590 -1432h-307zM725 1696l-244 -203l-139 141l383 326l381 -326l-137 -141z" />
    <glyph glyph-name="atilde" unicode="&#xe3;" horiz-adv-x="1472" 
d="M524 526h424l-145 359q-24 60 -39 113t-23 67l-6 20h-2l-22 -67q-18 -61 -45 -129zM1149 -2l-107 272h-620l-107 -272h-307l590 1432h268l590 -1432h-307zM965 1806h223l-8 -4q0 -182 -174 -258q-50 -20 -110 -20t-112 24t-131 76q-31 18 -67 18t-66 -24q-27 -25 -26 -66
h-224q0 123 86 206t207 81q91 0 176 -61q29 -20 63 -40q78 -47 136 3q27 24 27 65z" />
    <glyph glyph-name="adieresis" unicode="&#xe4;" horiz-adv-x="1472" 
d="M524 526h424l-145 359q-24 60 -39 113t-23 67l-6 20h-2l-22 -67q-18 -61 -45 -129zM1149 -2l-107 272h-620l-107 -272h-307l590 1432h268l590 -1432h-307zM989 1567v-2q-59 0 -98 37t-39 94t39 96t96 39t96 -39t39 -95t-39 -93t-94 -37zM461 1565v-2q-59 0 -99 36
q-38 37 -38 95t38 96q38 39 96 39t97 -39t39 -95t-39 -93t-94 -37z" />
    <glyph glyph-name="aring" unicode="&#xe5;" horiz-adv-x="1472" 
d="M524 526h424l-145 359q-24 60 -39 113t-23 67l-6 20h-2l-22 -67q-18 -61 -45 -129zM614 1671q0 -47 34 -81t81 -34t81 34t34 82t-34 82t-79 34l-4 -4q-47 0 -80 -33t-33 -80zM442 1650q0 122 82 205q89 84 201 82q55 -1 109 -23q107 -44 151 -145q23 -51 23 -117
t-39 -130q-39 -63 -105 -99l588 -1429h-307l-107 272l-626 -4l-107 -272h-305l586 1427q-64 37 -104 101t-40 132z" />
    <glyph glyph-name="ae" unicode="&#xe6;" horiz-adv-x="2074" 
d="M918 526v641l-144 -2l-10 -30q-2 -5 -24 -59t-36 -92t-26 -70t-16 -44l-134 -344h390zM1198 264h739v-264h-1017v272h-488l-108 -272h-310l596 1432h1315v-267h-727v-305h576v-250h-576v-346z" />
    <glyph glyph-name="ccedilla" unicode="&#xe7;" horiz-adv-x="1548" 
d="M903 -322q0 55 -76 62h-188l80 233q-273 31 -457 234q-184 201 -184 509q0 155 59 295q117 278 398 392q135 55 267 55q232 0 407 -102t266 -275l-291 -75q-60 82 -158 128t-200 46t-185 -34q-169 -68 -233 -245q-31 -86 -31 -187q0 -102 35 -190q68 -173 233 -237
q79 -33 189 -33t216 60t158 153l287 -76l-14 -6q-82 -180 -245 -290t-370 -126l-30 -84q148 0 204 -118q18 -37 18 -90q1 -105 -67 -162q-53 -50 -166 -52h-217l60 152h157q78 0 78 63z" />
    <glyph glyph-name="egrave" unicode="&#xe8;" horiz-adv-x="1335" 
d="M455 266h741v-266h-1026v1434h1014v-267h-729v-305h575v-250h-575v-346zM893 1649l-82 -152l-489 211l100 195z" />
    <glyph glyph-name="eacute" unicode="&#xe9;" horiz-adv-x="1335" 
d="M455 266h741v-266h-1026v1434h1014v-267h-729v-305h575v-250h-575v-346zM1034 1708l-487 -211l-84 152l473 254z" />
    <glyph glyph-name="ecircumflex" unicode="&#xea;" horiz-adv-x="1335" 
d="M455 266h741v-266h-1026v1434h1014v-267h-729v-305h575v-250h-575v-346zM694 1700l-243 -203l-140 141l383 326l381 -326l-137 -141z" />
    <glyph glyph-name="edieresis" unicode="&#xeb;" horiz-adv-x="1335" 
d="M455 266h741v-266h-1026v1434h1014v-267h-729v-305h575v-250h-575v-346zM958 1571v-2q-57 0 -98 37q-39 37 -39 94t39 96t96 39q56 0 96 -39t40 -95t-40 -93t-94 -37zM430 1569v-2q-57 0 -98 37q-39 37 -39 94t39 96t96 39t96 -39t39 -95t-39 -93t-94 -37z" />
    <glyph glyph-name="igrave" unicode="&#xec;" horiz-adv-x="624" 
d="M455 0h-285v1434h285v-1434zM424 1497l-487 211l98 195l471 -254z" />
    <glyph glyph-name="iacute" unicode="&#xed;" horiz-adv-x="624" 
d="M455 0h-285v1434h285v-1434zM549 1903l98 -195l-487 -211l-84 152z" />
    <glyph glyph-name="icircumflex" unicode="&#xee;" horiz-adv-x="624" 
d="M455 0h-285v1434h285v-1434zM-74 1638l381 326l381 -326l-137 -141l-244 203l-244 -203z" />
    <glyph glyph-name="idieresis" unicode="&#xef;" horiz-adv-x="624" 
d="M455 0h-285v1434h285v-1434zM571 1571v-2q-59 0 -98 37t-39 94t39 96t96 39t97 -39t39 -95q1 -56 -39 -93t-95 -37zM43 1569v-2q-55 0 -96 37q-39 37 -39 94t39 96t95 39t95 -39t39 -95t-40 -93t-93 -37z" />
    <glyph glyph-name="eth" unicode="&#xf0;" horiz-adv-x="1630" 
d="M477 1167v-313h268v-256h-268v-332l504 31q168 65 240 225q37 84 37 190q-1 200 -131 328q-130 129 -316 127h-334zM188 1434h619l-2 -4q313 0 524 -199q99 -96 159 -229t60 -294q0 -313 -215 -513q-96 -91 -231 -143t-291 -52h-623v598h-114v256h114v580z" />
    <glyph glyph-name="ntilde" unicode="&#xf1;" horiz-adv-x="1589" 
d="M1135 1434h284l-4 -1434h-268l-408 551q-49 63 -98 135t-99 140t-63 85l-26 39h-2v-950h-285v1432h268l416 -560q8 -10 27 -36t70 -94q52 -68 155 -214l31 -41h2v947zM1026 1808h223l-8 -4q0 -182 -174 -258q-49 -20 -109 -20t-101 18q-40 18 -88 48q-49 30 -67 41
t-55 11t-65 -24q-28 -25 -27 -66h-223q0 125 86 207t207 80q88 0 176 -61q29 -20 63 -40t70 -22q36 0 64 24t28 66z" />
    <glyph glyph-name="ograve" unicode="&#xf2;" horiz-adv-x="1644" 
d="M1268 713q0 202 -124 336q-124 133 -322 133q-199 0 -322 -127q-125 -134 -125 -338l-2 -8q0 -207 124 -335t322 -128q199 0 324 132q125 133 125 335zM815 1452q154 0 290 -55q279 -113 396 -389q59 -141 59 -304q1 -324 -217 -534q-100 -98 -237 -152t-289 -55
q-152 0 -287 54q-277 111 -397 391q-57 135 -57 301l-6 -4q0 160 59 300q117 278 397 392q135 55 289 55zM930 1485l-490 211l101 194l471 -254z" />
    <glyph glyph-name="oacute" unicode="&#xf3;" horiz-adv-x="1644" 
d="M1268 713q0 202 -124 336q-124 133 -322 133q-199 0 -322 -127q-125 -134 -125 -338l-2 -8q0 -207 124 -335t322 -128q199 0 324 132q125 133 125 335zM815 1452q154 0 290 -55q279 -113 396 -389q59 -141 59 -304q1 -324 -217 -534q-100 -98 -237 -152t-289 -55
q-152 0 -287 54q-277 111 -397 391q-57 135 -57 301l-6 -4q0 160 59 300q117 278 397 392q135 55 289 55zM1055 1890l98 -194l-487 -211l-84 151z" />
    <glyph glyph-name="ocircumflex" unicode="&#xf4;" horiz-adv-x="1644" 
d="M1268 713q0 202 -124 336q-124 133 -322 133q-199 0 -322 -127q-125 -134 -125 -338l-2 -8q0 -207 124 -335t322 -128q199 0 324 132q125 133 125 335zM815 1452q154 0 290 -55q279 -113 396 -389q59 -141 59 -304q1 -324 -217 -534q-100 -98 -237 -152t-289 -55
q-152 0 -287 54q-277 111 -397 391q-57 135 -57 301l-6 -4q0 160 59 300q117 278 397 392q135 55 289 55zM430 1626l383 326l381 -326l-137 -141l-244 203l-244 -203z" />
    <glyph glyph-name="otilde" unicode="&#xf5;" horiz-adv-x="1644" 
d="M1268 713q0 202 -124 336q-124 133 -322 133q-199 0 -322 -127q-125 -134 -125 -338l-2 -8q0 -207 124 -335t322 -128q199 0 324 132q125 133 125 335zM815 1452q154 0 290 -55q279 -113 396 -389q59 -141 59 -304q1 -324 -217 -534q-100 -98 -237 -152t-289 -55
q-152 0 -287 54q-277 111 -397 391q-57 135 -57 301l-6 -4q0 160 59 300q117 278 397 392q135 55 289 55zM1053 1798h223l-8 -4q0 -186 -174 -258q-48 -20 -108 -20t-94 15t-66 33t-55 33q-25 13 -43 25t-56 12t-64 -24q-27 -24 -26 -66h-224q0 123 85 205t191 82t193 -62
q29 -21 63 -41t72 -20t64 24q27 24 27 66z" />
    <glyph glyph-name="odieresis" unicode="&#xf6;" horiz-adv-x="1644" 
d="M1268 713q0 202 -124 336q-124 133 -322 133q-199 0 -322 -127q-125 -134 -125 -338l-2 -8q0 -207 124 -335t322 -128q199 0 324 132q125 133 125 335zM815 1452q154 0 290 -55q279 -113 396 -389q59 -141 59 -304q1 -324 -217 -534q-100 -98 -237 -152t-289 -55
q-152 0 -287 54q-277 111 -397 391q-57 135 -57 301l-6 -4q0 160 59 300q117 278 397 392q135 55 289 55zM1077 1559v-3q-57 0 -98 37q-39 37 -39 95t39 96q39 39 96 39t96 -39t39 -95t-39 -94q-41 -36 -94 -36zM549 1556v-2q-57 0 -98 37q-39 37 -39 95t39 96q39 39 96 39
t96 -39t39 -95t-39 -94q-41 -37 -94 -37z" />
    <glyph glyph-name="divide" unicode="&#xf7;" 
d="M702 129q-57 0 -98 41t-41 98q0 56 41 98t98 42q56 0 98 -41t42 -99t-42 -98q-42 -41 -98 -41zM246 844h936v-234h-936v234zM702 1047q-57 1 -98 41t-41 98t41 98q41 41 98 41q56 0 98 -41t42 -98t-41 -99q-42 -40 -99 -40z" />
    <glyph glyph-name="oslash" unicode="&#xf8;" horiz-adv-x="1644" 
d="M826 252q92 0 176 34q168 68 235 244q33 84 33 189q0 157 -74 270l-543 -708q82 -29 173 -29zM373 729q0 -175 82 -293l544 713l-4 2q-92 33 -184 33t-174 -34q-166 -69 -231 -241q-33 -84 -33 -180zM74 715q0 160 59 300q117 278 397 392q135 55 314 55t325 -82l76 99
l203 -152l-78 -100l-2 -6q189 -201 190 -518t-217 -527q-210 -206 -543 -206q-169 0 -325 79l-76 -96l-202 149l73 99q-194 207 -194 514z" />
    <glyph glyph-name="ugrave" unicode="&#xf9;" horiz-adv-x="1515" 
d="M760 238q330 0 330 389v807h286l-2 -813q0 -310 -166 -484q-78 -80 -194 -125q-117 -41 -256 -41t-256 43q-232 85 -318 328q-43 123 -43 281v811h285v-807q0 -199 83 -294t251 -95zM868 1495l-489 211l100 195l471 -254z" />
    <glyph glyph-name="uacute" unicode="&#xfa;" horiz-adv-x="1515" 
d="M760 238q330 0 330 389v807h286l-2 -813q0 -310 -166 -484q-78 -80 -194 -125q-117 -41 -256 -41t-256 43q-232 85 -318 328q-43 123 -43 281v811h285v-807q0 -199 83 -294t251 -95zM993 1901l99 -195l-488 -211l-84 152z" />
    <glyph glyph-name="ucircumflex" unicode="&#xfb;" horiz-adv-x="1515" 
d="M760 238q330 0 330 389v807h286l-2 -813q0 -310 -166 -484q-78 -80 -194 -125q-117 -41 -256 -41t-256 43q-232 85 -318 328q-43 123 -43 281v811h285v-807q0 -199 83 -294t251 -95zM369 1636l383 326l381 -326l-138 -141l-243 203l-244 -203z" />
    <glyph glyph-name="udieresis" unicode="&#xfc;" horiz-adv-x="1515" 
d="M760 238q330 0 330 389v807h286l-2 -813q0 -310 -166 -484q-78 -80 -194 -125q-117 -41 -256 -41t-256 43q-232 85 -318 328q-43 123 -43 281v811h285v-807q0 -199 83 -294t251 -95zM1016 1569v-2q-57 0 -98 37q-39 37 -39 94t39 96t96 39t96 -39t39 -95t-40 -93t-93 -37
zM487 1567v-2q-57 0 -98 37q-39 37 -39 94t39 96t96 39t97 -39t39 -95t-41 -93t-93 -37z" />
    <glyph glyph-name="yacute" unicode="&#xfd;" horiz-adv-x="1435" 
d="M854 0h-283v657l-551 777h320l295 -412q74 -107 80 -104h2q7 0 80 104l293 412h321l-557 -777v-657zM950 1903l99 -195l-488 -211l-84 152z" />
    <glyph glyph-name="thorn" unicode="&#xfe;" horiz-adv-x="1302" 
d="M455 506h247v-2q109 0 172 59q62 59 62 153t-60 153q-60 60 -174 61h-247v-424zM455 1196h241l-4 8q236 0 388 -136q151 -136 151 -347t-152 -348t-383 -135h-241v-238h-285v1432h285v-236z" />
    <glyph glyph-name="ydieresis" unicode="&#xff;" horiz-adv-x="1435" 
d="M854 0h-283v657l-551 777h320l295 -412q74 -107 80 -104h2q7 0 80 104l293 412h321l-557 -777v-657zM973 1571v-2q-59 0 -99 37q-38 37 -38 94t38 96t96 39t97 -39t39 -95t-39 -93t-94 -37zM444 1569v-2q-59 0 -98 37t-39 94t39 96t96 39q56 0 96 -39t40 -95t-40 -93
t-94 -37z" />
    <glyph glyph-name="Amacron" unicode="&#x100;" horiz-adv-x="1472" 
d="M524 526h424l-145 359q-24 60 -39 113t-23 67l-6 20h-2l-22 -67q-18 -61 -45 -129zM1149 -2l-107 272h-620l-107 -272h-307l590 1432h268l590 -1432h-307zM1087 1794v-221h-694v221h694z" />
    <glyph glyph-name="amacron" unicode="&#x101;" horiz-adv-x="1472" 
d="M524 526h424l-145 359q-24 60 -39 113t-23 67l-6 20h-2l-22 -67q-18 -61 -45 -129zM1149 -2l-107 272h-620l-107 -272h-307l590 1432h268l590 -1432h-307zM1087 1794v-221h-694v221h694z" />
    <glyph glyph-name="Abreve" unicode="&#x102;" horiz-adv-x="1472" 
d="M524 526h424l-145 359q-24 60 -39 113t-23 67l-6 20h-2l-22 -67q-18 -61 -45 -129zM1149 -2l-107 272h-620l-107 -272h-307l590 1432h268l590 -1432h-307zM731 1694q63 0 107 37q43 37 55 84h205l2 -5q-29 -130 -128 -212q-100 -82 -236 -82q-137 0 -239 80t-137 219h209
q11 -47 55 -84t107 -37z" />
    <glyph glyph-name="abreve" unicode="&#x103;" horiz-adv-x="1472" 
d="M524 526h424l-145 359q-24 60 -39 113t-23 67l-6 20h-2l-22 -67q-18 -61 -45 -129zM1149 -2l-107 272h-620l-107 -272h-307l590 1432h268l590 -1432h-307zM731 1694q63 0 107 37q43 37 55 84h205l2 -5q-29 -130 -128 -212q-100 -82 -236 -82q-137 0 -239 80t-137 219h209
q11 -47 55 -84t107 -37z" />
    <glyph glyph-name="Aogonek" unicode="&#x104;" horiz-adv-x="1472" 
d="M524 526h424l-145 359q-24 60 -39 113t-23 67l-6 20h-2l-22 -67q-18 -61 -45 -129zM1212 -326q127 0 191 125l145 -92q-51 -99 -143 -155q-91 -56 -181 -56q-161 0 -268 84q-100 83 -100 216t78 215t168 98l-62 157h-620l-107 -272h-307l590 1431h268l590 -1431h-147
q-151 0 -226 -96q-25 -35 -25 -87q0 -53 40 -95q39 -42 116 -42z" />
    <glyph glyph-name="aogonek" unicode="&#x105;" horiz-adv-x="1472" 
d="M524 526h424l-145 359q-24 60 -39 113t-23 67l-6 20h-2l-22 -67q-18 -61 -45 -129zM1212 -326q127 0 191 125l145 -92q-51 -99 -143 -155q-91 -56 -181 -56q-161 0 -268 84q-100 83 -100 216t78 215t168 98l-62 157h-620l-107 -272h-307l590 1431h268l590 -1431h-147
q-151 0 -226 -96q-25 -35 -25 -87q0 -53 40 -95q39 -42 116 -42z" />
    <glyph glyph-name="Cacute" unicode="&#x106;" horiz-adv-x="1548" 
d="M826 248q110 0 216 59t158 154l287 -76q-90 -188 -266 -303q-177 -115 -423 -115q-132 0 -268 54q-277 111 -397 391q-57 135 -57 298t59 303q117 278 397 392q136 55 268 55q233 0 407 -102q175 -102 266 -275l-291 -75l-6 -9q-60 82 -158 128q-98 47 -200 47
q-205 1 -328 -131q-123 -131 -121 -334q1 -103 35 -191t92 -145q124 -125 330 -125zM1047 1894l98 -194l-488 -211l-84 151z" />
    <glyph glyph-name="cacute" unicode="&#x107;" horiz-adv-x="1548" 
d="M826 248q110 0 216 59t158 154l287 -76q-90 -188 -266 -303q-177 -115 -423 -115q-132 0 -268 54q-277 111 -397 391q-57 135 -57 298t59 303q117 278 397 392q136 55 268 55q233 0 407 -102q175 -102 266 -275l-291 -75l-6 -9q-60 82 -158 128q-98 47 -200 47
q-205 1 -328 -131q-123 -131 -121 -334q1 -103 35 -191t92 -145q124 -125 330 -125zM1047 1894l98 -194l-488 -211l-84 151z" />
    <glyph glyph-name="Cdotaccent" unicode="&#x10a;" horiz-adv-x="1548" 
d="M826 248q110 0 216 59t158 154l287 -76q-90 -188 -266 -303q-177 -115 -423 -115q-132 0 -268 54q-277 111 -397 391q-57 135 -57 298t59 303q117 278 397 392q136 55 268 55q233 0 407 -102q175 -102 266 -275l-291 -75l-6 -9q-60 82 -158 128q-98 47 -200 47
q-205 1 -328 -131q-123 -131 -121 -334q1 -103 35 -191t92 -145q124 -125 330 -125zM811 1561h-4q-55 1 -94 39t-39 94t40 97q40 40 96 40t95 -39t39 -96t-39 -96t-94 -39z" />
    <glyph glyph-name="cdotaccent" unicode="&#x10b;" horiz-adv-x="1548" 
d="M826 248q110 0 216 59t158 154l287 -76q-90 -188 -266 -303q-177 -115 -423 -115q-132 0 -268 54q-277 111 -397 391q-57 135 -57 298t59 303q117 278 397 392q136 55 268 55q233 0 407 -102q175 -102 266 -275l-291 -75l-6 -9q-60 82 -158 128q-98 47 -200 47
q-205 1 -328 -131q-123 -131 -121 -334q1 -103 35 -191t92 -145q124 -125 330 -125zM811 1561h-4q-55 1 -94 39t-39 94t40 97q40 40 96 40t95 -39t39 -96t-39 -96t-94 -39z" />
    <glyph glyph-name="Ccaron" unicode="&#x10c;" horiz-adv-x="1548" 
d="M817 1483l-383 325l139 142l244 -203l244 203l137 -142zM824 1182q-102 0 -185 -34q-169 -68 -233 -245q-31 -86 -31 -190q0 -209 125 -334q121 -125 319 -125q125 0 229 58t156 153l287 -76q-95 -195 -268 -305q-88 -57 -189 -84q-100 -31 -234 -31q-134 1 -270 55
q-281 112 -397 388q-59 141 -59 304q0 327 217 534q217 208 524 208q206 0 381 -102t268 -275l-282 -73q-60 82 -158 128t-200 46zM1464 1081l9 2l-7 -6z" />
    <glyph glyph-name="ccaron" unicode="&#x10d;" horiz-adv-x="1548" 
d="M817 1483l-383 325l139 142l244 -203l244 203l137 -142zM824 1182q-102 0 -185 -34q-169 -68 -233 -245q-31 -86 -31 -190q0 -209 125 -334q121 -125 319 -125q125 0 229 58t156 153l287 -76q-95 -195 -268 -305q-88 -57 -189 -84q-100 -31 -234 -31q-134 1 -270 55
q-281 112 -397 388q-59 141 -59 304q0 327 217 534q217 208 524 208q206 0 381 -102t268 -275l-282 -73q-60 82 -158 128t-200 46zM1464 1081l9 2l-7 -6z" />
    <glyph glyph-name="Dcaron" unicode="&#x10e;" horiz-adv-x="1607" 
d="M788 1483l-382 325l139 142l243 -203l244 203l137 -142zM788 1434q309 0 526 -202q216 -202 216 -521q0 -156 -60 -290q-118 -266 -391 -372q-127 -49 -288 -49h-623l2 1434h618zM791 264q177 0 311 119q133 119 133 320q0 200 -129 329t-318 129h-333l-2 -897h338z" />
    <glyph glyph-name="dcaron" unicode="&#x10f;" horiz-adv-x="1607" 
d="M788 1483l-382 325l139 142l243 -203l244 203l137 -142zM788 1434q309 0 526 -202q216 -202 216 -521q0 -156 -60 -290q-118 -266 -391 -372q-127 -49 -288 -49h-623l2 1434h618zM791 264q177 0 311 119q133 119 133 320q0 200 -129 329t-318 129h-333l-2 -897h338z" />
    <glyph glyph-name="Dcroat" unicode="&#x110;" horiz-adv-x="1630" 
d="M477 1167v-313h268v-256h-268v-332l504 31q168 65 240 225q37 84 37 190q-1 200 -131 328q-130 129 -316 127h-334zM188 1434h619l-2 -4q313 0 524 -199q99 -96 159 -229t60 -294q0 -313 -215 -513q-96 -91 -231 -143t-291 -52h-623v598h-114v256h114v580z" />
    <glyph glyph-name="dcroat" unicode="&#x111;" horiz-adv-x="1630" 
d="M477 1167v-313h268v-256h-268v-332l504 31q168 65 240 225q37 84 37 190q-1 200 -131 328q-130 129 -316 127h-334zM188 1434h619l-2 -4q313 0 524 -199q99 -96 159 -229t60 -294q0 -313 -215 -513q-96 -91 -231 -143t-291 -52h-623v598h-114v256h114v580z" />
    <glyph glyph-name="Emacron" unicode="&#x112;" horiz-adv-x="1335" 
d="M455 266h741v-266h-1026v1434h1014v-267h-729v-305h575v-250h-575v-346zM1059 1798v-221h-694v221h694z" />
    <glyph glyph-name="emacron" unicode="&#x113;" horiz-adv-x="1335" 
d="M455 266h741v-266h-1026v1434h1014v-267h-729v-305h575v-250h-575v-346zM1057 1798v-221h-695v221h695z" />
    <glyph glyph-name="Edotaccent" unicode="&#x116;" horiz-adv-x="1335" 
d="M455 266h741v-266h-1026v1434h1014v-267h-729v-305h575v-250h-575v-346zM702 1569h-4q-55 0 -94 39t-39 95t40 96t96 40q55 0 95 -39t40 -96t-40 -96t-94 -39z" />
    <glyph glyph-name="edotaccent" unicode="&#x117;" horiz-adv-x="1335" 
d="M455 266h741v-266h-1026v1434h1014v-267h-729v-305h575v-250h-575v-346zM702 1569h-4q-55 0 -94 39t-39 95t40 96t96 40q55 0 95 -39t40 -96t-40 -96t-94 -39z" />
    <glyph glyph-name="Eogonek" unicode="&#x118;" horiz-adv-x="1335" 
d="M866 -322q127 0 191 125l149 -94l-4 -2q-51 -99 -143 -155q-91 -56 -181 -56q-254 0 -341 182q-27 55 -27 144t65 176h-407v1432h1014v-267h-729v-305h575v-250h-575v-346h741v-264h-233q-151 0 -226 -96q-25 -33 -25 -86q0 -54 41 -96q40 -42 115 -42z" />
    <glyph glyph-name="eogonek" unicode="&#x119;" horiz-adv-x="1335" 
d="M889 -322q126 0 190 125l150 -94l-4 -2q-51 -99 -143 -155t-182 -56q-163 0 -266 84q-102 84 -102 232q0 97 66 186h-430v1432h1014v-267h-729v-305h575v-250h-575v-346h741v-264h-211q-153 0 -225 -96q-25 -33 -25 -86q0 -54 39 -96t117 -42z" />
    <glyph glyph-name="Ecaron" unicode="&#x11a;" horiz-adv-x="1335" 
d="M455 266h741v-266h-1026v1434h1014v-267h-729v-305h575v-250h-575v-346zM1083 1808l-381 -325l-383 325l140 142l243 -203l244 203z" />
    <glyph glyph-name="ecaron" unicode="&#x11b;" horiz-adv-x="1335" 
d="M455 266h741v-266h-1026v1434h1014v-267h-729v-305h575v-250h-575v-346zM1081 1808l-381 -325l-383 325l140 142l243 -203l244 203z" />
    <glyph glyph-name="Gcircumflex" unicode="&#x11c;" horiz-adv-x="1624" 
d="M1257 150h-2l-6 -5q-63 -72 -180 -121q-118 -49 -263 -50q-145 0 -280 54q-278 112 -397 390q-57 135 -57 298t59 303q117 278 397 392q135 55 289 55q217 -4 386 -105t267 -276l-290 -75q-60 82 -158 128t-200 46t-185 -34q-167 -68 -234 -245q-31 -86 -31 -188
q1 -208 130 -336q129 -129 353 -129t355 162q33 43 50 84v61h-398v232h641v-789h-246v148zM420 1634l383 326l381 -326l-137 -141l-244 203l-244 -203z" />
    <glyph glyph-name="gcircumflex" unicode="&#x11d;" horiz-adv-x="1624" 
d="M1257 150h-2l-6 -5q-63 -72 -180 -121q-118 -49 -263 -50q-145 0 -280 54q-278 112 -397 390q-57 135 -57 298t59 303q117 278 397 392q135 55 289 55q217 -4 386 -105t267 -276l-290 -75q-60 82 -158 128t-200 46t-185 -34q-167 -68 -234 -245q-31 -86 -31 -188
q1 -208 130 -336q129 -129 353 -129t355 162q33 43 50 84v61h-398v232h641v-789h-246v148zM420 1634l383 326l381 -326l-137 -141l-244 203l-244 -203z" />
    <glyph glyph-name="Gbreve" unicode="&#x11e;" horiz-adv-x="1624" 
d="M1257 150h-2l-6 -5q-63 -72 -180 -121q-118 -49 -263 -50q-145 0 -280 54q-278 112 -397 390q-57 135 -57 298t59 303q117 278 397 392q135 55 289 55q217 -4 386 -105t267 -276l-290 -75q-60 82 -158 128t-200 46t-185 -34q-167 -68 -234 -245q-31 -86 -31 -188
q1 -208 130 -336q129 -129 353 -129t355 162q33 43 50 84v61h-398v232h641v-789h-246v148zM816 1516q-136 0 -245 83q-97 78 -131 216h209l2 -5q11 -47 55 -84q44 -36 107 -36t107 36q43 37 55 84h205q-28 -127 -128 -211q-100 -83 -236 -83z" />
    <glyph glyph-name="gbreve" unicode="&#x11f;" horiz-adv-x="1624" 
d="M1257 150h-2l-6 -5q-63 -72 -180 -121q-118 -49 -263 -50q-145 0 -280 54q-278 112 -397 390q-57 135 -57 298t59 303q117 278 397 392q135 55 289 55q217 -4 386 -105t267 -276l-290 -75q-60 82 -158 128t-200 46t-185 -34q-167 -68 -234 -245q-31 -86 -31 -188
q1 -208 130 -336q129 -129 353 -129t355 162q33 43 50 84v61h-398v232h641v-789h-246v148zM816 1516q-136 0 -245 83q-97 78 -131 216h209l2 -5q11 -47 55 -84q44 -36 107 -36t107 36q43 37 55 84h205q-28 -127 -128 -211q-100 -83 -236 -83z" />
    <glyph glyph-name="Gdotaccent" unicode="&#x120;" horiz-adv-x="1624" 
d="M1257 150h-2l-6 -5q-63 -72 -180 -121q-118 -49 -263 -50q-145 0 -280 54q-278 112 -397 390q-57 135 -57 298t59 303q117 278 397 392q135 55 289 55q217 -4 386 -105t267 -276l-290 -75q-60 82 -158 128t-200 46t-185 -34q-167 -68 -234 -245q-31 -86 -31 -188
q1 -208 130 -336q129 -129 353 -129t355 162q33 43 50 84v61h-398v232h641v-789h-246v148zM809 1565h-4q-55 0 -94 39t-39 95t40 96t96 40t95 -39t39 -96t-39 -96t-94 -39z" />
    <glyph glyph-name="gdotaccent" unicode="&#x121;" horiz-adv-x="1624" 
d="M1257 150h-2l-6 -5q-63 -72 -180 -121q-118 -49 -263 -50q-145 0 -280 54q-278 112 -397 390q-57 135 -57 298t59 303q117 278 397 392q135 55 289 55q217 -4 386 -105t267 -276l-290 -75q-60 82 -158 128t-200 46t-185 -34q-167 -68 -234 -245q-31 -86 -31 -188
q1 -208 130 -336q129 -129 353 -129t355 162q33 43 50 84v61h-398v232h641v-789h-246v148zM809 1565h-4q-55 0 -94 39t-39 95t40 96t96 40t95 -39t39 -96t-39 -96t-94 -39z" />
    <glyph glyph-name="Gcommaaccent" unicode="&#x122;" horiz-adv-x="1624" 
d="M942 -225q0 -175 -197 -344h-100q56 36 83 87q52 99 52 142l25 8l-27 8q-32 2 -66 34t-34 86t39 91q41 37 93 37t92 -40t40 -109zM1255 154h-2l-6 -4q-62 -71 -154 -109q-92 -39 -149 -51t-171 -12t-249 54q-278 112 -397 390q-57 135 -57 298t59 303q118 280 397 392
q135 55 289 55q217 -4 386 -105t267 -275l-290 -76q-60 82 -158 128t-200 46t-185 -34q-167 -68 -234 -245q-31 -86 -31 -188q1 -208 130 -336q129 -129 318 -129t295 75q107 75 144 171v61h-397v232h641v-789h-246v148z" />
    <glyph glyph-name="gcommaaccent" unicode="&#x123;" horiz-adv-x="1624" 
d="M942 -225q0 -175 -197 -344h-100q56 36 83 87q52 99 52 142l25 8l-27 8q-32 2 -66 34t-34 86t39 91q41 37 93 37t92 -40t40 -109zM1255 154h-2l-6 -4q-62 -71 -154 -109q-92 -39 -149 -51t-171 -12t-249 54q-278 112 -397 390q-57 135 -57 298t59 303q118 280 397 392
q135 55 289 55q217 -4 386 -105t267 -275l-290 -76q-60 82 -158 128t-200 46t-185 -34q-167 -68 -234 -245q-31 -86 -31 -188q1 -208 130 -336q129 -129 318 -129t295 75q107 75 144 171v61h-397v232h641v-789h-246v148z" />
    <glyph glyph-name="Hcircumflex" unicode="&#x124;" horiz-adv-x="1529" 
d="M1075 1434h285v-1434h-285v592h-620v-592h-285v1434h285v-574h620v574zM758 1700l-244 -203l-139 141l383 326l381 -326l-138 -141z" />
    <glyph glyph-name="hcircumflex" unicode="&#x125;" horiz-adv-x="1529" 
d="M1075 1434h285v-1434h-285v592h-620v-592h-285v1434h285v-574h620v574zM758 1700l-244 -203l-139 141l383 326l381 -326l-138 -141z" />
    <glyph glyph-name="Hbar" unicode="&#x126;" horiz-adv-x="1529" 
d="M1075 860v203h-620v-203h620zM1501 1296v-233h-141v-1063h-285v592h-620v-592h-285v1063h-141v233h141v138h285v-138h620v138h285v-138h141z" />
    <glyph glyph-name="hbar" unicode="&#x127;" horiz-adv-x="1529" 
d="M1075 860v203h-620v-203h620zM1501 1296v-233h-141v-1063h-285v592h-620v-592h-285v1063h-141v233h141v138h285v-138h620v138h285v-138h141z" />
    <glyph glyph-name="Imacron" unicode="&#x12a;" horiz-adv-x="624" 
d="M455 0h-285v1434h285v-1434zM-23 1798h693v-221h-693v221z" />
    <glyph glyph-name="imacron" unicode="&#x12b;" horiz-adv-x="624" 
d="M455 0h-285v1434h285v-1434zM-23 1798h693v-221h-693v221z" />
    <glyph glyph-name="Iogonek" unicode="&#x12e;" horiz-adv-x="624" 
d="M270 -322q127 0 191 125l149 -94h-2q-51 -100 -143 -155q-91 -56 -181 -56q-256 -1 -339 183q-27 55 -27 128q0 126 80 209q80 84 170 97v1315h285v-1432h-88q-151 0 -226 -96q-25 -33 -25 -86q0 -54 40 -96q39 -42 116 -42z" />
    <glyph glyph-name="iogonek" unicode="&#x12f;" horiz-adv-x="624" 
d="M270 -322q127 0 191 125l149 -94h-2q-51 -100 -143 -155q-91 -56 -181 -56q-256 -1 -339 183q-27 55 -27 128q0 126 80 209q80 84 170 97v1315h285v-1432h-88q-151 0 -226 -96q-25 -33 -25 -86q0 -54 40 -96q39 -42 116 -42z" />
    <glyph glyph-name="Idotaccent" unicode="&#x130;" horiz-adv-x="624" 
d="M455 0h-285v1434h285v-1434zM313 1569h-4q-55 0 -94 39t-39 95t40 96t96 40t96 -39t38 -96q0 -57 -39 -96t-94 -39z" />
    <glyph glyph-name="dotlessi" unicode="&#x131;" horiz-adv-x="624" 
d="M455 0h-285v1434h285v-1434z" />
    <glyph glyph-name="IJ" unicode="&#x132;" horiz-adv-x="1970" 
d="M1546 610v824h285l2 -822q0 -301 -174 -479q-82 -82 -200 -124q-117 -42 -237 -42q-324 0 -513 221q-57 66 -88 148l280 76q85 -174 299 -174q168 0 257 99t89 273zM457 -8h-285v1431h285v-1431z" />
    <glyph glyph-name="ij" unicode="&#x133;" horiz-adv-x="1970" 
d="M1546 610v824h285l2 -822q0 -301 -174 -479q-82 -82 -200 -124q-117 -42 -237 -42q-324 0 -513 221q-57 66 -88 148l280 76q85 -174 299 -174q168 0 257 99t89 273zM457 -8h-285v1431h285v-1431z" />
    <glyph glyph-name="Jcircumflex" unicode="&#x134;" horiz-adv-x="1374" 
d="M950 1434h285l2 -822q0 -305 -174 -479q-82 -82 -200 -124q-117 -42 -237 -42q-324 0 -513 221q-57 66 -88 148l280 76q39 -84 116 -129t183 -45q166 0 256 99t90 273v824zM707 1628l383 326l380 -326l-137 -141l-243 203l-244 -203z" />
    <glyph glyph-name="jcircumflex" unicode="&#x135;" horiz-adv-x="1374" 
d="M950 1434h285l2 -822q0 -305 -174 -479q-82 -82 -200 -124q-117 -42 -237 -42q-324 0 -513 221q-57 66 -88 148l280 76q39 -84 116 -129t183 -45q166 0 256 99t90 273v824zM707 1628l383 326l380 -326l-137 -141l-243 203l-244 -203z" />
    <glyph glyph-name="Kcommaaccent" unicode="&#x136;" horiz-adv-x="1470" 
d="M608 -204q0 54 39 91q41 37 93 37t92 -40t40 -109q0 -176 -196 -344h-101q57 37 84 88q50 95 52 141l24 8l-24 4l-2 4q-33 2 -67 34t-34 86zM449 4h-285v1434h285v-283q1 -199 -3 -261t0 -60h3q2 0 46 46t162 164l394 394h350l-600 -602l618 -832h-342l-469 643
l-159 -160v-483z" />
    <glyph glyph-name="kcommaaccent" unicode="&#x137;" horiz-adv-x="1470" 
d="M610 -204q0 54 39 91t92 37t93 -40t40 -109q0 -176 -196 -344h-100q56 36 83 87q50 96 52 142l24 8l-24 4l-2 4q-33 2 -67 34t-34 86zM449 4h-285v1434h285v-283q1 -199 -3 -261t0 -60h3q2 0 46 46t162 164l394 394h350l-600 -602l618 -832h-342l-469 643l-159 -160v-483
z" />
    <glyph glyph-name="Lacute" unicode="&#x139;" horiz-adv-x="1204" 
d="M455 266h708v-266h-993v1434h285v-1168zM666 1708l-488 -211l-84 152l473 254z" />
    <glyph glyph-name="lacute" unicode="&#x13a;" horiz-adv-x="1204" 
d="M455 266h708v-266h-993v1434h285v-1168zM666 1708l-488 -211l-84 152l473 254z" />
    <glyph glyph-name="Lcommaaccent" unicode="&#x13b;" horiz-adv-x="1204" 
d="M809 -225q0 -175 -197 -344h-100q56 36 83 87q52 99 52 142l25 8l-25 4l-2 4q-33 2 -67 34t-33 86q0 54 39 91t92 37t93 -40t40 -109zM453 270h708v-266h-993v1434h285v-1168z" />
    <glyph glyph-name="lcommaaccent" unicode="&#x13c;" horiz-adv-x="1204" 
d="M717 -225q0 -175 -197 -344h-100q56 36 83 87q52 99 52 142l25 8l-25 4l-2 4q-33 2 -67 34t-34 86t40 91q41 37 93 37t92 -40t40 -109zM453 270h708v-266h-993v1434h285v-1168z" />
    <glyph glyph-name="Lcaron" unicode="&#x13d;" horiz-adv-x="1204" 
d="M455 266h708v-266h-993v1434h285v-1168zM807 1450q57 0 98 -44t41 -100q0 -100 -59 -208q-65 -109 -146 -170h-106q82 59 129 188q12 35 12 62l27 8l-27 4l-6 -8q-41 2 -75 37t-33 92q0 57 43 98q45 41 102 41z" />
    <glyph glyph-name="lcaron" unicode="&#x13e;" horiz-adv-x="1204" 
d="M455 266h708v-266h-993v1434h285v-1168zM625 1319q0 57 43 98q45 41 103 41t98 -46t40 -102q0 -100 -59 -208q-65 -108 -145 -170h-109q80 58 129 188q12 35 12 62l29 10l-29 2l-2 -4q-37 2 -73 37t-37 92z" />
    <glyph glyph-name="Ldot" unicode="&#x13f;" horiz-adv-x="1204" 
d="M975 793q0 -57 -39 -97t-96 -39q-57 0 -97 39q-39 38 -39 96t39 97t97 39t96 -39q39 -39 39 -96zM455 266h708v-266h-993v1434h285v-1168z" />
    <glyph glyph-name="ldot" unicode="&#x140;" horiz-adv-x="1204" 
d="M975 793q0 -57 -39 -97t-96 -39q-57 0 -97 39q-39 38 -39 96t39 97t97 39t96 -39q39 -39 39 -96zM455 266h708v-266h-993v1434h285v-1168z" />
    <glyph glyph-name="Lslash" unicode="&#x141;" horiz-adv-x="1204" 
d="M455 266h708v-266h-993v1434h285v-572l520 268v-270l-520 -266v-328z" />
    <glyph glyph-name="lslash" unicode="&#x142;" horiz-adv-x="1204" 
d="M455 266h708v-266h-993v1434h285v-572l520 268v-270l-520 -266v-328z" />
    <glyph glyph-name="Nacute" unicode="&#x143;" horiz-adv-x="1589" 
d="M1135 1434h284l-4 -1434h-268l-408 551q-49 63 -98 135t-99 140t-63 85l-26 39h-2v-950h-285v1432h268l416 -560q8 -10 27 -36t70 -94q52 -68 155 -214l31 -41h2v947zM1028 1901l98 -195l-487 -211l-84 152z" />
    <glyph glyph-name="nacute" unicode="&#x144;" horiz-adv-x="1589" 
d="M1135 1434h284l-4 -1434h-268l-408 551q-49 63 -98 135t-99 140t-63 85l-26 39h-2v-950h-285v1432h268l416 -560q8 -10 27 -36t70 -94q52 -68 155 -214l31 -41h2v947zM1028 1901l98 -195l-487 -211l-84 152z" />
    <glyph glyph-name="Ncommaaccent" unicode="&#x145;" horiz-adv-x="1589" 
d="M940 -225q0 -175 -197 -344h-100q56 36 83 87q52 99 52 142l25 8l-27 8q-32 2 -66 34t-34 86t39 91t92 37t93 -40t40 -109zM1133 1438h284l-4 -1436h-268l-408 553q-49 63 -98 135t-99 140t-63 85l-26 39h-2v-952h-285v1434h268l416 -559q8 -10 26 -36t71 -95
q52 -68 155 -214l30 -40h3v946z" />
    <glyph glyph-name="ncommaaccent" unicode="&#x146;" horiz-adv-x="1589" 
d="M940 -225q0 -175 -197 -344h-100q56 36 83 87q52 99 52 142l25 8l-27 8q-32 2 -66 34t-34 86t39 91t92 37t93 -40t40 -109zM1133 1438h284l-4 -1436h-268l-408 553q-49 63 -98 135t-99 140t-63 85l-26 39h-2v-952h-285v1434h268l416 -559q8 -10 26 -36t71 -95
q52 -68 155 -214l30 -40h3v946z" />
    <glyph glyph-name="Ncaron" unicode="&#x147;" horiz-adv-x="1589" 
d="M797 1483l-383 325l139 142l244 -203l243 203l138 -142zM1419 1434v-1434h-268l-408 553q-49 65 -98 135l-77 110t-52 71q-23 32 -33 44l-28 37h-2v-950h-285v1432h268l416 -560q8 -10 35 -47t59 -78q33 -41 80 -109t78 -112l31 -43h2v475l-2 476h284z" />
    <glyph glyph-name="ncaron" unicode="&#x148;" horiz-adv-x="1589" 
d="M797 1483l-383 325l139 142l244 -203l243 203l138 -142zM1419 1434v-1434h-268l-408 553q-49 65 -98 135l-77 110t-52 71q-23 32 -33 44l-28 37h-2v-950h-285v1432h268l416 -560q8 -10 35 -47t59 -78q33 -41 80 -109t78 -112l31 -43h2v475l-2 476h284z" />
    <glyph glyph-name="Eng" unicode="&#x14a;" horiz-adv-x="1589" 
d="M1135 1434h284l-6 -1434q0 -202 -127 -340q-133 -137 -321 -137h-84v229h59q96 0 152 68q55 68 55 180l-408 551q-49 63 -98 135t-99 140t-63 85l-26 39h-2v-950h-285v1432h268l416 -560q8 -10 27 -36t70 -94q52 -68 155 -214l31 -41h2v947z" />
    <glyph glyph-name="eng" unicode="&#x14b;" horiz-adv-x="1589" 
d="M1135 1434h284l-6 -1434q0 -202 -127 -340q-133 -137 -321 -137h-84v229h59q96 0 152 68q55 68 55 180l-408 551q-49 63 -98 135t-99 140t-63 85l-26 39h-2v-950h-285v1432h268l416 -560q8 -10 27 -36t70 -94q52 -68 155 -214l31 -41h2v947z" />
    <glyph glyph-name="Omacron" unicode="&#x14c;" horiz-adv-x="1644" 
d="M1268 713q0 202 -124 336q-124 133 -322 133q-199 0 -322 -127q-125 -134 -125 -338l-2 -8q0 -207 124 -335t322 -128q199 0 324 132q125 133 125 335zM815 1452q154 0 290 -55q279 -113 396 -389q59 -141 59 -304q1 -324 -217 -534q-100 -98 -237 -152t-289 -55
q-152 0 -287 54q-277 111 -397 391q-57 135 -57 301l-6 -4q0 160 59 300q117 278 397 392q135 55 289 55zM485 1786h695v-221h-695v221z" />
    <glyph glyph-name="omacron" unicode="&#x14d;" horiz-adv-x="1644" 
d="M1268 713q0 202 -124 336q-124 133 -322 133q-199 0 -322 -127q-125 -134 -125 -338l-2 -8q0 -207 124 -335t322 -128q199 0 324 132q125 133 125 335zM815 1452q154 0 290 -55q279 -113 396 -389q59 -141 59 -304q1 -324 -217 -534q-100 -98 -237 -152t-289 -55
q-152 0 -287 54q-277 111 -397 391q-57 135 -57 301l-6 -4q0 160 59 300q117 278 397 392q135 55 289 55zM481 1786h695v-221h-695v221z" />
    <glyph glyph-name="Ohungarumlaut" unicode="&#x150;" horiz-adv-x="1644" 
d="M500 1053q-125 -134 -125 -337t125 -337q123 -127 321 -127l-2 -8q199 0 324 132t125 335q0 202 -124 336q-124 133 -322 133q-199 0 -322 -127zM815 -39q-152 0 -287 54q-277 111 -397 391q-57 135 -57 298t59 303q117 278 397 392q135 55 289 55l-6 -4q154 0 290 -55
q279 -113 396 -389q59 -141 59 -304q0 -164 -56 -300q-115 -273 -398 -388q-137 -53 -289 -53zM821 1618l-311 -133l-82 151l473 254l82 -161l301 161l98 -194l-489 -211z" />
    <glyph glyph-name="ohungarumlaut" unicode="&#x151;" horiz-adv-x="1644" 
d="M500 1053q-125 -134 -125 -337t125 -337q123 -127 321 -127l-2 -8q199 0 324 132t125 335q0 202 -124 336q-124 133 -322 133q-199 0 -322 -127zM815 -39q-152 0 -287 54q-277 111 -397 391q-57 135 -57 298t59 303q117 278 397 392q135 55 289 55l-6 -4q154 0 290 -55
q279 -113 396 -389q59 -141 59 -304q0 -164 -56 -300q-115 -273 -398 -388q-137 -53 -289 -53zM817 1618l-311 -133l-82 151l473 254l82 -161l301 161l98 -194l-489 -211z" />
    <glyph glyph-name="OE" unicode="&#x152;" horiz-adv-x="2140" 
d="M809 1163q-209 0 -320 -119q-118 -122 -117 -325t117 -326q117 -121 312 -121q114 0 182 33v823l-2 2q-68 33 -172 33zM1260 268h739l-2 -260h-1018q-43 -6 -88 -6h-92q-147 0 -281 52q-270 105 -385 376q-55 133 -55 294q0 316 209 519q98 97 231 149t281 52h75
q55 0 107 -8h1006v-267h-727v-305h575v-250h-575v-346z" />
    <glyph glyph-name="oe" unicode="&#x153;" horiz-adv-x="2140" 
d="M809 1163q-209 0 -320 -119q-118 -122 -117 -325t117 -326q117 -121 312 -121q114 0 182 33v823l-2 2q-68 33 -172 33zM1260 268h739l-2 -260h-1018q-43 -6 -88 -6h-92q-147 0 -281 52q-270 105 -385 376q-55 133 -55 294q0 316 209 519q98 97 231 149t281 52h75
q55 0 107 -8h1006v-267h-727v-305h575v-250h-575v-346z" />
    <glyph glyph-name="Racute" unicode="&#x154;" horiz-adv-x="1363" 
d="M455 1167v-424l252 -4q115 0 174 68q57 61 57 147t-58 149q-58 64 -171 64h-254zM455 485v-487h-285v1432h502q269 0 413 -132q150 -141 150 -350q0 -150 -71 -254t-201 -155l327 -541h-319l-283 487h-233zM985 1704l-487 -211l-84 152l473 253z" />
    <glyph glyph-name="racute" unicode="&#x155;" horiz-adv-x="1363" 
d="M455 1167v-424l252 -4q115 0 174 68q57 61 57 147t-58 149q-58 64 -171 64h-254zM455 485v-487h-285v1432h502q269 0 413 -132q150 -141 150 -350q0 -150 -71 -254t-201 -155l327 -541h-319l-283 487h-233zM1001 1704l-487 -211l-84 152l473 253z" />
    <glyph glyph-name="Rcommaaccent" unicode="&#x156;" horiz-adv-x="1363" 
d="M815 -225q0 -175 -197 -344h-100q56 36 83 87q52 99 52 142l25 8l-25 4l-2 4q-33 2 -67 34t-33 86q0 54 39 91q41 37 93 37t92 -40t40 -109zM453 1171v-423l252 -5q158 0 217 136q14 35 14 79t-15 79q-56 134 -214 134h-254zM453 489v-489h-285v1434h502q398 0 524 -285
q39 -87 39 -217q-1 -130 -71 -234t-201 -155l327 -543h-317l-285 489h-233z" />
    <glyph glyph-name="rcommaaccent" unicode="&#x157;" horiz-adv-x="1363" 
d="M840 -225q0 -175 -197 -344h-100q56 36 83 87q52 99 52 142l24 8l-24 4l-2 4q-33 2 -67 34t-34 86t39 91q42 37 94 37t92 -40t40 -109zM453 1171v-423l252 -5q158 0 217 136q14 35 14 79t-15 79q-56 134 -214 134h-254zM453 489v-489h-285v1434h502q398 0 524 -285
q39 -87 39 -217q-1 -130 -71 -234t-201 -155l327 -543h-317l-285 489h-233z" />
    <glyph glyph-name="Rcaron" unicode="&#x158;" horiz-adv-x="1363" 
d="M455 1167v-424l252 -4q115 0 174 68q57 61 57 147t-58 149q-58 64 -171 64h-254zM455 485v-487h-285v1432h502q269 0 413 -132q150 -141 150 -350q0 -150 -71 -254t-201 -155l327 -541h-319l-283 487h-233zM1032 1804l-381 -325l-383 325l140 142l243 -203l244 203z" />
    <glyph glyph-name="rcaron" unicode="&#x159;" horiz-adv-x="1363" 
d="M455 1167v-424l252 -4q115 0 174 68q57 61 57 147t-58 149q-58 64 -171 64h-254zM455 485v-487h-285v1432h502q269 0 413 -132q150 -141 150 -350q0 -150 -71 -254t-201 -155l327 -541h-319l-283 487h-233zM1032 1804l-381 -325l-383 325l140 142l243 -203l244 203z" />
    <glyph glyph-name="Sacute" unicode="&#x15a;" horiz-adv-x="1245" 
d="M383 1072q0 -52 37 -92t178 -93l129 -43q66 -20 155 -62q173 -81 253 -213q41 -72 41 -168t-39 -174q-82 -165 -283 -227q-98 -33 -223 -33q-229 0 -379 116t-207 312l274 74q26 -108 110 -178q85 -70 209 -71t183 48q59 50 59 114t-32 100q-61 66 -215 112
q-278 77 -402 178q-129 110 -129 275q0 164 151 287q151 124 362 124q210 0 361 -108t193 -277l-274 -76h-16q-25 101 -101 157q-77 56 -178 56q-100 0 -158 -43t-59 -95zM864 1903l99 -195l-488 -211l-84 152z" />
    <glyph glyph-name="sacute" unicode="&#x15b;" horiz-adv-x="1245" 
d="M383 1072q0 -52 37 -92t178 -93l129 -43q66 -20 155 -62q173 -81 253 -213q41 -72 41 -168t-39 -174q-82 -165 -283 -227q-98 -33 -223 -33q-229 0 -379 116t-207 312l274 74q26 -108 110 -178q85 -70 209 -71t183 48q59 50 59 114t-32 100q-61 66 -215 112
q-278 77 -402 178q-129 110 -129 275q0 164 151 287q151 124 362 124q210 0 361 -108t193 -277l-274 -76h-16q-25 101 -101 157q-77 56 -178 56q-100 0 -158 -43t-59 -95zM881 1903l98 -195l-487 -211l-84 152z" />
    <glyph glyph-name="Scircumflex" unicode="&#x15c;" horiz-adv-x="1245" 
d="M383 1072q0 -52 37 -92t178 -93l129 -43q66 -20 155 -62q173 -81 253 -213q41 -72 41 -168t-39 -174q-82 -165 -283 -227q-98 -33 -223 -33q-229 0 -379 116t-207 312l274 74q26 -108 110 -178q85 -70 209 -71t183 48q59 50 59 114t-32 100q-61 66 -215 112
q-278 77 -402 178q-129 110 -129 275q0 164 151 287q151 124 362 124q210 0 361 -108t193 -277l-274 -76h-16q-25 101 -101 157q-77 56 -178 56q-100 0 -158 -43t-59 -95zM240 1638l383 326l381 -326l-138 -141l-243 203l-244 -203z" />
    <glyph glyph-name="scircumflex" unicode="&#x15d;" horiz-adv-x="1245" 
d="M383 1072q0 -52 37 -92t178 -93l129 -43q66 -20 155 -62q173 -81 253 -213q41 -72 41 -168t-39 -174q-82 -165 -283 -227q-98 -33 -223 -33q-229 0 -379 116t-207 312l274 74q26 -108 110 -178q85 -70 209 -71t183 48q59 50 59 114t-32 100q-61 66 -215 112
q-278 77 -402 178q-129 110 -129 275q0 164 151 287q151 124 362 124q210 0 361 -108t193 -277l-274 -76h-16q-25 101 -101 157q-77 56 -178 56q-100 0 -158 -43t-59 -95zM240 1638l383 326l381 -326l-138 -141l-243 203l-244 -203z" />
    <glyph glyph-name="Scedilla" unicode="&#x15e;" horiz-adv-x="1245" 
d="M231 772q-129 110 -129 275q0 164 151 287q151 124 362 124q210 0 361 -108t193 -277l-274 -76l-23 -2q-24 97 -101 155t-178 58t-159 -43t-57 -95q0 -52 37 -92t178 -93l129 -43q66 -20 155 -62q90 -42 152 -91q142 -113 141 -288q0 -262 -260 -381q-86 -35 -184 -47
l-33 -88q149 0 205 -118q18 -37 18 -90q0 -106 -67 -162q-53 -50 -166 -52h-217l59 152h158q76 0 78 63q0 55 -76 62h-188l79 229q-207 16 -341 128t-189 298l274 74q26 -108 110 -178q85 -70 209 -71t183 48q59 50 59 114t-32 100q-61 66 -215 112q-278 77 -402 178z" />
    <glyph glyph-name="scedilla" unicode="&#x15f;" horiz-adv-x="1245" 
d="M776 -324q0 50 -76 62h-188l78 229q-213 10 -351 127t-194 301l274 74q26 -108 110 -178q85 -70 209 -71t183 48q59 50 59 114t-32 100q-61 66 -215 112q-278 77 -402 178q-129 110 -129 275q0 164 151 287q151 124 362 124q210 0 361 -108t193 -277l-274 -76l-21 -8
q-24 99 -101 156q-76 57 -177 57q-100 0 -158 -43t-59 -95q0 -52 37 -92t178 -93l129 -43q66 -20 155 -62q175 -81 252 -213q41 -72 41 -161q-1 -90 -31 -160q-62 -144 -220 -217q-80 -35 -179 -50l-32 -90q149 0 204 -119q19 -37 19 -91q1 -98 -61 -154q-61 -56 -173 -58
h-217l60 152h157q78 0 78 63z" />
    <glyph glyph-name="Scaron" unicode="&#x160;" horiz-adv-x="1245" 
d="M645 1483l-383 325l139 142l244 -203l244 203l137 -142zM1184 401q0 -94 -41 -176q-84 -167 -283 -229q-98 -33 -225 -33q-229 0 -379 116t-207 312l275 74q26 -109 106 -174q87 -74 209 -75q123 -1 182 48q57 50 57 112t-32 99q-61 68 -211 112q-294 86 -417 188
q-122 102 -122 265q0 164 152 288t365 124q214 0 358 -109q146 -104 191 -272l-267 -74q-25 101 -101 157q-77 56 -180 56q-102 0 -160 -43t-58 -98t34 -93q35 -38 178 -91l129 -43q298 -90 406 -275q41 -72 41 -166zM1162 1071l7 2l-6 -6q0 2 -1 4z" />
    <glyph glyph-name="scaron" unicode="&#x161;" horiz-adv-x="1245" 
d="M662 1483l-383 325l139 142l244 -203l243 203l137 -142zM1184 401q0 -94 -41 -176q-84 -167 -283 -229q-98 -33 -225 -33q-229 0 -379 116t-207 312l275 74q26 -109 106 -174q87 -74 209 -75q123 -1 182 48q57 50 57 112t-32 99q-61 68 -211 112q-294 86 -417 188
q-122 102 -122 265q0 164 152 288t365 124q214 0 358 -109q146 -104 191 -272l-267 -74q-25 101 -101 157q-77 56 -180 56q-102 0 -160 -43t-58 -98t34 -93q35 -38 178 -91l129 -43q298 -90 406 -275q41 -72 41 -166zM1162 1071l7 2l-6 -6q0 2 -1 4z" />
    <glyph glyph-name="Tcommaaccent" unicode="&#x162;" horiz-adv-x="1239" 
d="M694 -315q0 52 -76 61h-188l88 254h-43v1167h-446v267h1181v-267h-450v-1167h-82l-51 -109q148 0 204 -118q19 -37 19 -91q1 -99 -61 -156q-62 -56 -173 -56h-217l60 151h157q42 1 60 19t18 45z" />
    <glyph glyph-name="tcommaaccent" unicode="&#x163;" horiz-adv-x="1239" 
d="M694 -315q0 52 -76 61h-188l88 254h-43v1167h-446v267h1181v-267h-450v-1167h-82l-51 -109q148 0 204 -118q19 -37 19 -91q1 -99 -61 -156q-62 -56 -173 -56h-217l60 151h157q42 1 60 19t18 45z" />
    <glyph glyph-name="Tcaron" unicode="&#x164;" horiz-adv-x="1239" 
d="M29 1434h1181v-267h-450v-1167h-285v1167h-446v267zM1028 1808l-381 -325l-383 325l139 142l244 -203l244 203z" />
    <glyph glyph-name="tcaron" unicode="&#x165;" horiz-adv-x="1239" 
d="M29 1434h1181v-267h-450v-1167h-285v1167h-446v267zM1028 1808l-381 -325l-383 325l139 142l244 -203l244 203z" />
    <glyph glyph-name="Tbar" unicode="&#x166;" horiz-adv-x="1239" 
d="M1210 1167h-450v-307h223v-217h-223v-643h-285v643h-223v217h223v307h-446v267h1181v-267z" />
    <glyph glyph-name="tbar" unicode="&#x167;" horiz-adv-x="1239" 
d="M1210 1167h-450v-307h223v-217h-223v-643h-285v643h-223v217h223v307h-446v267h1181v-267z" />
    <glyph glyph-name="Umacron" unicode="&#x16a;" horiz-adv-x="1515" 
d="M760 238q330 0 330 389v807h286l-2 -813q0 -310 -166 -484q-78 -80 -194 -125q-117 -41 -256 -41t-256 43q-232 85 -318 328q-43 123 -43 281v811h285v-807q0 -199 83 -294t251 -95zM420 1796h694v-221h-694v221z" />
    <glyph glyph-name="umacron" unicode="&#x16b;" horiz-adv-x="1515" 
d="M760 238q330 0 330 389v807h286l-2 -813q0 -310 -166 -484q-78 -80 -194 -125q-117 -41 -256 -41t-256 43q-232 85 -318 328q-43 123 -43 281v811h285v-807q0 -199 83 -294t251 -95zM420 1796h694v-221h-694v221z" />
    <glyph glyph-name="Ubreve" unicode="&#x16c;" horiz-adv-x="1515" 
d="M760 238q330 0 330 389v807h286l-2 -813q0 -310 -166 -484q-78 -80 -194 -125q-117 -41 -256 -41t-256 43q-232 85 -318 328q-43 123 -43 281v811h285v-807q0 -199 83 -294t251 -95zM762 1692q64 0 106 37q43 37 56 83h204q-29 -130 -128 -212q-100 -82 -240 -82t-240 84
q-98 78 -131 215h209l2 -5q12 -48 55 -84t107 -36z" />
    <glyph glyph-name="ubreve" unicode="&#x16d;" horiz-adv-x="1515" 
d="M760 238q330 0 330 389v807h286l-2 -813q0 -310 -166 -484q-78 -80 -194 -125q-117 -41 -256 -41t-256 43q-232 85 -318 328q-43 123 -43 281v811h285v-807q0 -199 83 -294t251 -95zM762 1692q64 0 106 37q43 37 56 83h204q-29 -130 -128 -212q-100 -82 -240 -82t-240 84
q-98 78 -131 215h209l2 -5q12 -48 55 -84t107 -36z" />
    <glyph glyph-name="Uring" unicode="&#x16e;" horiz-adv-x="1515" 
d="M760 238q330 0 330 389v807h286l-2 -813q0 -310 -166 -484q-78 -80 -194 -125q-117 -41 -256 -41t-256 43q-232 85 -318 328q-43 123 -43 281v811h285v-807q0 -199 83 -294t251 -95zM755 1790q-46 0 -79 -33t-33 -80t34 -81t81 -33l-4 -4q47 -1 81 33q33 34 33 82t-34 82
t-79 34zM551 1466q-82 78 -82 196t82 200t203 82t198 -82q84 -84 83 -197t-83 -195t-198 -81l-4 -5q-117 0 -199 82z" />
    <glyph glyph-name="uring" unicode="&#x16f;" horiz-adv-x="1515" 
d="M760 238q330 0 330 389v807h286l-2 -813q0 -310 -166 -484q-78 -80 -194 -125q-117 -41 -256 -41t-256 43q-232 85 -318 328q-43 123 -43 281v811h285v-807q0 -199 83 -294t251 -95zM755 1790q-46 0 -79 -33t-33 -80t34 -81t81 -33l-4 -4q47 -1 81 33q33 34 33 82t-34 82
t-79 34zM551 1466q-82 78 -82 196t82 200t203 82t198 -82q84 -84 83 -197t-83 -195t-198 -81l-4 -5q-117 0 -199 82z" />
    <glyph glyph-name="Uhungarumlaut" unicode="&#x170;" horiz-adv-x="1515" 
d="M760 238q330 0 330 389v807h286l-2 -813q0 -310 -166 -484q-78 -80 -194 -125q-117 -41 -256 -41t-256 43q-232 85 -318 328q-43 123 -43 281v811h285v-807q0 -199 83 -294t251 -95zM756 1628l-312 -133l-82 152l474 254l82 -162l301 162l98 -195l-490 -211z" />
    <glyph glyph-name="uhungarumlaut" unicode="&#x171;" horiz-adv-x="1515" 
d="M760 238q330 0 330 389v807h286l-2 -813q0 -310 -166 -484q-78 -80 -194 -125q-117 -41 -256 -41t-256 43q-232 85 -318 328q-43 123 -43 281v811h285v-807q0 -199 83 -294t251 -95zM756 1628l-312 -133l-82 152l474 254l82 -162l301 162l98 -195l-490 -211z" />
    <glyph glyph-name="Uogonek" unicode="&#x172;" horiz-adv-x="1515" 
d="M760 238q330 0 330 389v807h286v-811l2 -5q0 -250 -102 -404t-295 -214q-57 -16 -119 -64t-61 -113q0 -65 37 -105t96 -40t107 36t77 91l146 -96q-40 -86 -130 -145t-179 -61q-149 -2 -255 77q-100 82 -100 200t90 195q-256 23 -402 187t-147 461v811h285v-807
q0 -199 83 -294t251 -95z" />
    <glyph glyph-name="uogonek" unicode="&#x173;" horiz-adv-x="1515" 
d="M760 238q330 0 330 389v807h286v-811l2 -5q0 -250 -102 -404t-295 -214q-57 -16 -119 -64t-61 -113q0 -65 37 -105t96 -40t107 36t77 91l146 -96q-40 -86 -130 -145t-179 -61q-149 -2 -255 77q-100 82 -100 200t90 195q-256 23 -402 187t-147 461v811h285v-807
q0 -199 83 -294t251 -95z" />
    <glyph glyph-name="Wcircumflex" unicode="&#x174;" horiz-adv-x="2103" 
d="M1047 946q-1 0 -15 -70t-51 -184l-221 -692h-266l-451 1434h303l225 -775q27 -98 43 -159t19 -62h2q4 0 18 62t49 159l218 621h264l217 -621q33 -98 49 -159t18 -62h2q4 0 18 62t44 159l225 775h301l-450 -1434h-265l-221 692q-39 121 -55 188t-18 66h-2zM662 1638
l382 326l381 -326l-137 -141l-244 203l-243 -203z" />
    <glyph glyph-name="wcircumflex" unicode="&#x175;" horiz-adv-x="2103" 
d="M1047 946q-1 0 -15 -70t-51 -184l-221 -692h-266l-451 1434h303l225 -775q27 -98 43 -159t19 -62h2q4 0 18 62t49 159l218 621h264l217 -621q33 -98 49 -159t18 -62h2q4 0 18 62t44 159l225 775h301l-450 -1434h-265l-221 692q-39 121 -55 188t-18 66h-2zM649 1638
l383 326l381 -326l-137 -141l-244 203l-244 -203z" />
    <glyph glyph-name="Ycircumflex" unicode="&#x176;" horiz-adv-x="1435" 
d="M854 0h-283v657l-551 777h320l295 -412q74 -107 80 -104h2q7 0 80 104l293 412h321l-557 -777v-657zM324 1638l383 326l380 -326l-137 -141l-243 203l-244 -203z" />
    <glyph glyph-name="ycircumflex" unicode="&#x177;" horiz-adv-x="1435" 
d="M854 0h-283v657l-551 777h320l295 -412q74 -107 80 -104h2q7 0 80 104l293 412h321l-557 -777v-657zM326 1638l383 326l381 -326l-138 -141l-243 203l-244 -203z" />
    <glyph glyph-name="Ydieresis" unicode="&#x178;" horiz-adv-x="1435" 
d="M854 0h-283v657l-551 777h320l295 -412q74 -107 80 -104h2q7 0 80 104l293 412h321l-557 -777v-657zM971 1571v-2q-57 0 -99 37q-38 37 -38 94t38 96t96 39t97 -39t39 -95t-40 -93t-93 -37zM442 1569v-2q-57 0 -98 37q-39 37 -39 94t39 96t96 39q56 0 96 -39t40 -95
t-41 -93q-40 -37 -93 -37z" />
    <glyph glyph-name="Zacute" unicode="&#x179;" horiz-adv-x="1443" 
d="M719 256h600v-264h-1198v264l710 784q23 27 50 51q26 25 32 31l31 31l14 12l-2 2h-813v267h1178v-267l-692 -782q-121 -131 -121 -135l2 -2l6 2l55 2q78 4 148 4zM969 1894l98 -194l-487 -211l-84 151z" />
    <glyph glyph-name="zacute" unicode="&#x17a;" horiz-adv-x="1443" 
d="M719 256h600v-264h-1198v264l710 784q23 27 50 51q26 25 32 31l31 31l14 12l-2 2h-813v267h1178v-267l-692 -782q-121 -131 -121 -135l2 -2l6 2l55 2q78 4 148 4zM969 1894l98 -194l-487 -211l-84 151z" />
    <glyph glyph-name="Zdotaccent" unicode="&#x17b;" horiz-adv-x="1443" 
d="M719 256h600v-264h-1198v264l710 784q23 27 50 51q26 25 32 31l31 31l14 12l-2 2h-813v267h1178v-267l-692 -782q-121 -131 -121 -135l2 -2l6 2l55 2q78 4 148 4zM733 1561h-4q-55 1 -94 39t-39 94t40 97q40 40 96 40t95 -39t39 -96t-39 -96t-94 -39z" />
    <glyph glyph-name="zdotaccent" unicode="&#x17c;" horiz-adv-x="1443" 
d="M719 256h600v-264h-1198v264l710 784q23 27 50 51q26 25 32 31l31 31l14 12l-2 2h-813v267h1178v-267l-692 -782q-121 -131 -121 -135l2 -2l6 2l55 2q78 4 148 4zM733 1561h-4q-55 1 -94 39t-39 94t40 97q40 40 96 40t95 -39t39 -96t-39 -96t-94 -39z" />
    <glyph glyph-name="Zcaron" unicode="&#x17d;" horiz-adv-x="1443" 
d="M737 1483l-383 325l140 142l243 -203l244 203l137 -142zM1323 260v-264h-1198v264l711 784q25 29 38 43l70 70l12 10l-2 2l-20 -2h-793v267h1180v-267l-688 -774q-121 -131 -121 -135l2 -2l209 4h600z" />
    <glyph glyph-name="zcaron" unicode="&#x17e;" horiz-adv-x="1443" 
d="M737 1483l-383 325l140 142l243 -203l244 203l137 -142zM1323 260v-264h-1198v264l711 784q25 29 38 43l70 70l12 10l-2 2l-20 -2h-793v267h1180v-267l-688 -774q-121 -131 -121 -135l2 -2l209 4h600z" />
    <glyph glyph-name="florin" unicode="&#x192;" horiz-adv-x="811" 
d="M68 723v143l219 2l51 355q18 123 74 183q105 113 358 81v-156q-125 7 -180 -19t-68 -116l-47 -330h242v-143h-262l-111 -786q-31 -224 -201 -252q-74 -12 -172 0v151q74 -6 121 12t60 103l112 772h-196z" />
    <glyph glyph-name="Scommaaccent" unicode="&#x218;" horiz-adv-x="1245" 
d="M481 -204q0 54 39 91q41 37 93 37q53 0 93 -40t39 -109q0 -176 -196 -344h-100q56 36 83 87q52 99 52 142l24 8l-26 8q-33 2 -67 34t-34 86zM381 1076q0 -52 37 -92t178 -93l129 -43q66 -20 155 -62q294 -137 294 -378q0 -191 -150 -314q-151 -123 -388 -123
q-236 0 -385 116t-208 312l274 74q39 -166 203 -229q54 -20 148 -20t152 48q58 50 58 114t-32 100q-61 66 -215 112q-282 81 -402 178q-129 110 -129 275q0 164 150 286q151 127 364 126t362 -109t191 -277l-274 -76h-16q-25 101 -101 157q-77 56 -179 56q-101 0 -159 -43
t-57 -95z" />
    <glyph glyph-name="scommaaccent" unicode="&#x219;" horiz-adv-x="1245" 
d="M481 -204q0 54 39 91q41 37 93 37q53 0 93 -40t39 -109q0 -176 -196 -344h-100q56 36 83 87q52 99 52 142l24 8l-26 8q-33 2 -67 34t-34 86zM381 1076q0 -52 37 -92t178 -93l129 -43q66 -20 155 -62q294 -137 294 -378q0 -191 -150 -314q-151 -123 -388 -123
q-236 0 -385 116t-208 312l274 74q39 -166 203 -229q54 -20 148 -20t152 48q58 50 58 114t-32 100q-61 66 -215 112q-282 81 -402 178q-129 110 -129 275q0 164 150 286q151 127 364 126t362 -109t191 -277l-274 -76h-16q-25 101 -101 157q-77 56 -179 56q-101 0 -159 -43
t-57 -95z" />
    <glyph glyph-name="uni021A" unicode="&#x21a;" horiz-adv-x="1239" 
d="M768 -225q0 -175 -197 -344h-100q56 36 83 87q52 99 52 142l25 8l-25 4l-2 4q-32 2 -66 34t-34 86t39 91t92 37t93 -40t40 -109zM27 1438h1181v-267h-450v-1167h-285v1167h-446v267z" />
    <glyph glyph-name="uni021B" unicode="&#x21b;" horiz-adv-x="1239" 
d="M715 -215q0 -185 -197 -354h-100q56 36 83 87q52 99 52 142l25 8l-25 4l-2 4q-33 2 -67 34t-34 86t39 91t93 37t93 -40q40 -40 40 -99zM27 1438h1181v-267h-450v-1167h-285v1167h-446v267z" />
    <glyph glyph-name="uni0237" unicode="&#x237;" horiz-adv-x="1374" 
d="M950 1434h285l2 -822q0 -305 -174 -479q-82 -82 -200 -124q-117 -42 -237 -42q-324 0 -513 221q-57 66 -88 148l280 76q39 -84 116 -129t183 -45q166 0 256 99t90 273v824z" />
    <glyph glyph-name="circumflex" unicode="&#x2c6;" horiz-adv-x="774" 
d="M-20 1638l380 326l381 -326l-137 -141l-244 203l-243 -203z" />
    <glyph glyph-name="caron" unicode="&#x2c7;" horiz-adv-x="774" 
d="M360 1485l-380 323l137 142l243 -203l244 203l137 -142z" />
    <glyph glyph-name="breve" unicode="&#x2d8;" horiz-adv-x="700" 
d="M156 1819v-4q12 -47 55 -84t106 -37t107 37q43 37 53 84h205q-29 -132 -129 -214q-101 -81 -239 -81t-236 83t-127 216h205z" />
    <glyph glyph-name="dotaccent" unicode="&#x2d9;" horiz-adv-x="344" 
d="M143 1839q57 0 97 -39t39 -96q1 -57 -39 -96t-97 -39t-96 39t-39 96t39 96t96 39z" />
    <glyph glyph-name="ring" unicode="&#x2da;" horiz-adv-x="581" 
d="M151 1623q0 -48 32 -80t80 -33t82 33t34 81t-33 80t-81 33t-81 -33t-33 -81zM-23 1610q1 56 21 110q40 105 148 151t222 1q113 -44 154 -148q23 -55 23 -112q0 -117 -82 -191q-86 -82 -203 -82l-4 -4q-117 0 -199 82q-41 41 -57 86q-23 51 -23 107z" />
    <glyph glyph-name="ogonek" unicode="&#x2db;" horiz-adv-x="1228" 
d="M526 -322q127 0 191 125l149 -94v-4q-51 -99 -141 -155q-89 -56 -179 -56q-167 0 -270 84q-102 85 -102 220t96 233q41 39 88 61t78 23l185 -117q-151 0 -226 -96q-25 -33 -25 -86q0 -54 41 -96q40 -42 115 -42z" />
    <glyph glyph-name="tilde" unicode="&#x2dc;" horiz-adv-x="989" 
d="M700 1810h224l-6 -4q0 -183 -175 -258q-49 -20 -109 -20t-97 17t-79 44t-70 42t-64 15t-65 -24q-28 -25 -28 -66h-221q0 123 86 206t207 81q88 0 176 -61q29 -20 63 -40t72 -22q38 0 62 24t24 66z" />
    <glyph glyph-name="hungarumlaut" unicode="&#x2dd;" horiz-adv-x="1030" 
d="M967 1708l-490 -211l-71 133l-312 -133l-82 152l473 254l82 -162l301 162z" />
    <glyph glyph-name="uni0326" unicode="&#x326;" horiz-adv-x="0" 
d="M383 -225q0 -175 -197 -344h-100q56 36 83 87q52 99 52 142l25 8l-27 8q-33 2 -67 34t-33 86q0 54 39 91t92 37t93 -40t40 -109z" />
    <glyph glyph-name="Wgrave" unicode="&#x1e80;" horiz-adv-x="2103" 
d="M1047 946q-1 0 -15 -70t-51 -184l-221 -692h-266l-451 1434h303l225 -775q27 -98 43 -159t19 -62h2q4 0 18 62t49 159l218 621h264l217 -621q33 -98 49 -159t18 -62h2q4 0 18 62t44 159l225 775h301l-450 -1434h-265l-221 692q-39 121 -55 188t-18 66h-2zM1161 1497
l-489 211l100 195l471 -254z" />
    <glyph glyph-name="wgrave" unicode="&#x1e81;" horiz-adv-x="2103" 
d="M1047 946q-1 0 -15 -70t-51 -184l-221 -692h-266l-451 1434h303l225 -775q27 -98 43 -159t19 -62h2q4 0 18 62t49 159l218 621h264l217 -621q33 -98 49 -159t18 -62h2q4 0 18 62t44 159l225 775h301l-450 -1434h-265l-221 692q-39 121 -55 188t-18 66h-2zM1149 1497
l-490 211l101 195l471 -254z" />
    <glyph glyph-name="Wacute" unicode="&#x1e82;" horiz-adv-x="2103" 
d="M1047 946q-1 0 -15 -70t-51 -184l-221 -692h-266l-451 1434h303l225 -775q27 -98 43 -159t19 -62h2q4 0 18 62t49 159l218 621h264l217 -621q33 -98 49 -159t18 -62h2q4 0 18 62t44 159l225 775h301l-450 -1434h-265l-221 692q-39 121 -55 188t-18 66h-2zM1286 1903
l98 -195l-487 -211l-84 152z" />
    <glyph glyph-name="wacute" unicode="&#x1e83;" horiz-adv-x="2103" 
d="M1047 946q-1 0 -15 -70t-51 -184l-221 -692h-266l-451 1434h303l225 -775q27 -98 43 -159t19 -62h2q4 0 18 62t49 159l218 621h264l217 -621q33 -98 49 -159t18 -62h2q4 0 18 62t44 159l225 775h301l-450 -1434h-265l-221 692q-39 121 -55 188t-18 66h-2zM1274 1903
l98 -195l-487 -211l-84 152z" />
    <glyph glyph-name="Wdieresis" unicode="&#x1e84;" horiz-adv-x="2103" 
d="M1047 946q-1 0 -15 -70t-51 -184l-221 -692h-266l-451 1434h303l225 -775q27 -98 43 -159t19 -62h2q4 0 18 62t49 159l218 621h264l217 -621q33 -98 49 -159t18 -62h2q4 0 18 62t44 159l225 775h301l-450 -1434h-265l-221 692q-39 121 -55 188t-18 66h-2zM1309 1571v-2
q-59 0 -99 37q-39 37 -39 94t39 96q38 39 96 39t97 -39t39 -95t-39 -93t-94 -37zM780 1569v-2q-59 0 -98 37t-39 94t39 96t96 39t96 -39t39 -95t-39 -93t-94 -37z" />
    <glyph glyph-name="wdieresis" unicode="&#x1e85;" horiz-adv-x="2103" 
d="M1047 946q-1 0 -15 -70t-51 -184l-221 -692h-266l-451 1434h303l225 -775q27 -98 43 -159t19 -62h2q4 0 18 62t49 159l218 621h264l217 -621q33 -98 49 -159t18 -62h2q4 0 18 62t44 159l225 775h301l-450 -1434h-265l-221 692q-39 121 -55 188t-18 66h-2zM1296 1571v-2
q-59 0 -98 37t-39 94t39 96t96 39q56 0 96 -39t40 -95t-40 -93t-94 -37zM768 1569v-2q-59 0 -98 37t-39 94t39 96t96 39t96 -39t39 -95t-39 -93t-94 -37z" />
    <glyph glyph-name="uni1E9E" unicode="&#x1e9e;" horiz-adv-x="1658" 
d="M455 1167v-1167h-285v1434h1274l-221 -410q-19 -41 -29 -57q-10 -17 -20 -37t-17 -32t-33 -64l2 -3h11q191 0 311 -116q57 -55 92 -134t35 -166t-34 -171q-70 -173 -255 -242q-98 -33 -207 -33q-162 0 -295 76q-131 78 -200 203l270 74q83 -109 206 -109q122 0 177 61
q55 62 55 148t-58 146t-171 61h-207v207l119 235q16 33 20 43l11 22l16 33l-2 2l-139 -4h-426z" />
    <glyph glyph-name="Ygrave" unicode="&#x1ef2;" horiz-adv-x="1435" 
d="M854 0h-283v657l-551 777h320l295 -412q74 -107 80 -104h2q7 0 80 104l293 412h321l-557 -777v-657zM823 1497l-489 211l100 195l471 -254z" />
    <glyph glyph-name="ygrave" unicode="&#x1ef3;" horiz-adv-x="1435" 
d="M854 0h-283v657l-551 777h320l295 -412q74 -107 80 -104h2q7 0 80 104l293 412h321l-557 -777v-657zM825 1497l-489 211l100 195l471 -254z" />
    <glyph glyph-name="uni2007" unicode="&#x2007;" 
 />
    <glyph glyph-name="uni2009" unicode="&#x2009;" horiz-adv-x="245" 
 />
    <glyph glyph-name="uni200A" unicode="&#x200a;" horiz-adv-x="81" 
 />
    <glyph glyph-name="endash" unicode="&#x2013;" horiz-adv-x="1210" 
d="M170 860h870v-268h-870v268z" />
    <glyph glyph-name="emdash" unicode="&#x2014;" horiz-adv-x="2111" 
d="M170 860h1772v-268h-1772v268z" />
    <glyph glyph-name="quoteleft" unicode="&#x2018;" horiz-adv-x="657" 
d="M453 1071q0 -59 -44 -99q-43 -40 -101 -40t-98 46t-40 102q0 149 125 300q39 47 80 78h108q-39 -28 -89 -107t-50 -141l-27 -8l23 -2q39 -2 76 -36t37 -93z" />
    <glyph glyph-name="quoteright" unicode="&#x2019;" horiz-adv-x="657" 
d="M199 1311q0 57 43 98q45 41 102 41t98 -44t41 -100q0 -100 -59 -208q-65 -108 -145 -170h-109q52 37 97 117q46 80 46 133l27 8l-29 -4q-39 2 -75 37t-37 92z" />
    <glyph glyph-name="quotesinglbase" unicode="&#x201a;" horiz-adv-x="657" 
d="M199 110q0 58 43 99q45 41 102 41t98 -44t41 -121t-59 -185q-67 -111 -145 -170h-109q52 37 97 117q46 80 46 133l27 8l-29 -4q-37 2 -75 34q-37 34 -37 92z" />
    <glyph glyph-name="quotedblleft" unicode="&#x201c;" horiz-adv-x="1095" 
d="M893 1071q0 -59 -44 -99t-101 -40t-97 45q-39 45 -39 103q0 146 125 300q39 47 80 78h107q-41 -30 -91 -108q-49 -78 -49 -140l-28 -8l26 -2q37 -4 74 -37t37 -92zM451 1071q0 -59 -44 -99q-43 -40 -101 -40t-98 46t-40 102q0 100 59 208q65 109 146 170h108
q-39 -28 -89 -107t-50 -141l-27 -8l23 -2q39 -2 76 -36t37 -93z" />
    <glyph glyph-name="quotedblright" unicode="&#x201d;" horiz-adv-x="1095" 
d="M637 1311q0 57 43 98q45 41 102 41t99 -43q41 -45 41 -101q0 -99 -60 -208q-66 -110 -145 -170h-107q49 35 96 114q46 79 46 136l26 8l-33 -4q-41 2 -75 37t-33 92zM339 1442q58 0 98 -44t40 -100q0 -147 -125 -301q-39 -47 -80 -77h-108q52 37 97 117q46 80 46 132l27 9
l-29 -4q-39 2 -76 36t-37 92t44 99q45 41 103 41z" />
    <glyph glyph-name="quotedblbase" unicode="&#x201e;" horiz-adv-x="1087" 
d="M629 112q0 60 44 100t101 40t98 -44t41 -122t-59 -186q-67 -111 -145 -170h-109q52 37 97 117q46 80 46 133l27 8l-29 -2q-37 2 -75 34q-37 32 -37 92zM343 246q58 0 98 -44t40 -102q0 -145 -125 -299q-39 -47 -80 -77h-108q52 37 97 117q46 80 46 132l27 9l-29 -2
q-37 2 -76 34q-37 35 -36 92q0 57 43 99q45 41 103 41z" />
    <glyph glyph-name="dagger" unicode="&#x2020;" horiz-adv-x="1058" 
d="M1030 1090v-242l-373 -2v-225q0 -290 -15 -425t-15 -149l-4 -47h-185l-6 49q-10 83 -20 265t-11 309v225h-372v242h372v344h252v-344h377z" />
    <glyph glyph-name="daggerdbl" unicode="&#x2021;" horiz-adv-x="1058" 
d="M653 848v-225l-8 -11h377v-241h-383q-4 -80 -6 -148t-6 -118t-6 -76l-3 -27h-184l-4 29q-11 144 -14 193q-4 48 -8 149h-379v241h372v234h-372v242h372v344h252v-344h377v-242h-377z" />
    <glyph glyph-name="bullet" unicode="&#x2022;" horiz-adv-x="821" 
d="M238 891q71 67 169 67t170 -64t72 -167q1 -103 -69 -173t-168 -69l-4 -4q-102 0 -171 70t-69 175t70 165z" />
    <glyph glyph-name="ellipsis" unicode="&#x2026;" horiz-adv-x="1564" 
d="M1325 -25v-6q-45 0 -82 33q-33 33 -33 81t35 83t81 35t80 -34t34 -80t-34 -79t-81 -33zM772 -31v-6q-47 0 -81 33t-34 81t35 83t81 35t80 -34t34 -80t-34 -79t-81 -33zM240 -37v-6q-47 0 -81 33t-34 81t35 83q35 34 81 34q45 0 79 -34t34 -80q0 -47 -35 -78
q-32 -33 -79 -33z" />
    <glyph glyph-name="perthousand" unicode="&#x2030;" horiz-adv-x="2764" 
d="M2322 176v-2q81 0 128 67t48 157t-47 159q-49 66 -128 67t-125 -66t-47 -137q-2 -164 100 -226q30 -19 71 -19zM1479 172q80 0 127 66t48 156t-46 161q-49 66 -128 67t-126 -67t-47 -158q0 -91 47 -157t125 -66v-2zM2587 690q100 -117 100 -296t-97 -295
q-97 -117 -268 -117q-80 0 -148 30q-135 58 -194 215q-27 74 -26 166q0 182 103 298t269 116q165 0 261 -117zM1110 393q0 179 102 297q104 117 270 117t261 -117q102 -119 101 -298t-101 -296q-93 -114 -264 -114q-80 0 -149 30q-137 58 -193 215q-27 74 -27 166zM444 809
v-2q86 0 130 66q45 66 46 159q2 92 -46 158t-128 66t-127 -66t-47 -156t47 -158q47 -67 125 -67zM360 -4l1012 1431h187l-1010 -1431h-189zM444 616v-2q-162 0 -266 117t-103 299t104 298t269 116t261 -117q100 -117 100 -296t-98 -297t-267 -118z" />
    <glyph glyph-name="guilsinglleft" unicode="&#x2039;" horiz-adv-x="978" 
d="M170 721l483 479l154 -156l-334 -323l336 -324l-158 -157z" />
    <glyph glyph-name="guilsinglright" unicode="&#x203a;" horiz-adv-x="978" 
d="M326 1200l483 -479l-481 -481l-158 157l338 324l-336 323z" />
    <glyph glyph-name="fraction" unicode="&#x2044;" horiz-adv-x="256" 
d="M-469 0l1010 1434h186l-1008 -1434h-188z" />
    <glyph glyph-name="Euro" unicode="&#x20ac;" horiz-adv-x="1642" 
d="M1276 1006q-124 174 -366 174q-122 0 -232 -66q-109 -66 -166 -178h430v-186h-481q-2 -6 -2 -17v-33q0 -10 2 -16h481v-188h-428q56 -109 164 -173q108 -65 238 -65t232 56t157 151l284 -72h-6q-86 -188 -264 -303q-180 -115 -410 -115q-117 0 -233 36q-226 71 -367 268
q-70 96 -102 213h-131v188h100v70h-98v186h129q66 233 259 376q194 142 449 142q206 0 383 -102q176 -102 267 -275z" />
    <glyph glyph-name="uni20B9" unicode="&#x20b9;" horiz-adv-x="1220" 
d="M446 1217h-276v217h979v-217h-252q35 -47 53 -103h197v-211h-176q-17 -158 -119 -262t-264 -137l379 -504h-328l-367 498v211h174q90 0 148 55t78 139h-504v211h469q-71 103 -191 103z" />
    <glyph glyph-name="afii61352" unicode="&#x2116;" horiz-adv-x="2275" 
d="M1565 639h663v-174h-663v174zM1718 1106v-6q0 -80 49 -131t127 -51t127 53t49 135t-48 134q-50 52 -128 52t-127 -52t-49 -134zM1135 1427h284l-4 -1433h-268l-408 551q-49 65 -98 135t-99 138t-63 87l-26 39h-2v-950h-285v1431h268l502 -673q65 -87 166 -230l31 -41h2
v946zM1540 1098h-6q0 146 102 252q100 100 246 100t254 -100q105 -101 105 -254q0 -154 -104 -252q-104 -99 -249 -99q-145 1 -246 101q-102 100 -102 252z" />
    <glyph glyph-name="trademark" unicode="&#x2122;" horiz-adv-x="1611" 
d="M1458 1434v-668h-168v217q0 78 5 119t5 48v13h-2q-4 -1 -16 -21t-30 -48t-31 -45l-80 -125h-76l-78 125q-76 116 -80 114h-2q-2 -1 1 -61t3 -119v-217h-168v666h162l129 -203q35 -53 50 -89t18 -36h2q4 0 19 38t48 89l129 203h160zM29 1264v168h610v-168h-219v-498h-172
v498h-219z" />
    <glyph glyph-name="oneeighth" unicode="&#x215b;" horiz-adv-x="1521" 
d="M1059 227h-2q0 -49 39 -80t98 -31t100 31q39 31 39 78t-39 78q-41 31 -98 31t-97 -31t-40 -76zM1075 596h-4q0 -39 34 -68t87 -24q53 0 87 24t34 66t-34 66t-85 24t-85 -24t-34 -64zM969 54q-86 68 -86 161q0 94 55 143q42 45 109 64v2q-14 2 -38 18q-83 55 -83 155
q0 99 74 157t191 59q116 -1 190 -59q75 -58 75 -146t-46 -133t-79 -53v-2q61 -17 103 -62q55 -51 55 -144t-86 -161q-86 -67 -217 -67t-217 68zM117 2l1011 1434h187l-1010 -1434h-188zM240 639v401q0 37 3 60q3 24 5 46l8 52h-2q-4 0 -14 -17t-54 -61l-59 -57l-117 104
l293 269h131l-8 -797h-186z" />
    <glyph glyph-name="threeeighths" unicode="&#x215c;" horiz-adv-x="1654" 
d="M1192 227h-2q0 -49 40 -80t99 -31t98 32q39 30 39 77t-39 78t-98 31t-98 -31t-39 -76zM1208 596h-4q0 -39 35 -68t86 -24q51 0 86 24t35 66t-33 66t-86 24t-86 -24t-33 -64zM1102 54q-86 68 -86 159q0 92 51 142t113 67v2q-16 2 -39 18q-82 57 -82 156q0 98 75 156
t191 59q116 0 190 -58t74 -147t-45 -131q-37 -43 -80 -55v-2q56 -15 91 -50q67 -67 67 -158t-86 -159q-86 -67 -217 -67t-217 68zM250 2l1012 1434h186l-1010 -1434h-188zM342 780q57 0 89 28t32 73t-36 73t-93 27h-76v131h76q47 0 81 28t34 64t-28 65q-28 27 -84 27
q-112 -1 -138 -118l-158 43q22 97 100 159t209 64q131 0 205 -68t74 -155t-52 -131q-52 -43 -114 -46v-2q116 -12 162 -98q16 -33 16 -79q0 -103 -83 -174q-83 -70 -204 -70q-122 0 -215 67t-112 168l159 43q17 -119 156 -119z" />
    <glyph glyph-name="fiveeighths" unicode="&#x215d;" horiz-adv-x="1611" 
d="M1286 117q58 0 98 30q39 31 39 78t-39 78q-41 31 -98 31t-97 -31t-40 -78t39 -78q40 -30 98 -30zM1284 686h-4q-51 0 -86 -24q-33 -25 -33 -64t34 -67q34 -29 87 -27t87 26t34 66q0 41 -33 66q-35 24 -86 24zM1059 54q-86 68 -86 159q0 92 55 145q42 45 109 64v2
q-14 2 -38 18q-83 55 -83 155q0 99 75 157t190 59q115 0 190 -58t75 -147t-46 -133q-46 -45 -79 -53v-2q61 -17 103 -62q55 -51 55 -144t-86 -161q-86 -67 -217 -67t-217 68zM1219 1436h186l-1010 -1434h-188zM332 1165q137 1 217 -73t80 -193q0 -185 -178 -256
q-53 -20 -119 -20q-120 0 -207 66q-86 66 -96 159l164 45q7 -45 39 -79t90 -34t97 34q38 34 38 89t-37 90q-39 35 -96 35q-86 0 -121 -67l-152 40l74 433h455v-162h-322l-8 -35q-16 -65 -26 -87t-9 -24l2 -2l-2 -4q45 45 117 45z" />
    <glyph glyph-name="seveneighths" unicode="&#x215e;" horiz-adv-x="1411" 
d="M948 227h-2q0 -49 39 -80t98 -31t101 31q39 31 39 78t-39 78q-40 31 -98 31t-98 -31t-40 -76zM965 596h-4q-1 -39 33 -68t87 -24q53 0 87 24t34 66t-34 66t-85 24t-85 -24t-33 -64zM858 54q-86 68 -86 159q0 92 50 141t114 68v2q-14 2 -38 18q-83 55 -83 155q0 99 75 157
t191 59q116 0 189 -58q74 -58 75 -146q1 -89 -45 -134t-79 -53v-2q62 -17 102 -62q55 -51 55 -144t-86 -161q-86 -67 -217 -67t-217 68zM8 1274v162h602l2 -105l-383 -692h-182l283 510q32 57 58 91t26 36l-2 2l-146 -4h-258zM8 0l1012 1434h186l-1009 -1434h-189z" />
    <glyph glyph-name="minus" unicode="&#x2212;" 
d="M248 844h936v-234h-936v234z" />
    <glyph glyph-name="notequal" unicode="&#x2260;" 
d="M1184 821h-291l-111 -221h402v-233h-520l-111 -217h-238l111 217h-178v233h297l114 221h-411v234h530l121 237h234l-121 -237h172v-234z" />
    <glyph glyph-name="lessequal" unicode="&#x2264;" 
d="M592 752l457 -383h-340l-473 383l604 499h331zM242 215h936v-231h-936v231z" />
    <glyph glyph-name="greaterequal" unicode="&#x2265;" 
d="M252 215h936v-231h-936v231zM381 369l457 383l-580 499h332l604 -499l-473 -383h-340z" />
    <glyph glyph-name="lozenge" unicode="&#x25ca;" horiz-adv-x="1515" 
d="M758 1139l-422 -422l422 -422l424 422zM758 -27l-746 744l746 745l745 -745z" />
    <glyph glyph-name="glyph1" horiz-adv-x="0" 
 />
    <glyph glyph-name="glyph2" horiz-adv-x="0" 
 />
    <glyph glyph-name="glyph242" horiz-adv-x="1548" 
d="M826 248q110 0 216 59t158 154l287 -76q-90 -188 -266 -303q-177 -115 -423 -115q-132 0 -268 54q-277 111 -397 391q-57 135 -57 298t59 303q117 278 397 392q136 55 268 55q233 0 407 -102q175 -102 266 -275l-291 -75l-6 -9q-60 82 -158 128q-98 47 -200 47
q-205 1 -328 -131q-123 -131 -121 -334q1 -103 35 -191t92 -145q124 -125 330 -125zM913 1964l209 -117l-241 -362l-179 102z" />
    <glyph glyph-name="glyph243" horiz-adv-x="1005" 
d="M645 250h283v-250h-850v250h282v934h-274v250h834v-250h-275v-934z" />
    <glyph glyph-name="glyph244" horiz-adv-x="2351" 
d="M1927 610v824h285l2 -822q0 -301 -174 -479q-82 -82 -200 -124t-238 -42q-324 0 -512 221q-57 66 -89 148l281 76q85 -174 299 -174q168 0 257 99t89 273zM647 1174v-934h283v-248h-850v248h282v934h-274v249h834v-249h-275z" />
    <glyph glyph-name="glyph245" horiz-adv-x="2344" 
d="M1303 1434h903l2 -822q0 -305 -174 -479q-82 -82 -200 -124t-238 -42q-325 0 -513 221q-57 66 -88 148l281 76q39 -84 116 -129t183 -45q166 0 256 99t90 273v557h-618v267zM647 1174v-934h283v-248h-850v248h282v934h-274v249h834v-249h-275z" />
    <glyph glyph-name="glyph246" horiz-adv-x="1966" 
d="M922 1434h903l2 -822q0 -305 -174 -479q-82 -82 -200 -124q-117 -42 -237 -42q-321 0 -514 221q-57 66 -88 148l281 76q39 -84 116 -129t183 -45q166 0 256 99t90 273v557h-618v267zM172 -8v1431h285v-1431h-285z" />
    <glyph glyph-name="glyph247" horiz-adv-x="1005" 
d="M645 250h283v-250h-850v250h282v934h-274v250h834v-250h-275v-934zM840 1708l-488 -211l-84 152l473 254z" />
    <glyph glyph-name="glyph248" horiz-adv-x="1005" 
d="M645 250h283v-250h-850v250h282v934h-274v250h834v-250h-275v-934zM500 1700l-244 -203l-139 141l383 326l381 -326l-138 -141z" />
    <glyph glyph-name="glyph249" horiz-adv-x="1005" 
d="M645 250h283v-250h-850v250h282v934h-274v250h834v-250h-275v-934zM764 1571v-2q-59 0 -98 37t-39 94t39 96t96 39t96 -39t39 -95t-39 -93t-94 -37zM236 1569v-2q-59 0 -99 37q-39 37 -39 94t39 96t97 39t96 -39q39 -39 39 -95t-39 -93t-94 -37z" />
    <glyph glyph-name="glyph250" horiz-adv-x="1005" 
d="M645 250h283v-250h-850v250h282v934h-274v250h834v-250h-275v-934zM506 1569h-4q-55 0 -94 39t-39 95t40 96t96 40t95 -39t39 -96t-39 -96t-94 -39z" />
    <glyph glyph-name="glyph251" horiz-adv-x="1005" 
d="M645 250h283v-250h-850v250h282v934h-274v250h834v-250h-275v-934zM698 1649l-82 -152l-489 211l100 195z" />
    <glyph glyph-name="glyph252" horiz-adv-x="1005" 
d="M645 250h283v-250h-850v250h282v934h-274v250h834v-250h-275v-934zM920 1798v-221h-834v221h834z" />
    <glyph glyph-name="glyph253" horiz-adv-x="1005" 
d="M18 -171q0 91 66 171h-6v250h282v934h-274v250h834v-250h-275v-934h283v-250h-463q-92 0 -164 -41q-86 -46 -86 -139q0 -55 40 -97t116 -42q127 0 190 124l150 -94q-51 -100 -143 -155q-158 -94 -339 -33q-211 73 -211 306z" />
    <glyph glyph-name="glyph254" horiz-adv-x="1374" 
d="M332 1434h903l2 -822q0 -305 -174 -479q-82 -82 -200 -124q-117 -42 -237 -42q-324 0 -513 221q-57 66 -88 148l280 76q39 -84 116 -129t183 -45q166 0 256 99t90 273v557h-618v267z" />
    <glyph glyph-name="glyph255" horiz-adv-x="1374" 
d="M332 1434h903l2 -822q0 -305 -174 -479q-82 -82 -200 -124q-117 -42 -237 -42q-324 0 -513 221q-57 66 -88 148l280 76q39 -84 116 -129t183 -45q166 0 256 99t90 273v557h-618v267zM762 1690l-244 -203l-139 141l383 326l381 -326l-139 -141z" />
    <glyph glyph-name="glyph256" horiz-adv-x="1589" 
d="M1135 1434h284l-4 -1438h-285v489l-364 299q-75 64 -139 122q-63 58 -89 80l-39 36t-20 16l-28 25h-2l2 -25v-1040h-285v1432h268l453 -390q65 -56 103 -88t54 -46t34 -26q18 -13 24 -20l35 -29h2l-4 302v301z" />
    <glyph glyph-name="glyph257" horiz-adv-x="1589" 
d="M1135 1434h284l-4 -1434h-268l-408 551q-49 63 -98 135t-99 140t-63 85l-26 39h-2v-950h-285v1432h268l416 -560q8 -10 27 -36t70 -94q52 -68 155 -214l31 -41h2v947zM895 1970l209 -117l-242 -362l-178 102z" />
    <glyph glyph-name="glyph258" horiz-adv-x="1589" 
d="M1135 1434h284l-4 -1438h-285v489l-364 299q-75 64 -139 122q-63 58 -89 80l-39 36t-20 16l-28 25h-2l2 -25v-1040h-285v1432h268l453 -390q65 -56 103 -88t54 -46t34 -26q18 -13 24 -20l35 -29h2l-4 302v301zM897 1966l209 -117l-242 -362l-178 102z" />
    <glyph glyph-name="glyph259" horiz-adv-x="1589" 
d="M1135 1434h284l-4 -1438h-285v489l-364 299q-75 64 -139 122q-63 58 -89 80l-39 36t-20 16l-28 25h-2l2 -25v-1040h-285v1432h268l453 -390q65 -56 103 -88t54 -46t34 -26q18 -13 24 -20l35 -29h2l-4 302v301zM1030 1896l98 -194l-487 -211l-84 151z" />
    <glyph glyph-name="glyph260" horiz-adv-x="1589" 
d="M799 1483l-383 325l139 142l244 -203l243 203l138 -142zM1419 1434v-1434h-284v492l-365 299q-78 66 -140 120t-75 65q-14 11 -40 34t-36 30l-28 25h-2v-1067h-285v1432h268l453 -390q123 -106 135 -117t78 -65l35 -29h2q0 31 -3 117t-2 184l5 304h284z" />
    <glyph glyph-name="glyph261" horiz-adv-x="1589" 
d="M938 -225q0 -175 -197 -344h-100q56 36 83 87q52 99 52 142l25 8l-27 8q-32 2 -66 34t-34 86t39 91q41 37 93 37t92 -40t40 -109zM1133 1438h284l-4 -1438h-285v489l-364 299q-75 64 -136 119q-61 56 -77 70l-102 90h-3l3 -25v-1042h-285v1434h268l453 -390
q65 -56 103 -88t54 -46t34 -26q18 -13 24 -20l35 -28h2l-4 301v301z" />
    <glyph glyph-name="glyph262" horiz-adv-x="1589" 
d="M1135 1434h284l-4 -1438h-285v489l-364 299q-75 64 -139 122q-63 58 -89 80l-39 36t-20 16l-28 25h-2l2 -25v-1040h-285v1432h268l453 -390q65 -56 103 -88t54 -46t34 -26q18 -13 24 -20l35 -29h2l-4 302v301zM1028 1804h223l-8 -4q0 -186 -174 -258q-49 -20 -109 -20
t-99 18q-40 18 -90 48q-49 30 -67 41t-56 11t-64 -24t-27 -66h-223q0 125 86 207t207 80q88 0 176 -61q29 -20 63 -40t71 -22q39 0 65 24t26 66z" />
    <glyph glyph-name="glyph263" horiz-adv-x="1644" 
d="M1268 713q0 202 -124 336q-124 133 -322 133q-199 0 -322 -127q-125 -134 -125 -338l-2 -8q0 -207 124 -335t322 -128q199 0 324 132q125 133 125 335zM815 1452q154 0 290 -55q279 -113 396 -389q59 -141 59 -304q1 -324 -217 -534q-100 -98 -237 -152t-289 -55
q-152 0 -287 54q-277 111 -397 391q-57 135 -57 301l-6 -4q0 160 59 300q117 278 397 392q135 55 289 55zM926 1960l209 -117l-242 -362l-178 102z" />
    <glyph glyph-name="glyph264" horiz-adv-x="1695" 
d="M375 731v-2q0 -203 125 -327q125 -123 313 -122q189 1 319 123t130 326t-131 327q-131 122 -319 122q-189 0 -310 -121q-59 -57 -93 -143t-34 -183zM1540 279h86l-4 -279h-807q-311 0 -526 208t-215 527q0 158 59 294q119 274 395 388q135 55 289 55t290 -54
q279 -114 396 -388q59 -136 59 -286q1 -293 -194 -476l2 -2q2 0 39 6t131 7z" />
    <glyph glyph-name="glyph265" horiz-adv-x="1245" 
d="M383 1072q0 -52 37 -92t178 -93l129 -43q66 -20 155 -62q173 -81 253 -213q41 -72 41 -168t-39 -174q-82 -165 -283 -227q-98 -33 -223 -33q-229 0 -379 116t-207 312l274 74q26 -108 110 -178q85 -70 209 -71t183 48q59 50 59 114t-32 100q-61 66 -215 112
q-278 77 -402 178q-129 110 -129 275q0 164 151 287q151 124 362 124q210 0 361 -108t193 -277l-274 -76h-16q-25 101 -101 157q-77 56 -178 56q-100 0 -158 -43t-59 -95zM731 1972l209 -117l-242 -362l-178 102z" />
    <glyph glyph-name="glyph266" horiz-adv-x="1435" 
d="M1137 739v-233h-283v-506h-283v506h-276v233h219l-494 695h320l295 -412q74 -107 80 -104h2q7 0 80 104l293 412h321l-496 -695h222z" />
    <glyph glyph-name="glyph267" horiz-adv-x="1435" 
d="M1137 739v-233h-283v-506h-283v506h-276v233h219l-494 695h320l295 -412q74 -107 80 -104h2q7 0 80 104l293 412h321l-496 -695h222zM1047 1708l-488 -211l-84 152l473 254z" />
    <glyph glyph-name="glyph268" horiz-adv-x="1435" 
d="M1137 739v-233h-283v-506h-283v506h-276v233h219l-494 695h320l295 -412q74 -107 80 -104h2q7 0 80 104l293 412h321l-496 -695h222zM707 1700l-244 -203l-139 141l383 326l380 -326l-137 -141z" />
    <glyph glyph-name="glyph269" horiz-adv-x="1435" 
d="M1137 739v-233h-283v-506h-283v506h-276v233h219l-494 695h320l295 -412q74 -107 80 -104h2q7 0 80 104l293 412h321l-496 -695h222zM971 1571v-2q-57 0 -99 37q-38 37 -38 94t38 96t96 39t97 -39t39 -95t-40 -93t-93 -37zM442 1569v-2q-57 0 -98 37q-39 37 -39 94t39 96
t96 39q56 0 96 -39t40 -95t-41 -93q-40 -37 -93 -37z" />
    <glyph glyph-name="glyph270" horiz-adv-x="1435" 
d="M1137 739v-233h-283v-506h-283v506h-276v233h219l-494 695h320l295 -412q74 -107 80 -104h2q7 0 80 104l293 412h321l-496 -695h222zM905 1649l-82 -152l-489 211l100 195z" />
    <glyph glyph-name="glyph271" horiz-adv-x="1443" 
d="M719 256h600v-264h-1198v264l710 784q23 27 50 51q26 25 32 31l31 31l14 12l-2 2h-813v267h1178v-267l-692 -782q-121 -131 -121 -135l2 -2l6 2l55 2q78 4 148 4zM836 1964l208 -117l-241 -362l-178 102z" />
    <glyph glyph-name="glyph272" horiz-adv-x="1548" 
d="M826 248q110 0 216 59t158 154l287 -76q-90 -188 -266 -303q-177 -115 -423 -115q-132 0 -268 54q-277 111 -397 391q-57 135 -57 298t59 303q117 278 397 392q136 55 268 55q233 0 407 -102q175 -102 266 -275l-291 -75l-6 -9q-60 82 -158 128q-98 47 -200 47
q-205 1 -328 -131q-123 -131 -121 -334q1 -103 35 -191t92 -145q124 -125 330 -125zM913 1964l209 -117l-241 -362l-179 102z" />
    <glyph glyph-name="glyph273" horiz-adv-x="1374" 
d="M332 1434h903l2 -822q0 -305 -174 -479q-82 -82 -200 -124q-117 -42 -237 -42q-324 0 -513 221q-57 66 -88 148l280 76q39 -84 116 -129t183 -45q166 0 256 99t90 273v557h-618v267z" />
    <glyph glyph-name="glyph274" horiz-adv-x="1005" 
d="M645 250h283v-250h-850v250h282v934h-274v250h834v-250h-275v-934z" />
    <glyph glyph-name="glyph275" horiz-adv-x="1005" 
d="M645 250h283v-250h-850v250h282v934h-274v250h834v-250h-275v-934zM840 1708l-488 -211l-84 152l473 254z" />
    <glyph glyph-name="glyph276" horiz-adv-x="1005" 
d="M645 250h283v-250h-850v250h282v934h-274v250h834v-250h-275v-934zM500 1700l-244 -203l-139 141l383 326l381 -326l-138 -141z" />
    <glyph glyph-name="glyph277" horiz-adv-x="1005" 
d="M645 250h283v-250h-850v250h282v934h-274v250h834v-250h-275v-934zM764 1571v-2q-59 0 -98 37t-39 94t39 96t96 39t96 -39t39 -95t-39 -93t-94 -37zM236 1569v-2q-59 0 -99 37q-39 37 -39 94t39 96t97 39t96 -39q39 -39 39 -95t-39 -93t-94 -37z" />
    <glyph glyph-name="glyph278" horiz-adv-x="1005" 
d="M645 250h283v-250h-850v250h282v934h-274v250h834v-250h-275v-934zM506 1569h-4q-55 0 -94 39t-39 95t40 96t96 40t95 -39t39 -96t-39 -96t-94 -39z" />
    <glyph glyph-name="glyph279" horiz-adv-x="1005" 
d="M645 250h283v-250h-850v250h282v934h-274v250h834v-250h-275v-934zM698 1649l-82 -152l-489 211l100 195z" />
    <glyph glyph-name="glyph280" horiz-adv-x="2351" 
d="M1927 610v824h285l2 -822q0 -301 -174 -479q-82 -82 -200 -124t-238 -42q-324 0 -512 221q-57 66 -89 148l281 76q85 -174 299 -174q168 0 257 99t89 273zM647 1174v-934h283v-248h-850v248h282v934h-274v249h834v-249h-275z" />
    <glyph glyph-name="glyph281" horiz-adv-x="2344" 
d="M1303 1434h903l2 -822q0 -305 -174 -479q-82 -82 -200 -124t-238 -42q-325 0 -513 221q-57 66 -88 148l281 76q39 -84 116 -129t183 -45q166 0 256 99t90 273v557h-618v267zM647 1174v-934h283v-248h-850v248h282v934h-274v249h834v-249h-275z" />
    <glyph glyph-name="glyph282" horiz-adv-x="1966" 
d="M922 1434h903l2 -822q0 -305 -174 -479q-82 -82 -200 -124q-117 -42 -237 -42q-321 0 -514 221q-57 66 -88 148l281 76q39 -84 116 -129t183 -45q166 0 256 99t90 273v557h-618v267zM172 -8v1431h285v-1431h-285z" />
    <glyph glyph-name="glyph283" horiz-adv-x="1005" 
d="M645 250h283v-250h-850v250h282v934h-274v250h834v-250h-275v-934zM920 1798v-221h-834v221h834z" />
    <glyph glyph-name="glyph284" horiz-adv-x="1005" 
d="M18 -171q0 91 66 171h-6v250h282v934h-274v250h834v-250h-275v-934h283v-250h-463q-92 0 -164 -41q-86 -46 -86 -139q0 -55 40 -97t116 -42q127 0 190 124l150 -94q-51 -100 -143 -155q-158 -94 -339 -33q-211 73 -211 306z" />
    <glyph glyph-name="glyph285" horiz-adv-x="1374" 
d="M332 1434h903l2 -822q0 -305 -174 -479q-82 -82 -200 -124q-117 -42 -237 -42q-324 0 -513 221q-57 66 -88 148l280 76q39 -84 116 -129t183 -45q166 0 256 99t90 273v557h-618v267z" />
    <glyph glyph-name="glyph286" horiz-adv-x="1374" 
d="M332 1434h903l2 -822q0 -305 -174 -479q-82 -82 -200 -124q-117 -42 -237 -42q-324 0 -513 221q-57 66 -88 148l280 76q39 -84 116 -129t183 -45q166 0 256 99t90 273v557h-618v267zM762 1690l-244 -203l-139 141l383 326l381 -326l-137 -141z" />
    <glyph glyph-name="glyph287" horiz-adv-x="1589" 
d="M1135 1434h284l-4 -1438h-285v489l-364 299q-75 64 -139 122q-63 58 -89 80l-39 36t-20 16l-28 25h-2l2 -25v-1040h-285v1432h268l453 -390q65 -56 103 -88t54 -46t34 -26q18 -13 24 -20l35 -29h2l-4 302v301z" />
    <glyph glyph-name="glyph288" horiz-adv-x="1589" 
d="M1135 1434h284l-4 -1434h-268l-408 551q-49 63 -98 135t-99 140t-63 85l-26 39h-2v-950h-285v1432h268l416 -560q8 -10 27 -36t70 -94q52 -68 155 -214l31 -41h2v947zM895 1970l209 -117l-242 -362l-178 102z" />
    <glyph glyph-name="glyph289" horiz-adv-x="1589" 
d="M1135 1434h284l-4 -1438h-285v489l-364 299q-75 64 -139 122q-63 58 -89 80l-39 36t-20 16l-28 25h-2l2 -25v-1040h-285v1432h268l453 -390q65 -56 103 -88t54 -46t34 -26q18 -13 24 -20l35 -29h2l-4 302v301zM897 1966l209 -117l-242 -362l-178 102z" />
    <glyph glyph-name="glyph290" horiz-adv-x="1589" 
d="M1135 1434h284l-4 -1438h-285v489l-364 299q-75 64 -139 122q-63 58 -89 80l-39 36t-20 16l-28 25h-2l2 -25v-1040h-285v1432h268l453 -390q65 -56 103 -88t54 -46t34 -26q18 -13 24 -20l35 -29h2l-4 302v301zM1030 1896l98 -194l-487 -211l-84 151z" />
    <glyph glyph-name="glyph291" horiz-adv-x="1589" 
d="M799 1483l-383 325l139 142l244 -203l243 203l138 -142zM1419 1434v-1434h-284v492l-365 299q-78 66 -140 120t-75 65q-14 11 -40 34t-36 30l-28 25h-2v-1067h-285v1432h268l453 -390q123 -106 135 -117t78 -65l35 -29h2q0 31 -3 117t-2 184l5 304h284z" />
    <glyph glyph-name="glyph292" horiz-adv-x="1589" 
d="M938 -225q0 -175 -197 -344h-100q56 36 83 87q52 99 52 142l25 8l-27 8q-32 2 -66 34t-34 86t39 91q41 37 93 37t92 -40t40 -109zM1133 1438h284l-4 -1438h-285v489l-364 299q-75 64 -136 119q-61 56 -77 70l-102 90h-3l3 -25v-1042h-285v1434h268l453 -390
q65 -56 103 -88t54 -46t34 -26q18 -13 24 -20l35 -28h2l-4 301v301z" />
    <glyph glyph-name="glyph293" horiz-adv-x="1589" 
d="M1135 1434h284l-4 -1438h-285v489l-364 299q-75 64 -139 122q-63 58 -89 80l-39 36t-20 16l-28 25h-2l2 -25v-1040h-285v1432h268l453 -390q65 -56 103 -88t54 -46t34 -26q18 -13 24 -20l35 -29h2l-4 302v301zM1028 1804h223l-8 -4q0 -186 -174 -258q-49 -20 -109 -20
t-99 18q-40 18 -90 48q-49 30 -67 41t-56 11t-64 -24t-27 -66h-223q0 125 86 207t207 80q88 0 176 -61q29 -20 63 -40t71 -22q39 0 65 24t26 66z" />
    <glyph glyph-name="glyph294" horiz-adv-x="1644" 
d="M1268 713q0 202 -124 336q-124 133 -322 133q-199 0 -322 -127q-125 -134 -125 -338l-2 -8q0 -207 124 -335t322 -128q199 0 324 132q125 133 125 335zM815 1452q154 0 290 -55q279 -113 396 -389q59 -141 59 -304q1 -324 -217 -534q-100 -98 -237 -152t-289 -55
q-152 0 -287 54q-277 111 -397 391q-57 135 -57 301l-6 -4q0 160 59 300q117 278 397 392q135 55 289 55zM926 1960l209 -117l-242 -362l-178 102z" />
    <glyph glyph-name="glyph295" horiz-adv-x="1695" 
d="M375 731v-2q0 -203 125 -327q125 -123 313 -122q189 1 319 123t130 326t-131 327q-131 122 -319 122q-189 0 -310 -121q-59 -57 -93 -143t-34 -183zM1540 279h86l-4 -279h-807q-311 0 -526 208t-215 527q0 158 59 294q119 274 395 388q135 55 289 55t290 -54
q279 -114 396 -388q59 -136 59 -286q1 -293 -194 -476l2 -2q2 0 39 6t131 7z" />
    <glyph glyph-name="glyph296" horiz-adv-x="1245" 
d="M383 1072q0 -52 37 -92t178 -93l129 -43q66 -20 155 -62q173 -81 253 -213q41 -72 41 -168t-39 -174q-82 -165 -283 -227q-98 -33 -223 -33q-229 0 -379 116t-207 312l274 74q26 -108 110 -178q85 -70 209 -71t183 48q59 50 59 114t-32 100q-61 66 -215 112
q-278 77 -402 178q-129 110 -129 275q0 164 151 287q151 124 362 124q210 0 361 -108t193 -277l-274 -76h-16q-25 101 -101 157q-77 56 -178 56q-100 0 -158 -43t-59 -95zM731 1972l209 -117l-242 -362l-178 102z" />
    <glyph glyph-name="glyph297" horiz-adv-x="1435" 
d="M1137 739v-233h-283v-506h-283v506h-276v233h219l-494 695h320l295 -412q74 -107 80 -104h2q7 0 80 104l293 412h321l-496 -695h222z" />
    <glyph glyph-name="glyph298" horiz-adv-x="1435" 
d="M1137 739v-233h-283v-506h-283v506h-276v233h219l-494 695h320l295 -412q74 -107 80 -104h2q7 0 80 104l293 412h321l-496 -695h222zM1047 1708l-488 -211l-84 152l473 254z" />
    <glyph glyph-name="glyph299" horiz-adv-x="1435" 
d="M1137 739v-233h-283v-506h-283v506h-276v233h219l-494 695h320l295 -412q74 -107 80 -104h2q7 0 80 104l293 412h321l-496 -695h222zM707 1700l-244 -203l-139 141l383 326l380 -326l-137 -141z" />
    <glyph glyph-name="glyph300" horiz-adv-x="1435" 
d="M1137 739v-233h-283v-506h-283v506h-276v233h219l-494 695h320l295 -412q74 -107 80 -104h2q7 0 80 104l293 412h321l-496 -695h222zM971 1571v-2q-57 0 -99 37q-38 37 -38 94t38 96t96 39t97 -39t39 -95t-40 -93t-93 -37zM442 1569v-2q-57 0 -98 37q-39 37 -39 94t39 96
t96 39q56 0 96 -39t40 -95t-41 -93q-40 -37 -93 -37z" />
    <glyph glyph-name="glyph301" horiz-adv-x="1435" 
d="M1137 739v-233h-283v-506h-283v506h-276v233h219l-494 695h320l295 -412q74 -107 80 -104h2q7 0 80 104l293 412h321l-496 -695h222zM905 1649l-82 -152l-489 211l100 195z" />
    <glyph glyph-name="glyph302" horiz-adv-x="1443" 
d="M719 256h600v-264h-1198v264l710 784q23 27 50 51q26 25 32 31l31 31l14 12l-2 2h-813v267h1178v-267l-692 -782q-121 -131 -121 -135l2 -2l6 2l55 2q78 4 148 4zM836 1964l208 -117l-241 -362l-178 102z" />
    <glyph glyph-name="glyph326" horiz-adv-x="1468" 
d="M736 246q183 0 271 135q89 135 89 333t-76 312l-451 -735l4 -6q70 -39 163 -39zM736 1176q-179 0 -271 -136q-86 -120 -86 -320q0 -199 74 -321l452 736h-4q-72 41 -165 41zM733 1456v-4q152 0 277 -59q241 -114 336 -396q45 -133 45 -289q0 -311 -174 -524
q-82 -100 -208 -158t-276 -58q-151 0 -275 56q-252 116 -339 398q-43 135 -43 289q0 324 172 526q86 103 210 161t275 58z" />
    <glyph glyph-name="glyph327" horiz-adv-x="776" 
d="M389 1145v-2q81 0 129 67q47 67 47 159q0 91 -47 157t-127 66t-127 -66t-47 -157t47 -158q46 -66 125 -66zM389 952v-2q-162 0 -265 117q-104 117 -104 298q0 182 104 298q104 117 269 117q166 0 260 -117q101 -118 101 -297t-101 -297q-96 -117 -264 -117z" />
    <glyph glyph-name="glyph328" horiz-adv-x="722" 
d="M311 1276h107l-4 131l4 111h-2q-2 0 -18 -22t-44 -56l-96 -113q-14 -15 -34 -35t-19 -22l2 -2l4 2l29 2q40 4 71 4zM670 1276v-154h-90v-153h-166v153h-398v127l422 514h142v-487h90z" />
    <glyph glyph-name="glyph329" horiz-adv-x="690" 
d="M344 1495q137 0 217 -74t80 -192q0 -185 -178 -256q-53 -21 -119 -21q-119 -1 -205 66q-86 66 -98 160l164 45q8 -45 40 -79t90 -34t97 35q37 35 37 90t-38 89t-95 34q-86 0 -121 -68l-152 41l74 432h455v-161h-322l-8 -35q-16 -65 -26 -87t-9 -24l2 -2l-2 -4
q39 45 117 45z" />
    <glyph glyph-name="glyph330" horiz-adv-x="688" 
d="M329 1356q-61 0 -97 -33t-36 -90t37 -90q36 -33 99 -33l-2 -6q57 0 93 33t38 92t-35 93t-97 34zM370 1493q115 0 189 -75t75 -192t-81 -195q-82 -79 -218 -80t-226 76q-89 77 -89 202q0 92 33 161t92 146l170 223h191l-225 -297l2 -4q35 35 87 35z" />
    <glyph glyph-name="glyph331" horiz-adv-x="632" 
d="M20 1604v161h603l2 -104l-383 -692h-183l283 510q32 57 58 91t26 36l-2 2l-145 -4h-259z" />
    <glyph glyph-name="glyph332" horiz-adv-x="649" 
d="M186 1198h-2q0 -49 39 -80t99 -31t100 31q39 31 39 78t-39 78q-41 31 -98 31q-58 0 -98 -31t-40 -76zM203 1567h-4q-1 -39 33 -68t87 -24q53 1 87 25t34 65t-34 65t-84 25q-51 -1 -85 -25t-34 -63zM313 954q-129 0 -216 69t-87 161t51 141q51 50 113 68v2q-14 2 -38 18
q-80 54 -82 154q-1 100 74 158q75 59 190 59t190 -58q74 -58 75 -146q1 -87 -45 -133t-79 -54v-2q57 -16 102 -62q55 -51 55 -144t-87 -162t-216 -69z" />
    <glyph glyph-name="glyph333" horiz-adv-x="661" 
d="M326 1628v-2q-56 0 -96 -35t-41 -90t36 -90t99 -35t100 35q37 35 37 92t-38 91t-97 34zM291 1231q-117 0 -193 77t-77 195t90 201q76 72 213 73t226 -76t89 -202q0 -157 -137 -321l-174 -209h-201l254 293l-8 2q-29 -33 -82 -33z" />
    <glyph glyph-name="glyph334" 
d="M408 710q0 -298 149 -415q59 -47 151 -47q164 0 244 164q57 122 59 304q1 182 -57 302q-75 164 -241 164l-6 -8q-90 0 -150 -48q-149 -118 -149 -416zM707 1454l-2 -4q287 0 452 -233q76 -107 110 -243q66 -266 -1 -542q-33 -133 -109 -239t-186 -170q-113 -61 -265 -61
t-265 62q-223 124 -293 402q-70 277 -3 553q33 133 109 239q168 236 453 236z" />
    <glyph glyph-name="glyph335" 
d="M657 1016h-2q-20 -24 -32 -40q-12 -15 -39 -42l-146 -146l-176 170l475 476h201v-1168h340v-264h-971v266h344v596l6 129v23z" />
    <glyph glyph-name="glyph336" 
d="M879 264h329v-264h-1034v231q205 177 305 265t305 264q136 118 136 241q0 85 -62 147t-166 62q-150 0 -227 -135q-21 -35 -33 -76l-262 70l-8 -10q91 283 346 366q90 29 194 29q219 0 363 -129q143 -129 143 -321q0 -193 -118 -330q-78 -90 -246 -207l-105 -74
q-20 -14 -67 -48t-97 -69l-26 -18l2 -2l10 2l80 2q115 4 238 4z" />
    <glyph glyph-name="glyph337" 
d="M1100 1327q131 -114 131 -267q0 -152 -96 -241q-77 -73 -193 -86v-2q123 0 213 -82q98 -93 96 -233q0 -203 -149 -326q-148 -123 -372 -123q-108 0 -200 29q-188 60 -292 211q-53 74 -74 162l258 71q26 -100 102 -158t188 -58t178 58t66 150t-67 141q-68 49 -184 50h-123
v225h123q115 0 174 49q57 49 57 128t-58 131t-166 52t-171 -52q-62 -52 -95 -159l-256 70l-8 -14q44 180 186 287q142 108 364 108t368 -121z" />
    <glyph glyph-name="glyph338" 
d="M440 541h412l4 176v299l2 31h-2l-14 -19q-40 -49 -73 -94q-34 -45 -58 -74l-176 -207q-45 -55 -72 -84l-23 -26v-2zM1292 543v-248h-168v-293h-268v293h-733v211l770 930h231v-893h168z" />
    <glyph glyph-name="glyph339" 
d="M1145 1434v-267h-590l-16 -88q-25 -123 -35 -161t-10 -41l2 -3l2 -4q20 20 75 42t151 22t192 -35q196 -71 278 -248q41 -89 41 -195q0 -208 -150 -347q-144 -140 -365 -140q-220 0 -364 109t-182 262l260 70q17 -79 84 -138q68 -59 178 -59t182 71q72 70 70 182
q0 112 -69 181t-181 72q-178 0 -233 -127l-246 67l127 775h799z" />
    <glyph glyph-name="glyph340" 
d="M716 725q-122 0 -195 -70t-73 -182q0 -111 76 -181t193 -70q118 0 195 70t79 184t-75 182q-78 68 -200 67zM1264 459q0 -107 -43 -197q-82 -174 -293 -254q-104 -35 -216 -35t-216 33q-212 67 -295 256q-43 92 -43 192q0 222 141 441q41 66 96 139l303 400h310l-408 -539
l2 -2q66 66 177 66q221 -1 353 -148q132 -146 132 -352z" />
    <glyph glyph-name="glyph341" 
d="M225 1434h1073l-6 -172l-710 -1266h-306l492 864q22 40 93 153t79 126l18 26l-2 2h-731v267z" />
    <glyph glyph-name="glyph342" 
d="M717 193q123 0 197 61q74 60 73 158q0 98 -76 155q-75 57 -197 57t-197 -58t-75 -154l2 -2q0 -98 74 -158q76 -59 199 -59zM718 879q105 0 170 52q64 52 64 134t-68 134t-171 52q-102 0 -168 -53t-66 -135l-2 -6q0 -80 68 -129t173 -49zM1237 383q0 -86 -39 -165
q-79 -159 -285 -226q-96 -33 -215 -33t-221 33q-205 66 -284 229q-41 82 -41 164q0 147 92 245q92 97 215 120v2q-27 2 -70 28q-84 52 -139 160q-27 53 -27 130t37 149q74 144 254 204q88 31 192 31q209 0 347 -113q63 -51 100 -123t37 -147q0 -121 -90 -225
q-33 -38 -75 -62t-71 -28v-2l-22 -4q117 -20 209 -115q96 -105 96 -252z" />
    <glyph glyph-name="glyph343" 
d="M855 774q77 68 77 182t-73 184t-197 70l-5 -4q-117 0 -197 -68t-79 -183q0 -116 78 -182t199 -66q120 -1 197 67zM595 473q-230 0 -359 142t-128 355t160 357q156 133 396 133q239 0 393 -131q160 -136 160 -392t-252 -552l-332 -387h-326l467 534l-6 5q-53 -64 -173 -64
z" />
    <glyph glyph-name="glyph344" 
d="M712 248q167 0 242 164q57 122 59 281q1 159 -38 278l-414 -672v-4q60 -47 151 -47zM1307 705q0 -133 -34 -269q-70 -281 -296 -413q-113 -61 -265 -61t-265 62q-224 125 -295 410q-35 138 -35 272q0 308 143 513q168 235 453 235l-2 -4q287 0 452 -233q76 -107 110 -243
t34 -269zM414 713q0 -160 45 -275l418 679q-75 57 -164 58t-149 -47q-150 -120 -150 -415z" />
    <glyph glyph-name="glyph345" horiz-adv-x="774" 
d="M388 809q86 0 128 68q47 67 47 150t-31 138l-208 -338l-2 -4q28 -14 66 -14zM387 1253q-80 1 -127 -65t-47 -150t33 -141l211 340q-37 16 -70 16zM387 1446v-2q170 0 264 -117q101 -118 101 -297t-101 -297q-96 -117 -261 -117t-268 117q-104 117 -104 298q0 182 104 298
q103 117 265 117z" />
    <glyph glyph-name="glyph346" horiz-adv-x="774" 
d="M388 168q86 0 128 68q47 67 47 150t-31 138l-208 -338l-2 -4q28 -14 66 -14zM387 612q-80 0 -127 -66t-47 -149q0 -84 33 -141l211 340q-37 16 -70 16zM387 805v-2q170 0 264 -117q101 -118 101 -297t-101 -297q-94 -115 -264 -115q-81 0 -149 30q-135 59 -193 216
q-27 74 -27 166q0 183 104 299q103 117 265 117z" />
    <glyph glyph-name="glyph347" horiz-adv-x="774" 
d="M388 1141q85 0 128 67q47 67 47 151q0 83 -31 138l-208 -338l-2 -4q28 -14 66 -14zM387 1585q-80 1 -127 -65t-47 -150t33 -141l211 340q-37 16 -70 16zM387 1778v-2q170 0 264 -117q101 -118 101 -297t-101 -297q-96 -117 -261 -117t-268 117q-104 117 -104 298
q0 182 104 298q103 117 265 117z" />
    <glyph glyph-name="glyph348" horiz-adv-x="776" 
d="M389 176v-2q81 0 128 68q48 68 48 158t-47 157q-49 66 -128 67t-126 -67t-47 -136q0 -69 11 -106q24 -81 89 -120q31 -19 72 -19zM20 395q0 181 104 297q104 117 269 117q166 0 260 -117q101 -118 101 -297t-101 -297q-93 -114 -264 -114q-81 0 -149 30q-135 58 -193 215
q-27 74 -27 166z" />
    <glyph glyph-name="glyph349" horiz-adv-x="514" 
d="M252 0v401q0 37 3 60t5 45l8 53h-2q-4 -1 -18 -25t-49 -55l-60 -55l-116 102l292 269h131l-8 -795h-186z" />
    <glyph glyph-name="glyph350" horiz-adv-x="688" 
d="M494 164h133v-162h-586v123l276 231q47 41 89 86q42 44 43 94q0 50 -32 78t-71 29q-89 0 -127 -86q-14 -39 -16 -45l-164 43q21 97 106 180q91 82 208 81t203 -78q85 -77 85 -193q0 -78 -40 -135t-91 -105q-100 -84 -156 -116q-57 -32 -64 -37q16 0 66 6t138 6z" />
    <glyph glyph-name="glyph351" horiz-adv-x="677" 
d="M475 243q0 45 -36 71t-93 26h-76v131h76q47 0 81 28q34 29 34 65t-28 64t-84 28t-90 -27q-34 -26 -48 -92l-158 43q23 96 101 158t208 62t205 -67q74 -68 74 -174t-109 -145q-31 -12 -57 -13v-2q110 0 162 -98q16 -33 16 -79q0 -105 -84 -175q-78 -67 -201 -67t-217 66
q-93 66 -112 167l160 45q21 -121 155 -121q59 0 90 31t31 75z" />
    <glyph glyph-name="glyph352" horiz-adv-x="722" 
d="M311 305h107l-4 135l4 107h-2q-2 -1 -18 -21t-44 -53l-96 -113q-20 -29 -36 -44t-17 -17l2 -2l4 2l29 2q40 4 71 4zM670 309v-155h-90v-154h-166v154h-398v127l422 514h142v-486h90z" />
    <glyph glyph-name="glyph353" horiz-adv-x="690" 
d="M346 528q137 0 217 -74t80 -194q0 -185 -178 -256q-55 -18 -117 -18q-191 0 -274 137q-25 41 -31 86l164 45q8 -45 40 -79t90 -34t96 34t38 89t-37 90q-39 35 -96 35q-90 0 -123 -70l-152 41l74 433h455v-162h-322l-8 -35q-16 -63 -26 -86t-9 -25l2 -2v-2q54 47 117 47z
" />
    <glyph glyph-name="glyph354" horiz-adv-x="688" 
d="M329 389q-61 0 -97 -33t-36 -92t37 -92q36 -33 99 -33l-2 -4q57 0 96 35q37 35 37 92q2 57 -35 92q-39 35 -99 35zM370 524q108 0 191 -78q72 -72 73 -189t-87 -202q-75 -71 -215 -71q-209 0 -287 159q-25 53 -25 131q0 134 125 293l170 224h191l-225 -295l2 -7
q35 35 87 35z" />
    <glyph glyph-name="glyph355" horiz-adv-x="632" 
d="M20 633v162h603l2 -105l-383 -690h-183l283 508q32 57 58 91t26 36l-2 2l-145 -4h-259z" />
    <glyph glyph-name="glyph356" horiz-adv-x="649" 
d="M186 227h-2q0 -49 39 -80t99 -31t100 32q39 30 39 77t-39 78q-41 31 -98 31q-58 0 -98 -31t-40 -76zM322 684q-51 0 -85 -24t-34 -64l-4 -2q-1 -41 33 -66q34 -24 87 -24t87 24t34 66t-34 66t-84 24zM119 397q31 16 55 23v2q-46 13 -78 55q-41 46 -42 130q-1 85 73 145
q76 59 189 59t189 -56t78 -145q1 -90 -44 -135q-60 -53 -80 -55v-2l-6 -6q62 -12 108 -60q55 -51 55 -144t-86 -161q-86 -67 -217 -67t-217 68t-86 174q0 108 109 175z" />
    <glyph glyph-name="glyph357" horiz-adv-x="661" 
d="M326 653q-128 0 -136 -125q0 -57 36 -91t98 -34t99 34q38 34 38 93t-37 93q-39 34 -98 34v-4zM291 258q-115 0 -192 77t-78 195t90 201q76 72 213 73t226 -76t89 -202q0 -157 -137 -321l-174 -207h-201l254 291l-8 -2q-29 -29 -82 -29z" />
    <glyph glyph-name="glyph358" horiz-adv-x="776" 
d="M389 813v-2q82 0 129 68t47 158q0 91 -47 157t-127 66t-127 -66t-47 -158t47 -157q47 -66 125 -66zM389 621v-3q-162 0 -265 117q-104 117 -104 298q0 182 104 298q104 117 269 117q166 0 260 -117q101 -118 101 -297t-101 -297q-95 -116 -264 -116z" />
    <glyph glyph-name="glyph359" horiz-adv-x="514" 
d="M252 637v401q0 37 3 61t5 44l8 53h-2q-4 0 -14 -18t-53 -60l-60 -57l-116 104l292 269h131l-8 -797h-186z" />
    <glyph glyph-name="glyph360" horiz-adv-x="688" 
d="M494 797h133v-162h-586v123l276 231q47 41 89 86t43 95q0 50 -32 80q-32 28 -71 28q-89 0 -127 -86q-14 -39 -16 -45l-164 43q21 97 106 180q89 80 207 80t204 -77q85 -77 85 -193q0 -78 -39 -134t-91 -101q-51 -44 -105 -81q-54 -38 -86 -56t-33 -20l2 -2l-10 -2
q4 0 65 6t150 7z" />
    <glyph glyph-name="glyph361" horiz-adv-x="704" 
d="M354 778q57 0 90 29q31 29 31 74t-36 71t-93 27h-76v131h76q47 0 81 28t34 64t-28 65q-28 27 -84 27t-90 -26t-48 -92l-158 43q23 97 101 159t208 64q130 0 205 -68q74 -68 74 -174t-109 -145q-31 -12 -57 -13v-2q80 -8 114 -40q64 -60 64 -122q0 -124 -84 -190
q-80 -68 -201 -69t-216 67q-94 68 -113 168l160 43q17 -119 155 -119z" />
    <glyph glyph-name="glyph362" horiz-adv-x="722" 
d="M311 944h107l-4 131l4 111h-2q-2 0 -18 -22t-44 -56l-96 -113q-14 -15 -34 -35t-19 -22l2 -2l4 2l29 2q40 4 71 4zM670 944v-153h-90v-154h-166v154h-398v127l422 514h142v-488h90z" />
    <glyph glyph-name="glyph363" horiz-adv-x="690" 
d="M344 1163q137 1 217 -73t80 -193q0 -185 -178 -256q-53 -20 -119 -20q-120 0 -206 66q-85 66 -97 159l164 45q8 -45 40 -79t90 -34t97 35q37 35 37 90t-38 89t-95 34q-87 0 -121 -68l-152 41l74 433h455v-162h-322l-8 -35q-16 -65 -26 -87t-9 -24l2 -2l-2 -4
q39 45 117 45z" />
    <glyph glyph-name="glyph364" horiz-adv-x="688" 
d="M329 1024q-61 0 -97 -33t-36 -90t37 -90q36 -33 99 -33l-2 -6q57 0 93 33t38 92t-35 93t-97 34zM370 1161q108 0 191 -78q72 -72 73 -189t-81 -195q-82 -79 -218 -80q-135 -1 -225 76t-90 202q0 92 33 161t92 146l170 223h191l-225 -297l2 -4q35 35 87 35z" />
    <glyph glyph-name="glyph365" horiz-adv-x="632" 
d="M20 1272v162h603l2 -105l-383 -692h-183l283 510q32 57 58 91t26 36l-2 2l-145 -4h-259z" />
    <glyph glyph-name="glyph366" horiz-adv-x="649" 
d="M186 866h-2q0 -49 39 -80q39 -30 99 -30t100 30q39 30 39 78q0 47 -39 78q-41 31 -98 31q-58 0 -98 -31t-40 -76zM203 1235h-4q-1 -39 33 -68t87 -24q53 1 87 25t34 65t-34 65t-84 25q-51 -1 -85 -25t-34 -63zM97 692q-87 68 -87 160t51 141q51 50 113 68v2q-14 2 -38 18
q-80 54 -82 154q-1 101 74 159t191 58t189 -58q74 -58 75 -145q1 -88 -45 -134t-79 -54v-2q52 -14 90 -50q67 -64 67 -156q0 -93 -87 -162t-216 -69q-129 2 -216 70z" />
    <glyph glyph-name="glyph367" horiz-adv-x="661" 
d="M326 1296v-2q-57 0 -97 -34q-39 -34 -40 -90t36 -91t99 -35t100 35q37 35 37 92t-37 91q-39 34 -98 34zM291 899q-115 0 -192 77t-78 195t90 201q76 72 213 73t226 -76t89 -202q0 -157 -137 -321l-174 -209h-201l254 293l-8 2q-29 -33 -82 -33z" />
    <glyph glyph-name="glyph368" 
d="M1270 416q0 -162 -112 -277t-296 -145v-168h-284v170q-168 31 -282 138t-163 272l275 73q24 -100 106 -174q88 -74 213 -75q125 -2 183 48t58 114t-32 100q-59 65 -215 112q-71 23 -135 44q-167 54 -267 134q-129 106 -129 262t109 261q116 116 283 143v168h284v-174
q150 -36 251 -136t138 -233l-274 -76l-8 13q-24 100 -100 155q-76 56 -178 57q-101 1 -159 -42q-58 -44 -58 -96t28 -84q29 -32 74 -54t112 -47l129 -43q298 -90 408 -274q41 -72 41 -166z" />
    <glyph glyph-name="glyph369" 
d="M1001 176v-2q85 0 130 67t46 157t-47 159q-42 66 -124 67t-129 -66q-46 -67 -47 -137q-2 -164 100 -226q30 -19 71 -19zM414 811v-2q80 0 128 68t48 158q0 91 -47 157t-127 66t-127 -66t-47 -158t47 -157q47 -66 125 -66zM995 803q173 0 269 -117q100 -117 100 -296
t-97 -296t-268 -117q-71 0 -139 28q-126 52 -188 192q-31 68 -37 147l-164 -348h-188l317 672q-82 -52 -176 -52q-174 -1 -278 116q-103 116 -103 298t102 299q104 117 266 117q161 0 261 -113t106 -286l180 383h187l-311 -664l-3 -4q78 41 164 41z" />
    <glyph glyph-name="glyph370" 
d="M842 -35h-230v201q-179 45 -301 188q-125 158 -125 350q0 193 125 351q122 145 301 188v217h230v-215q129 -29 228 -105t151 -190l-248 -65q-87 125 -244 125q-127 0 -204 -79t-77 -220t78 -223q76 -82 207 -80q184 0 260 157l248 -69l-6 -9q-49 -125 -153 -210
t-240 -113v-199z" />
    <glyph glyph-name="glyph371" 
d="M739 266h531l2 -274h-1084v264q96 20 124 82t16 184l-6 60h-129v225h108l-16 184q-20 183 123 326q186 186 483 123q173 -40 287 -189q59 -76 86 -190l-240 -68q-72 223 -268 215q-93 -8 -147 -74q-54 -67 -46 -163l15 -158h417v-225h-395l4 -51q15 -215 -80 -279l2 -2
l29 2q40 8 184 8z" />
    <glyph glyph-name="glyph372" 
d="M924 479q90 90 90 218t-86 215t-215 87l-2 -6q-125 0 -211 -87t-85 -214t89 -215q84 -80 208 -81t212 83zM1262 687q0 -171 -101 -312l142 -142l-142 -141l-141 141q-140 -100 -310 -100t-313 100l-139 -141l-141 141l139 140q-98 146 -97 321t97 307l-141 140l141 141
l141 -141q140 100 312 100t317 -100l141 141l138 -141l-144 -142q101 -141 101 -312z" />
    <glyph glyph-name="glyph373" 
d="M1264 936v-186h-349l-47 -68h396v-188h-414v-494h-283v494h-405v188h387l-47 68h-340v186h207l-353 498h320l295 -412q74 -107 80 -104h2q7 0 80 104l292 412h322l-354 -498h211z" />
    <glyph glyph-name="glyph374" 
d="M748 -31q-114 0 -220 36q-212 71 -340 267q-61 96 -92 215h-96v189h70v69h-70v187h96q62 240 240 380t408 140t382 -101t238 -276l-277 -69q-53 90 -142 139t-203 49t-211 -61t-144 -197h401v-186h-434v-70h432v-188h-397q45 -130 141 -192t214 -62t221 59
q102 60 151 166l270 -70l-4 -6q-80 -195 -240 -307t-394 -111z" />
    <glyph glyph-name="glyph375" 
d="M252 1217v217h981v-217h-252l2 -3q30 -30 53 -100h197v-211h-176q-19 -154 -121 -260t-264 -139l377 -504h-328l-367 498v211h174q94 0 152 55q57 55 74 139h-504v211h469q-71 103 -191 103h-276z" />
    <glyph glyph-name="glyph414" horiz-adv-x="528" 
d="M264 260q-57 0 -98 41t-41 98t41 99t98 41q57 0 98 -41q41 -40 41 -98t-41 -99t-98 -41zM264 868q-57 0 -98 41t-41 99t41 98q41 41 98 41t98 -41t41 -98q0 -56 -41 -98t-98 -42z" />
    <glyph glyph-name="glyph415" horiz-adv-x="563" 
d="M295 530q57 0 98 -44t41 -101q0 -102 -59 -209q-65 -109 -146 -170h-106q47 34 94 111t47 139l27 8l-33 -2q-41 4 -75 38q-33 34 -33 92t44 98t101 40zM291 858q-57 0 -98 41t-41 98t41 99t98 41q57 0 98 -41q41 -40 41 -98t-41 -99t-98 -41z" />
    <glyph glyph-name="glyph470" horiz-adv-x="1605" 
d="M1436 168h-90v-4q-383 0 -443 35q-14 10 -24 18l-82 68l-78 -68q-33 -26 -108 -38q-75 -11 -355 -11h-88v88q0 394 30 440q10 16 19 27l70 80l-70 78q-38 38 -43 189q-4 151 -4 276v90h88q391 0 444 -34q14 -9 23 -18l78 -71l35 33l41 34q10 8 32 24q40 30 435 30h90v-91
q0 -376 -35 -442q-8 -16 -19 -24l-45 -54l-22 -24l74 -86q5 -9 16 -27t21 -147t10 -279v-92zM618 358l183 162l176 -162q27 -4 107 -7t169 -7q-4 86 -6 160t-6 104l-166 187l166 182q4 35 6 107t6 167q-220 -6 -268 -12l-186 -166l-181 166q-55 7 -272 12q5 -219 12 -272
l162 -182l-162 -183q-9 -141 -12 -272q96 4 166 6t106 10zM1114 -6q-55 0 -55 51q0 29 19 44t40 15t33 -4l-8 -24l-8 -2q-6 6 -19 6q-27 0 -28 -33t30 -33q12 0 19 6l6 -22q-16 -4 -29 -4zM1194 -6q-53 0 -53 51q0 57 57 57t57 -57l-8 4q0 -55 -53 -55zM195 18q16 0 16 11
q0 6 -18 12q-31 8 -31 31q0 14 17 27t50 5h35l15 -47l16 47h33l-35 -67v-39h-29v39l-28 55l-5 -16v-2q-10 10 -23 10t-13 -6t22 -17q29 -10 29 -30q0 -33 -51 -33q-16 0 -33 4l8 25q9 -9 25 -9zM338 -2v106h37l33 -65v65h26v-106h-31l-38 70v-70h-27zM473 82h-29v22h84v-22
h-28v-84h-27v84zM569 104v-41h37v41h29v-106h-29v41h-37v-41h-30v106h30zM680 -2l-35 106h33l18 -79l21 79h31l-35 -106h-33zM788 104v-106h-30v106h30zM874 39h-38v-21h43v-20h-74v106h74v-22h-43v-21h38v-22zM913 -2l-26 106h31l14 -73l12 73h31l12 -73l14 73h29l-26 -106
h-33l-13 70l-14 -70h-31zM1352 -2v80l-23 -78h-20l-23 78v-80h-31l9 106h39l16 -69l18 69h39l4 -106h-28zM1167 50q0 -34 24 -34q23 0 23 34t-24 34t-23 -34zM1032 -4q-12 0 -12 11t12 11t12 -11t-12 -11z" />
  </font>
</defs>
</svg>
