<?xml version="1.0" standalone="no"?>
<!DOCTYPE svg PUBLIC "-//W3C//DTD SVG 1.1//EN" "http://www.w3.org/Graphics/SVG/1.1/DTD/svg11.dtd" >
<svg xmlns="http://www.w3.org/2000/svg">
<metadata>
Created by FontPrep 20130207 at Mon Oct  3 12:16:34 2016
 By Nico Watine
Copyright 2012 Adobe Systems Incorporated. All rights reserved.
</metadata>
<defs>
<font id="76f2e31c7d10652785782dc2e65e77e1" horiz-adv-x='1024' >
  <font-face 
    font-family="Novecento-Normal"
    font-weight="400"
    font-stretch="normal"
    units-per-em="2048"
    panose-1="2 0 5 3 0 0 0 0 0 0"
    ascent="1729"
    descent="-319"
    x-height="1432"
    cap-height="1434"
    bbox="16 -479 1808 1841"
    underline-thickness="145"
    underline-position="-195"
    unicode-range="U+0020-00BE"
  />
<missing-glyph horiz-adv-x="1024" 
 />
    <glyph glyph-name=".notdef" horiz-adv-x="1024" 
 />
    <glyph glyph-name=".null" horiz-adv-x="0" 
 />
    <glyph glyph-name="nonmarkingreturn" horiz-adv-x="681" 
 />
    <glyph glyph-name="space" unicode=" " horiz-adv-x="473" 
 />
    <glyph glyph-name="exclam" unicode="!" horiz-adv-x="518" 
d="M178 0v322h164v-322h-164zM178 469v965h164v-965h-164z" />
    <glyph glyph-name="quotedbl" unicode="&#x22;" horiz-adv-x="835" 
d="M500 989v445h159v-445h-159zM178 989v445h160v-445h-160z" />
    <glyph glyph-name="numbersign" unicode="#" horiz-adv-x="1650" 
d="M930 520l192 416h-420l-188 -416h416zM1526 936h-244l-190 -416h239l-65 -141h-238l-172 -379h-166l174 379h-415l-173 -379h-163l174 379h-226l68 141h223l191 416h-224l68 141h221l164 357h158l-162 -357h420l164 357h155l-161 -357h245z" />
    <glyph glyph-name="dollar" unicode="$" horiz-adv-x="1128" 
d="M547 1307q-127 1 -207 -61t-80 -167q0 -55 31 -100t82 -72q48 -30 195 -89q148 -58 209 -87q145 -69 229 -199q41 -72 41 -154q0 -170 -111 -282q-111 -107 -299 -127v-159h-160v161q-178 20 -282 131t-134 271l158 43q16 -126 109 -215q90 -90 238 -89t232 70
q85 69 85 185q0 72 -37 120q-37 53 -94 86q-59 39 -109 57t-93 37q-44 19 -58 25t-23 10q-49 24 -85 38q-168 63 -247 196q-37 61 -37 137q0 77 29 143q58 133 199 197q72 35 157 43v160h160v-162q154 -20 258 -116t135 -244l-155 -43l-9 -11q-25 127 -112 197
q-88 70 -215 70z" />
    <glyph glyph-name="percent" unicode="%" horiz-adv-x="1693" 
d="M1329 102q101 0 159 83t58 215t-58 215t-158 83t-160 -83q-58 -83 -58 -215t58 -215t159 -83zM1329 -14v-6q-72 0 -139 28q-124 63 -172 219q-25 76 -25 168q0 181 92 299q92 119 243 119t245 -117q92 -118 92 -297t-92 -299q-43 -55 -105 -86q-67 -28 -139 -28zM365 729
q100 0 158 83q59 83 59 215t-58 215t-159 83t-159 -83t-58 -215t58 -215q59 -83 159 -83zM326 -4l923 1431h117l-922 -1431h-118zM365 604q-153 0 -245 119q-93 119 -92 300q1 182 93 300q92 117 244 117t244 -119q93 -119 92 -297q-1 -179 -93 -297q-92 -117 -243 -117v-6z
" />
    <glyph glyph-name="ampersand" unicode="&#x26;" horiz-adv-x="1363" 
d="M922 489v185l-336 -4q-160 -2 -250 -72t-90 -197t91 -205q91 -79 238 -79q190 0 269 96q78 96 78 276zM555 1315q-140 0 -219 -86q-57 -57 -57 -170t77 -178q94 -76 234 -76h733v-135l-262 -6v-189q0 -377 -270 -475q-94 -37 -215 -37q-352 0 -463 248q-35 82 -35 166
q0 221 190 321q49 27 113 33v2q-98 14 -185 101t-85 225q1 83 27 151q57 147 220 211q78 33 197 33q178 0 301 -99t164 -290l-143 -39q-68 289 -322 289z" />
    <glyph glyph-name="quotesingle" unicode="'" horiz-adv-x="514" 
d="M178 989v445h160v-445h-160z" />
    <glyph glyph-name="parenleft" unicode="(" horiz-adv-x="710" 
d="M90 713q0 445 148 704q68 123 159 197q93 73 199 112l49 -153l-2 -2q-209 -72 -299 -287q-90 -221 -90 -572t90 -573q90 -213 299 -284l-49 -152q-504 176 -504 1010z" />
    <glyph glyph-name="parenright" unicode=")" horiz-adv-x="714" 
d="M119 1726q504 -188 504 -1014q0 -440 -146 -704q-136 -225 -358 -303l-49 152q209 72 299 284q90 221 90 573t-90 572q-90 215 -299 287z" />
    <glyph glyph-name="asterisk" unicode="*" horiz-adv-x="993" 
d="M782 1251l33 -104l-237 -72l151 -215l-88 -65l-145 219l-142 -219l-90 63l150 217l-236 72l33 104l233 -75l-4 258h111l-4 -258z" />
    <glyph glyph-name="plus" unicode="+" 
d="M1104 797v-140h-363v-366h-147v366h-363v140h363v364h145v-364h365z" />
    <glyph glyph-name="comma" unicode="," horiz-adv-x="432" 
d="M102 70q0 46 33 74t74 28t69 -34t27 -102q0 -68 -40 -151t-111 -153h-72q53 46 84 112q31 65 31 125l20 11l-31 -3q-23 -2 -57 23q-27 25 -27 70z" />
    <glyph glyph-name="hyphen" unicode="-" horiz-adv-x="1226" 
d="M178 797h873v-140h-873v140z" />
    <glyph glyph-name="period" unicode="." horiz-adv-x="432" 
d="M217 -25h-2q-41 0 -70 27q-27 27 -27 71q0 45 30 73q28 28 67 28t68 -33t29 -73t-28 -66q-28 -27 -67 -27z" />
    <glyph glyph-name="slash" unicode="/" horiz-adv-x="897" 
d="M39 0l661 1434h156l-651 -1434h-166z" />
    <glyph glyph-name="zero" unicode="0" horiz-adv-x="1335" 
d="M666 1303q-194 0 -312 -170q-104 -169 -103 -422t103 -418q118 -170 312 -170q195 0 311 170q104 169 103 421t-103 419q-117 170 -309 170h-2zM666 1462v-4q269 0 424 -213t155 -526q0 -314 -151 -535q-158 -214 -428 -214q-136 0 -246 56q-214 113 -295 396
q-39 129 -39 293q0 320 156 534q157 213 424 213z" />
    <glyph glyph-name="one" unicode="1" horiz-adv-x="776" 
d="M442 1196h-2l-34 -41q-29 -33 -33 -37l-183 -180l-104 100l399 396h113v-1434h-162v1034l6 140v22z" />
    <glyph glyph-name="two" unicode="2" horiz-adv-x="1101" 
d="M344 152h35q111 4 170 4h475v-156h-926v131q231 219 299 283t299 282q168 155 168 341t-176 257q-49 20 -119 21q-137 1 -217 -73t-110 -189l-152 41l-8 -11q45 175 172 273t320 98t323 -117q129 -115 129 -319q0 -165 -119 -318q-97 -120 -231 -225q-84 -76 -136 -124
t-97 -85t-132 -116l2 -3h9q10 5 22 5z" />
    <glyph glyph-name="three" unicode="3" horiz-adv-x="1146" 
d="M578 1313q-251 0 -318 -260l-147 39l-15 2q41 172 164 271t325 99t328 -114q55 -49 84 -124t29 -152t-27 -135q-54 -115 -163 -169q-55 -25 -105 -27v-2q203 -15 287 -192q29 -68 29 -156t-38 -168q-80 -168 -245 -225q-92 -29 -186 -29t-185 29q-76 20 -149 78
q-138 100 -168 287l147 41q23 -123 115 -204t238 -81q216 0 292 176q20 47 21 115q0 128 -89 196t-235 68h-114v135h114q139 1 223 65t82 178q0 114 -67 181q-82 78 -227 78z" />
    <glyph glyph-name="four" unicode="4" horiz-adv-x="1193" 
d="M776 1001q0 89 6 134q0 29 2 34l2 27h-2l-12 -16q0 -2 -5 -8t-12 -18q-7 -11 -14 -19q-57 -92 -94 -129l-268 -351l-113 -143l2 -4h516l-8 381v112zM1112 508v-146h-180v-362h-156v362h-698v119l725 953h129v-926h180z" />
    <glyph glyph-name="five" unicode="5" horiz-adv-x="1124" 
d="M560 928q212 0 348 -136t135 -343t-136 -351q-61 -66 -147 -98q-86 -37 -188 -37q-198 0 -328 113q-123 108 -158 276l152 39q39 -199 202 -262q61 -23 130 -23q134 0 226 97q93 97 93 246q0 150 -92 253q-91 95 -226 95q-61 -1 -116 -17t-84 -41q-35 -25 -53 -51
t-35 -65l-142 39l127 770h707v-156h-586l-39 -219q-25 -121 -37 -171t-14 -65q28 35 94 71t167 36z" />
    <glyph glyph-name="six" unicode="6" horiz-adv-x="1134" 
d="M591 809q-155 0 -247 -95t-92 -246t87 -249t245 -98l8 -2q148 0 243 95t95 252t-92 250t-247 93zM354 819q92 119 275 119q182 0 321 -139q60 -61 96 -155t36 -196q-1 -205 -140 -346q-62 -63 -158 -99t-197 -36q-205 -1 -349 135q-144 135 -144 351q0 215 111 401
q49 84 84 129l329 449h177l-437 -598z" />
    <glyph glyph-name="seven" unicode="7" horiz-adv-x="1042" 
d="M61 1434h940l-2 -111l-686 -1325h-174l596 1141q3 8 31 54t41 64l12 19l-2 2h-756v156z" />
    <glyph glyph-name="eight" unicode="8" horiz-adv-x="1173" 
d="M586 102q156 0 250 78t94 211t-94 209t-254 76t-250 -77t-90 -204l2 -4q0 -133 93 -211t249 -78zM291 1075h-2q0 -109 83 -177t214 -66q131 1 217 69q84 69 84 179t-83 181t-216 71t-215 -70t-82 -187zM981 647q109 -109 109 -276t-140 -289q-128 -115 -360 -115
q-111 0 -203 30q-192 63 -264 218q-37 76 -37 168q0 91 31 155q62 128 182 185q53 27 111 33v2q-150 18 -234 184q-29 63 -29 138t31 147t90 121q54 50 140 78t181 28q184 0 318 -111q121 -109 121 -253t-98 -244q-87 -76 -164 -86v-6q116 -12 215 -107z" />
    <glyph glyph-name="nine" unicode="9" horiz-adv-x="1146" 
d="M559 1313v-4q-63 0 -130 -23q-128 -44 -183 -174q-27 -59 -27 -145q0 -168 103 -262q88 -84 235 -84t245 90q97 90 97 253t-100 261q-43 43 -110 65t-130 23zM799 594q-92 -115 -284 -115t-329 139q-127 142 -127 354q0 213 140 349q140 135 359 135q220 0 362 -131
q141 -135 141 -367q-1 -135 -59 -272t-191 -309l-293 -379h-180l463 592z" />
    <glyph glyph-name="colon" unicode=":" horiz-adv-x="432" 
d="M217 -25h-2q-41 0 -70 27q-27 27 -27 71q0 45 30 73q28 28 67 28t68 -33t29 -73t-28 -66q-28 -27 -67 -27zM215 608h-2q-41 0 -69 28t-28 72t30 72q28 28 68 29q40 0 68 -33q28 -32 28 -72t-28 -68t-67 -28z" />
    <glyph glyph-name="semicolon" unicode=";" horiz-adv-x="460" 
d="M133 64q0 46 33 76q33 28 74 28q40 0 68 -34t28 -102t-46 -157q-46 -88 -106 -147h-71q16 12 42 45q72 91 72 192l21 10l-31 -2q-27 -2 -57 25q-27 20 -27 66zM231 604h-2q-41 0 -69 28t-27 72q0 44 29 72q28 28 68 29q40 0 68 -33q28 -32 28 -72t-28 -68t-67 -28z" />
    <glyph glyph-name="less" unicode="&#x3c;" 
d="M426 752l649 -502h-209l-655 502l655 499h209z" />
    <glyph glyph-name="equal" unicode="=" 
d="M231 600h873v-139h-873v139zM231 981h873v-139h-873v139z" />
    <glyph glyph-name="greater" unicode="&#x3e;" 
d="M229 250l650 502l-650 499h209l656 -499l-656 -502h-209z" />
    <glyph glyph-name="question" unicode="?" horiz-adv-x="1099" 
d="M440 0v322h168v-322h-168zM440 469v203q106 49 174 92q150 86 199 186q23 54 23 106q0 107 -64 175q-31 35 -90 59t-133 23q-145 0 -221 -70t-111 -192l-139 39q39 180 168 276q133 96 313 96q328 0 424 -245q29 -80 29 -163q0 -147 -123 -270q-86 -86 -281 -178v-137
h-168z" />
    <glyph glyph-name="at" unicode="@" horiz-adv-x="1531" 
d="M965 690v105q0 98 -68 159q-62 52 -162 53t-167 -81t-62 -215q0 -129 68 -204t166 -75q97 0 161 70t64 188zM965 1087h116l-6 -559q0 -59 28 -99t73 -40q46 0 74 27q56 53 70 146q15 94 15 149q0 284 -163 465q-163 180 -410 180q-246 0 -412 -185q-162 -175 -162 -458
t162 -471q72 -84 179 -136t222 -51q189 0 293 62q52 31 66 45t31 26l82 -43q-90 -113 -265 -157q-82 -25 -210 -25t-259 53q-252 111 -354 398q-49 139 -49 302q0 318 188 531q192 209 490 209q299 0 489 -209q193 -210 193 -530q0 -183 -70 -287q-78 -123 -200 -123
q-72 0 -132 47q-55 49 -63 133l-4 2q-22 -67 -100 -127q-37 -28 -73 -40t-96 -12t-125 27q-127 55 -182 208q-25 74 -25 164q1 187 100 302q98 115 253 113q57 0 105 -20q98 -42 129 -111h2v94z" />
    <glyph glyph-name="A" unicode="A" horiz-adv-x="1351" 
d="M696 1184l-18 57h-4q-2 -7 -10 -33l-9 -20l-18 -55q-16 -55 -21 -64l-204 -545h528l-207 543q-4 14 -12 36t-11 37t-9 25q-5 10 -5 19zM1137 0l-142 373h-643l-141 -373h-174l557 1432h160l557 -1432h-174z" />
    <glyph glyph-name="B" unicode="B" horiz-adv-x="1214" 
d="M342 143h326l-2 -2q131 0 217 74t86 202t-92 210q-93 76 -218 78h-317v-562zM340 838h285v-2q119 0 190 67q70 62 71 162q1 99 -70 161t-195 62h-281v-450zM176 1430h467l2 -9q185 0 293 -96q109 -96 109 -252q0 -116 -73 -197t-157 -94v-2q110 -13 214 -113t104 -251
q0 -194 -121 -306t-342 -112h-496v1432z" />
    <glyph glyph-name="C" unicode="C" horiz-adv-x="1394" 
d="M750 129q147 0 262 80q113 80 172 219l162 -43q-76 -197 -233 -307t-368 -109q-139 0 -262 52t-209 151q-86 92 -136 232t-50 311q0 170 49 307q101 281 342 385q125 53 262 53q197 0 348 -98t234 -275l-162 -42q-61 119 -170 185t-227 66q-233 -1 -368 -157
q-136 -157 -136 -423q0 -267 133 -427t357 -160zM1161 1045q2 -4 4 -9l-6 8z" />
    <glyph glyph-name="D" unicode="D" horiz-adv-x="1460" 
d="M342 156h369l-4 4q221 0 358 148t137 405q0 141 -39 242q-82 212 -266 286q-92 37 -201 37h-354v-1122zM1174 1239q194 -206 194 -527q0 -320 -187 -514t-481 -194h-526v1434l782 -52q125 -51 218 -147z" />
    <glyph glyph-name="E" unicode="E" horiz-adv-x="1167" 
d="M342 156h713v-156h-877v1434h864v-156h-700v-444h555v-150h-555v-528z" />
    <glyph glyph-name="F" unicode="F" horiz-adv-x="1089" 
d="M1028 1278h-686v-485h541v-154h-541v-639h-164v1434h850v-156z" />
    <glyph glyph-name="G" unicode="G" horiz-adv-x="1454" 
d="M1200 199h-2l-4 -2q-16 -25 -58 -68q-87 -89 -233 -131q-73 -25 -187 -25q-114 1 -236 53q-247 106 -343 380q-49 139 -49 307t49 306q100 282 342 386q125 53 262 53q205 -4 353 -102t227 -273l-164 -43q-61 125 -172 193q-111 67 -229 67q-234 -1 -367 -157
q-137 -157 -137 -429q0 -273 141 -427t361 -154q167 0 287 83t159 194v198h-389v137h532v-747h-143v201z" />
    <glyph glyph-name="H" unicode="H" horiz-adv-x="1380" 
d="M1038 1434h166v-1434h-166v664h-696v-664h-164v1434h164v-613h696v613z" />
    <glyph glyph-name="I" unicode="I" horiz-adv-x="518" 
d="M342 0h-164v1434h164v-1434z" />
    <glyph glyph-name="J" unicode="J" horiz-adv-x="1232" 
d="M922 1434h165l-2 -893q0 -274 -141 -424t-401 -150q-192 0 -326 95t-184 268l160 43q37 -119 131 -185t219 -65q186 0 282 110q96 115 97 304v897z" />
    <glyph glyph-name="K" unicode="K" horiz-adv-x="1302" 
d="M342 0h-164v1432h164v-383q0 -203 -3 -265t1 -63h2l20 22q18 23 50 56q31 33 67 73l520 562h199l-547 -586l590 -848h-192l-506 731l-201 -215v-516z" />
    <glyph glyph-name="L" unicode="L" horiz-adv-x="1075" 
d="M342 156h692v-156h-856v1434h164v-1278z" />
    <glyph glyph-name="M" unicode="M" horiz-adv-x="1562" 
d="M334 625v-625h-160v1432h154l360 -687q44 -62 60 -106t30 -74h2q17 36 31 68q15 33 29 59t28 58l37 65l326 619h153l-12 -1438h-160v625q0 229 9 366v62l4 57l2 45h-4l-11 -21q-6 -8 -26 -55l-19 -37q-11 -30 -53 -112l-299 -572h-86l-299 572q-41 82 -53 114l-19 37
q-20 47 -26 56l-10 20h-3l3 -45q2 -10 3 -47t5 -181t4 -255z" />
    <glyph glyph-name="N" unicode="N" horiz-adv-x="1421" 
d="M342 754v-754h-162v1434h150l577 -873q5 -6 25 -38t42 -64t44 -68q22 -37 36 -57t15 -25l16 -22h5v32q0 63 -6 128t-5 235v752h164l2 -1434h-149l-576 870q-12 23 -36 54t-45 67t-43 69q-21 34 -30 48t-16 25l-14 24h-2l2 -31v-86l4 -129q2 -33 2 -157z" />
    <glyph glyph-name="O" unicode="O" horiz-adv-x="1488" 
d="M254 717v-2q0 -255 139 -430q135 -156 351 -156t350 158q139 173 139 428q0 137 -37 250q-69 212 -256 297q-98 41 -205 41q-214 0 -347 -158q-134 -157 -134 -428zM86 712q0 168 49 306q101 281 342 385q125 53 261 53t262 -52t218 -154q186 -208 185 -541
q0 -334 -189 -541q-92 -98 -208 -150q-122 -49 -262 -49t-263 52t-209 151q-86 92 -136 232t-50 308z" />
    <glyph glyph-name="P" unicode="P" horiz-adv-x="1124" 
d="M342 674h229q164 0 250 80t86 224t-92 222q-96 78 -246 78h-227v-604zM180 1434h391l-2 -2q238 0 370 -123t132 -334q0 -99 -35 -189q-36 -90 -100 -148q-133 -120 -365 -120h-227v-518h-164v1434z" />
    <glyph glyph-name="Q" unicode="Q" horiz-adv-x="1488" 
d="M743 131v-2q217 0 351 158q139 173 139 428q0 137 -37 250q-69 212 -256 297q-98 41 -205 41q-214 0 -347 -158q-134 -158 -134 -420q0 -263 139 -438q132 -156 350 -156zM662 -270v245q-126 15 -230 74q-209 119 -299 377q-43 129 -43 292t49 301q100 282 342 386
q125 53 261 53t262 -52t218 -154q185 -206 185 -528t-161 -520q-161 -199 -421 -229v-245h-163z" />
    <glyph glyph-name="R" unicode="R" horiz-adv-x="1206" 
d="M907 984q0 134 -86 214t-239 80h-240v-596l481 84q84 84 84 218zM606 530h-266v-532h-164v1432h391q231 0 373 -121q68 -55 102 -143t35 -185q-1 -152 -75 -256t-203 -152l323 -573h-186l-295 532q-6 -2 -35 -2z" />
    <glyph glyph-name="S" unicode="S" horiz-adv-x="1128" 
d="M543 1313q-127 1 -207 -61t-80 -167q0 -55 31 -100t82 -72q48 -30 195 -89q148 -58 209 -87q145 -69 228 -198q41 -72 41 -159t-34 -164q-71 -159 -248 -216q-88 -31 -197 -31q-313 0 -448 244q-39 74 -56 164l158 43q16 -126 109 -215q90 -90 238 -89t233 72
q84 71 84 183q0 131 -131 207q-59 39 -108 56t-93 37q-45 19 -59 25t-23 10t-23 11t-50 23t-78 34q-40 18 -92 62q-126 104 -126 251q0 74 35 145q67 136 242 200q84 30 183 30q183 -1 314 -104t166 -264l-155 -43l-13 -4q-24 127 -112 197t-215 69z" />
    <glyph glyph-name="T" unicode="T" horiz-adv-x="1124" 
d="M43 1434h1038v-156h-438v-1278h-164v1278h-436v156z" />
    <glyph glyph-name="U" unicode="U" horiz-adv-x="1357" 
d="M1049 1434h165l-2 -885q0 -283 -140 -429t-395 -146t-394 145q-139 152 -140 430v885h166v-889q0 -420 370 -420t370 420v889z" />
    <glyph glyph-name="V" unicode="V" horiz-adv-x="1343" 
d="M1128 1434h175l-547 -1436h-176l-545 1432h176l385 -1027q2 -6 11 -31t16 -48l22 -74l23 -70h4l6 21q2 10 8 27t8 26l23 74q4 16 13 42t13 38z" />
    <glyph glyph-name="W" unicode="W" horiz-adv-x="1863" 
d="M926 1040q-2 0 -16 -68t-54 -210l-223 -762h-152l-428 1434h172l283 -969q23 -75 37 -147t16 -72h2q5 0 15 53t43 166l235 784h145l238 -784q33 -113 43 -166t14 -53h2q2 0 16 72t38 147l282 969h174l-436 -1434h-151l-224 760q-43 147 -55 214t-14 66h-2z" />
    <glyph glyph-name="X" unicode="X" horiz-adv-x="1259" 
d="M659 559l-28 51h-2l-15 -18l-20 -37l-2 -2q-6 -12 -10 -16q-4 -13 -12 -27t-15 -24q-6 -10 -14 -23l-316 -465h-196l497 745l-456 687h196l281 -429q8 -8 22 -36l25 -43q2 -8 11 -22t11 -15l11 -15h2l10 17q6 6 13 19t10 18l24 43q1 2 23 37l282 428h195l-457 -687
l498 -745h-197l-313 465q-2 6 -21 33t-24 43q-4 4 -10 16z" />
    <glyph glyph-name="Y" unicode="Y" horiz-adv-x="1241" 
d="M702 0h-163v684l-506 750h182l324 -471q18 -35 48 -83t34 -49h2q7 -1 36 53t46 79l321 471h182l-506 -750v-684z" />
    <glyph glyph-name="Z" unicode="Z" horiz-adv-x="1286" 
d="M135 1278v156h1036v-152l-753 -1012q-55 -70 -68 -84l-28 -32l2 -2l180 4h670v-156h-1057v152l766 1015l30 37q29 32 33 36t33 40l-2 2l-186 -4h-656z" />
    <glyph glyph-name="bracketleft" unicode="[" horiz-adv-x="651" 
d="M344 1597v-1749h248v-155h-414v2060h414v-156h-248z" />
    <glyph glyph-name="backslash" unicode="\" horiz-adv-x="897" 
d="M197 1434l659 -1434h-164l-653 1434h158z" />
    <glyph glyph-name="bracketright" unicode="]" horiz-adv-x="667" 
d="M324 -152v1749h-248v156h413v-2060h-413v155h248z" />
    <glyph glyph-name="asciicircum" unicode="^" horiz-adv-x="1243" 
d="M1067 977l-82 -74l-362 400l-363 -400l-82 74l445 483z" />
    <glyph glyph-name="underscore" unicode="_" horiz-adv-x="1460" 
d="M178 0h1104v-129h-1104v129z" />
    <glyph glyph-name="grave" unicode="`" horiz-adv-x="626" 
d="M481 1513l-409 213l65 115l402 -235z" />
    <glyph glyph-name="a" unicode="a" horiz-adv-x="1351" 
d="M696 1184l-18 57h-4q-2 -7 -10 -33l-9 -20l-18 -55q-16 -55 -21 -64l-204 -545h528l-207 543q-4 14 -12 36t-11 37t-9 25q-5 10 -5 19zM1137 0l-142 373h-643l-141 -373h-174l557 1432h160l557 -1432h-174z" />
    <glyph glyph-name="b" unicode="b" horiz-adv-x="1214" 
d="M342 143h326l-2 -2q131 0 217 74t86 202t-92 210q-93 76 -218 78h-317v-562zM340 838h285v-2q119 0 190 67q70 62 71 162q1 99 -70 161t-195 62h-281v-450zM176 1430h467l2 -9q185 0 293 -96q109 -96 109 -252q0 -116 -73 -197t-157 -94v-2q110 -13 214 -113t104 -251
q0 -194 -121 -306t-342 -112h-496v1432z" />
    <glyph glyph-name="c" unicode="c" horiz-adv-x="1394" 
d="M750 129q147 0 262 80q113 80 172 219l162 -43q-76 -197 -233 -307t-368 -109q-139 0 -262 52t-209 151q-86 92 -136 232t-50 311q0 170 49 307q101 281 342 385q125 53 262 53q197 0 348 -98t234 -275l-162 -42q-61 119 -170 185t-227 66q-233 -1 -368 -157
q-136 -157 -136 -423q0 -267 133 -427t357 -160zM1161 1045q2 -4 4 -9l-6 8z" />
    <glyph glyph-name="d" unicode="d" horiz-adv-x="1460" 
d="M342 156h369l-4 4q221 0 358 148t137 405q0 141 -39 242q-82 212 -266 286q-92 37 -201 37h-354v-1122zM1174 1239q194 -206 194 -527q0 -320 -187 -514t-481 -194h-526v1434l782 -52q125 -51 218 -147z" />
    <glyph glyph-name="e" unicode="e" horiz-adv-x="1167" 
d="M342 156h713v-156h-877v1434h864v-156h-700v-444h555v-150h-555v-528z" />
    <glyph glyph-name="f" unicode="f" horiz-adv-x="1089" 
d="M1028 1278h-686v-485h541v-154h-541v-639h-164v1434h850v-156z" />
    <glyph glyph-name="g" unicode="g" horiz-adv-x="1454" 
d="M1200 199h-2l-4 -2q-16 -25 -58 -68q-87 -89 -233 -131q-73 -25 -187 -25q-114 1 -236 53q-247 106 -343 380q-49 139 -49 307t49 306q100 282 342 386q125 53 262 53q205 -4 353 -102t227 -273l-164 -43q-61 125 -172 193q-111 67 -229 67q-234 -1 -367 -157
q-137 -157 -137 -429q0 -273 141 -427t361 -154q167 0 287 83t159 194v198h-389v137h532v-747h-143v201z" />
    <glyph glyph-name="h" unicode="h" horiz-adv-x="1380" 
d="M1038 1434h166v-1434h-166v664h-696v-664h-164v1434h164v-613h696v613z" />
    <glyph glyph-name="i" unicode="i" horiz-adv-x="518" 
d="M342 0h-164v1434h164v-1434z" />
    <glyph glyph-name="j" unicode="j" horiz-adv-x="1232" 
d="M922 1434h165l-2 -893q0 -274 -141 -424t-401 -150q-192 0 -326 95t-184 268l160 43q37 -119 131 -185t219 -65q186 0 282 110q96 115 97 304v897z" />
    <glyph glyph-name="k" unicode="k" horiz-adv-x="1302" 
d="M342 0h-164v1432h164v-383q0 -203 -3 -265t1 -63h2l20 22q18 23 50 56q31 33 67 73l520 562h199l-547 -586l590 -848h-192l-506 731l-201 -215v-516z" />
    <glyph glyph-name="l" unicode="l" horiz-adv-x="1075" 
d="M342 156h692v-156h-856v1434h164v-1278z" />
    <glyph glyph-name="m" unicode="m" horiz-adv-x="1562" 
d="M334 625v-625h-160v1432h154l360 -687q44 -62 60 -106t30 -74h2q17 36 31 68q15 33 29 59t28 58l37 65l326 619h153l-12 -1438h-160v625q0 229 9 366v62l4 57l2 45h-4l-11 -21q-6 -8 -26 -55l-19 -37q-11 -30 -53 -112l-299 -572h-86l-299 572q-41 82 -53 114l-19 37
q-20 47 -26 56l-10 20h-3l3 -45q2 -10 3 -47t5 -181t4 -255z" />
    <glyph glyph-name="n" unicode="n" horiz-adv-x="1421" 
d="M342 754v-754h-162v1434h150l577 -873q5 -6 25 -38t42 -64t44 -68q22 -37 36 -57t15 -25l16 -22h5v32q0 63 -6 128t-5 235v752h164l2 -1434h-149l-576 870q-12 23 -36 54t-45 67t-43 69q-21 34 -30 48t-16 25l-14 24h-2l2 -31v-86l4 -129q2 -33 2 -157z" />
    <glyph glyph-name="o" unicode="o" horiz-adv-x="1488" 
d="M254 717v-2q0 -255 139 -430q135 -156 351 -156t350 158q139 173 139 428q0 137 -37 250q-69 212 -256 297q-98 41 -205 41q-214 0 -347 -158q-134 -157 -134 -428zM86 712q0 168 49 306q101 281 342 385q125 53 261 53t262 -52t218 -154q186 -208 185 -541
q0 -334 -189 -541q-92 -98 -208 -150q-122 -49 -262 -49t-263 52t-209 151q-86 92 -136 232t-50 308z" />
    <glyph glyph-name="p" unicode="p" horiz-adv-x="1124" 
d="M342 674h229q164 0 250 80t86 224t-92 222q-96 78 -246 78h-227v-604zM180 1434h391l-2 -2q238 0 370 -123t132 -334q0 -99 -35 -189q-36 -90 -100 -148q-133 -120 -365 -120h-227v-518h-164v1434z" />
    <glyph glyph-name="q" unicode="q" horiz-adv-x="1488" 
d="M743 131v-2q217 0 351 158q139 173 139 428q0 137 -37 250q-69 212 -256 297q-98 41 -205 41q-214 0 -347 -158q-134 -158 -134 -420q0 -263 139 -438q132 -156 350 -156zM662 -270v245q-126 15 -230 74q-209 119 -299 377q-43 129 -43 292t49 301q100 282 342 386
q125 53 261 53t262 -52t218 -154q185 -206 185 -528t-161 -520q-161 -199 -421 -229v-245h-163z" />
    <glyph glyph-name="r" unicode="r" horiz-adv-x="1206" 
d="M907 984q0 134 -86 214t-239 80h-240v-596l481 84q84 84 84 218zM606 530h-266v-532h-164v1432h391q231 0 373 -121q68 -55 102 -143t35 -185q-1 -152 -75 -256t-203 -152l323 -573h-186l-295 532q-6 -2 -35 -2z" />
    <glyph glyph-name="s" unicode="s" horiz-adv-x="1128" 
d="M543 1313q-127 1 -207 -61t-80 -167q0 -55 31 -100t82 -72q48 -30 195 -89q148 -58 209 -87q145 -69 228 -198q41 -72 41 -159t-34 -164q-71 -159 -248 -216q-88 -31 -197 -31q-313 0 -448 244q-39 74 -56 164l158 43q16 -126 109 -215q90 -90 238 -89t233 72
q84 71 84 183q0 131 -131 207q-59 39 -108 56t-93 37q-45 19 -59 25t-23 10t-23 11t-50 23t-78 34q-40 18 -92 62q-126 104 -126 251q0 74 35 145q67 136 242 200q84 30 183 30q183 -1 314 -104t166 -264l-155 -43l-13 -4q-24 127 -112 197t-215 69z" />
    <glyph glyph-name="t" unicode="t" horiz-adv-x="1124" 
d="M43 1434h1038v-156h-438v-1278h-164v1278h-436v156z" />
    <glyph glyph-name="u" unicode="u" horiz-adv-x="1357" 
d="M1049 1434h165l-2 -885q0 -283 -140 -429t-395 -146t-394 145q-139 152 -140 430v885h166v-889q0 -420 370 -420t370 420v889z" />
    <glyph glyph-name="v" unicode="v" horiz-adv-x="1343" 
d="M1128 1434h175l-547 -1436h-176l-545 1432h176l385 -1027q2 -6 11 -31t16 -48l22 -74l23 -70h4l6 21q2 10 8 27t8 26l23 74q4 16 13 42t13 38z" />
    <glyph glyph-name="w" unicode="w" horiz-adv-x="1863" 
d="M926 1040q-2 0 -16 -68t-54 -210l-223 -762h-152l-428 1434h172l283 -969q23 -75 37 -147t16 -72h2q5 0 15 53t43 166l235 784h145l238 -784q33 -113 43 -166t14 -53h2q2 0 16 72t38 147l282 969h174l-436 -1434h-151l-224 760q-43 147 -55 214t-14 66h-2z" />
    <glyph glyph-name="x" unicode="x" horiz-adv-x="1259" 
d="M659 559l-28 51h-2l-15 -18l-20 -37l-2 -2q-6 -12 -10 -16q-4 -13 -12 -27t-15 -24q-6 -10 -14 -23l-316 -465h-196l497 745l-456 687h196l281 -429q8 -8 22 -36l25 -43q2 -8 11 -22t11 -15l11 -15h2l10 17q6 6 13 19t10 18l24 43q1 2 23 37l282 428h195l-457 -687
l498 -745h-197l-313 465q-2 6 -21 33t-24 43q-4 4 -10 16z" />
    <glyph glyph-name="y" unicode="y" horiz-adv-x="1241" 
d="M702 0h-163v684l-506 750h182l324 -471q18 -35 48 -83t34 -49h2q7 -1 36 53t46 79l321 471h182l-506 -750v-684z" />
    <glyph glyph-name="z" unicode="z" horiz-adv-x="1286" 
d="M135 1278v156h1036v-152l-753 -1012q-55 -70 -68 -84l-28 -32l2 -2l180 4h670v-156h-1057v152l766 1015l30 37q29 32 33 36t33 40l-2 2l-186 -4h-656z" />
    <glyph glyph-name="braceleft" unicode="{" horiz-adv-x="755" 
d="M721 -322q-412 0 -414 472v256q0 166 -65 260q-29 41 -66 55q70 27 111 151q20 55 20 166v256q0 236 109 355t307 118v-155q-112 0 -172 -60q-76 -72 -76 -264v-239l-4 4q0 -177 -49 -260q-20 -37 -38 -53t-24 -17q6 -2 24 -17q44 -38 66 -129q23 -92 23 -184v-237
q0 -265 156 -310q47 -12 92 -12v-156z" />
    <glyph glyph-name="bar" unicode="|" horiz-adv-x="491" 
d="M313 -150h-135v1737h135v-1737z" />
    <glyph glyph-name="braceright" unicode="}" horiz-adv-x="759" 
d="M285 1049v239l-4 -10q0 181 -76 264q-57 57 -172 60v155q201 0 309 -119t107 -354v-256q0 -111 19 -164t46 -96q29 -41 66 -55q-70 -26 -111 -152q-20 -55 -20 -164v-256q0 -243 -108 -357t-306 -114v156q113 0 172 59q74 70 76 262v238q0 176 51 262q20 37 37 51
q18 14 24 19q-110 73 -110 332z" />
    <glyph glyph-name="asciitilde" unicode="~" 
d="M233 641q12 103 91 160q64 53 165 53t197 -72q97 -72 159 -73q62 0 97 37t37 88l137 -37l2 -2q-16 -109 -90 -162q-70 -55 -166 -51q-89 0 -204 74q-57 37 -83 56q-25 18 -81 18t-90 -38q-34 -37 -35 -88z" />
    <glyph glyph-name="uni00A0" unicode="&#xa0;" horiz-adv-x="473" 
 />
    <glyph glyph-name="exclamdown" unicode="&#xa1;" horiz-adv-x="518" 
d="M178 965h164v-965h-164v965zM178 1434h164v-322h-164v322z" />
    <glyph glyph-name="cent" unicode="&#xa2;" horiz-adv-x="1048" 
d="M559 1114q-145 0 -234 -102t-89 -296t90 -296t233 -103q104 -1 182 53t117 158l137 -39q-45 -135 -143 -214t-229 -95v-207h-131v207q-187 25 -293 168q-117 148 -117 364t117 369q104 142 290 168v213h134v-213q121 -14 218 -88t142 -190l-139 -39q-89 182 -285 182z
" />
    <glyph glyph-name="sterling" unicode="&#xa3;" horiz-adv-x="1257" 
d="M643 156h522l-2 -156h-987v156q164 30 164 243q0 66 -6 146l-10 114h-136v136h123l-20 213q-10 98 18 182q52 161 199 227q147 67 321 27q150 -37 244 -178q49 -76 76 -179l-141 -38q-80 270 -312 264q-118 -2 -184 -85t-53 -231l18 -202h438v-136h-426l11 -110
q29 -325 -113 -399l2 -5l35 2l43 5h47q98 4 129 4z" />
    <glyph glyph-name="currency" unicode="&#xa4;" horiz-adv-x="1263" 
d="M633 1090h-4q-67 0 -135 -29q-127 -54 -187 -203q-27 -66 -27 -156t28 -158q58 -145 184 -200q70 -29 140 -29t136 29q128 55 186 203q27 66 27 156q0 162 -100 278q-45 51 -113 80t-135 29zM1118 697q0 -184 -100 -335l145 -145l-88 -88l-143 145q-140 -118 -314 -117
t-307 119l-145 -145l-84 88l145 148q-102 144 -102 331t115 344l-142 140l88 88l142 -140q130 107 301 107q172 0 299 -107l141 140l74 -96l-139 -140q114 -153 114 -337z" />
    <glyph glyph-name="yen" unicode="&#xa5;" horiz-adv-x="1241" 
d="M1102 872v-118h-352l-48 -70v-14h400v-117h-400v-553h-163v553h-389v117h389v14l-47 70h-342v118h262l-379 562h182l324 -471q18 -35 48 -83t34 -49h2q7 -1 36 53t46 79l321 471h182l-379 -562h273z" />
    <glyph glyph-name="brokenbar" unicode="&#xa6;" horiz-adv-x="491" 
d="M178 442h135v-592h-135v592zM178 1587h135v-573h-135v573z" />
    <glyph glyph-name="section" unicode="&#xa7;" horiz-adv-x="993" 
d="M772 710q0 56 -31 89q-47 57 -162 93q-116 36 -141 46q-39 -6 -92 -23t-98 -77q-21 -27 -21 -68l-2 -8q0 -35 29 -70q56 -56 176 -88q27 -6 74 -22t63 -19q16 -4 23 -6q78 16 130 56q52 41 52 97zM498 1337q-102 0 -166 -39t-64 -105t90 -116q58 -30 129 -49
q69 -20 85 -27t35 -12q19 -6 44 -16l27 -10q72 -29 121 -60q116 -73 114 -192q0 -84 -55 -136q-61 -53 -149 -77q86 -42 145 -101q59 -68 59 -162q1 -51 -31 -107q-66 -116 -218 -155q-70 -20 -172 -20q-186 0 -295 84q-106 86 -136 215l138 35q12 -91 84 -155t206 -64
q135 0 205 49t70 130t-111 140q-55 33 -104 46t-130 43q-82 30 -128 47q-114 41 -174 120q-33 39 -33 114t59 134t158 86q-86 37 -119 74t-47 67t-14 82q0 102 108 182q106 74 271 74q164 0 264 -70q104 -69 133 -184l-135 -37q-22 80 -92 126t-172 46z" />
    <glyph glyph-name="dieresis" unicode="&#xa8;" horiz-adv-x="794" 
d="M604 1565q-38 -1 -66 27t-28 71t28 71t66 28t67 -28q27 -28 27 -71t-28 -71t-66 -27zM168 1565q-39 -1 -67 27q-27 28 -27 71t28 71t66 28q39 0 67 -28q27 -28 27 -71t-28 -71t-66 -27z" />
    <glyph glyph-name="copyright" unicode="&#xa9;" horiz-adv-x="1548" 
d="M971 858q-58 123 -193 123q-100 0 -158 -71q-58 -72 -58 -196t58 -195t158 -70q149 0 199 145l98 -29q-31 -102 -113 -159q-82 -58 -170 -58q-230 -1 -313 219q-25 68 -25 151q0 82 26 150q50 138 169 193q53 27 140 27t167 -57q80 -56 115 -142zM770 1346h-4
q-243 0 -401 -175q-160 -182 -160 -457t159 -450q159 -176 404 -176q246 0 404 176q159 176 159 451t-159 453t-402 178zM766 1462q143 0 270 -55q255 -111 365 -389q53 -143 53 -301t-53 -298q-106 -280 -365 -392q-273 -110 -540 0q-255 112 -363 389q-53 143 -53 301
t53 298q105 276 363 392q127 55 270 55z" />
    <glyph glyph-name="ordfeminine" unicode="&#xaa;" horiz-adv-x="675" 
d="M41 633h594v-111h-594v111zM340 1329h-2q-4 0 -14 -54t-23 -89l-57 -170h190l-57 170q-13 35 -23 89t-14 54zM217 928l-53 -160h-115l244 682h96l244 -682h-115l-53 160h-248z" />
    <glyph glyph-name="guillemotleft" unicode="&#xab;" horiz-adv-x="1415" 
d="M178 721l432 477l99 -90l-355 -387l355 -389l-99 -88zM707 721l432 477l98 -90l-354 -387l354 -389l-98 -88z" />
    <glyph glyph-name="uni00AD" unicode="&#xad;" horiz-adv-x="1216" 
d="M178 797h873v-140h-873v140z" />
    <glyph glyph-name="registered" unicode="&#xae;" horiz-adv-x="1548" 
d="M664 715h114q154 0 154 137t-154 137h-114v-274zM770 627h-106v-277h-105v735h213v-4q121 0 192 -61t70 -166q0 -151 -137 -205l168 -299h-111l-153 279q-4 -2 -31 -2zM770 1343q-125 0 -226 -45q-200 -89 -292 -327q-43 -117 -43 -259t43 -255q90 -237 295 -326
q97 -45 223 -45q248 -1 404 178q157 178 157 451q0 274 -160 454q-153 174 -401 174zM768 1458q145 0 271 -55q254 -111 364 -389q53 -143 53 -301t-53 -298q-106 -280 -365 -392q-273 -110 -540 0q-255 112 -363 389q-53 143 -53 301t53 298q105 276 363 392q125 55 270 55
z" />
    <glyph glyph-name="macron" unicode="&#xaf;" horiz-adv-x="737" 
d="M55 1546h607v-131h-607v131z" />
    <glyph glyph-name="degree" unicode="&#xb0;" horiz-adv-x="581" 
d="M176 1435q0 -48 35 -87t82 -39t82 39t35 87t-35 83q-35 34 -82 34t-82 -34t-35 -83zM72 1422q0 87 61 158t154 72t160 -67t67 -158t-68 -153q-68 -68 -155 -68l-2 -2q-90 0 -154 68q-63 63 -63 150z" />
    <glyph glyph-name="plusminus" unicode="&#xb1;" 
d="M231 -18v137h873v-137h-873zM739 797h365v-140h-363v-321h-147v321h-363v140h363v364h145v-364z" />
    <glyph glyph-name="uni00B2" unicode="&#xb2;" horiz-adv-x="626" 
d="M373 1059h200v-107h-530v82l297 266q127 113 127 218q0 63 -43 104q-47 41 -117 41q-71 0 -109 -39t-57 -111l-104 27q20 100 92 168t184 68q105 0 193 -72q76 -76 77 -169t-41 -155t-65 -81q-23 -20 -103 -92q-80 -73 -104 -93t-56 -36q-32 -17 -32 -19l2 -2l-4 -13
q2 2 62 8t131 7z" />
    <glyph glyph-name="uni00B3" unicode="&#xb3;" horiz-adv-x="634" 
d="M590 1561q0 -35 -16 -71q-33 -72 -97 -97q-37 -12 -57 -15v-4q22 -2 56 -13q124 -41 124 -171q0 -108 -77 -176t-199 -68t-191 70q-80 67 -92 168l104 26q3 -72 53 -114t127 -43q77 0 117 41t41 103q0 62 -47 99t-121 37h-71v88h69q76 0 117 39q41 38 41 92t-37 90
t-115 37q-137 0 -167 -145l-94 25q18 101 94 159t190 60q114 0 180 -62q68 -62 68 -155zM58 1559q0 -2 -1 -5l-6 7z" />
    <glyph glyph-name="acute" unicode="&#xb4;" horiz-adv-x="626" 
d="M473 1841l66 -115l-412 -213l-55 93z" />
    <glyph glyph-name="paragraph" unicode="&#xb6;" horiz-adv-x="1247" 
d="M512 1434h559v-1436h-164v1274h-164v-1274h-157v690h-74q-204 0 -314 98t-110 274t110 276q110 98 314 98z" />
    <glyph glyph-name="periodcentered" unicode="&#xb7;" horiz-adv-x="432" 
d="M217 608h-2q-41 0 -69 28t-28 72t30 72q28 28 67 29q39 0 68 -33q29 -32 29 -72t-28 -68t-67 -28z" />
    <glyph glyph-name="cedilla" unicode="&#xb8;" horiz-adv-x="514" 
d="M424 -290q0 -90 -58 -140q-58 -49 -149 -49h-143l39 96h102q51 0 79 25q28 24 28 66t-32 71t-75 28h-127l70 193h102l-38 -98q84 2 143 -50t59 -142z" />
    <glyph glyph-name="uni00B9" unicode="&#xb9;" horiz-adv-x="425" 
d="M227 963v475q1 60 7 104t8 57l2 21h-2q-4 0 -16 -22t-44 -48l-80 -77l-73 67l239 225h78l-4 -802h-115z" />
    <glyph glyph-name="ordmasculine" unicode="&#xba;" horiz-adv-x="684" 
d="M41 633h602v-111h-602v111zM131 1106q0 -108 59 -178q58 -70 152 -70t152 70t59 182q0 112 -59 178q-58 66 -152 66t-152 -70t-59 -178zM20 1106h-2q0 152 91 253t232 100q140 -1 231 -100q90 -99 90 -252t-91 -254t-230 -100q-138 1 -229 100q-92 99 -92 253z" />
    <glyph glyph-name="guillemotright" unicode="&#xbb;" horiz-adv-x="1415" 
d="M805 1198l434 -477l-434 -477l-98 88l356 389l-356 387zM276 1198l433 -477l-433 -477l-98 88l354 389l-354 387z" />
    <glyph glyph-name="onequarter" unicode="&#xbc;" horiz-adv-x="1302" 
d="M788 289l130 4h137l-8 168q-2 12 2 67l4 60q0 9 6 57h-2q-20 -35 -33 -51l-33 -49q-4 -6 -37 -51l-90 -111q-21 -28 -31 -38q-10 -11 -12 -14l-19 -19t-16 -21zM1251 297v-102h-98v-193h-106v193h-383v81l403 527h86v-506h98zM1024 1436h119l-922 -1434h-119zM219 1108
q0 69 17 182h-3l-4 -2q-4 0 -16 -21t-43 -48l-80 -78l-74 67l240 226h78v-801h-115v475z" />
    <glyph glyph-name="onehalf" unicode="&#xbd;" horiz-adv-x="1382" 
d="M1130 94h201v-104h-530v80l297 266q127 113 127 217q0 65 -45 105t-115 40q-128 0 -166 -149l-104 26q20 100 92 168t184 68q107 0 193 -72q77 -77 77 -169t-42 -152q-43 -61 -73 -89t-43 -41t-53 -46q-100 -96 -145 -120t-45 -28l2 -2l-4 -12q2 2 62 8t130 6zM106 -10
l922 1431h119l-922 -1431h-119zM223 618v476q0 91 15 161l2 21h-2q-4 0 -16 -22t-44 -48l-80 -78l-73 68l239 225h78l-4 -803h-115z" />
    <glyph glyph-name="threequarters" unicode="&#xbe;" horiz-adv-x="1447" 
d="M936 289l129 4h137l-8 168q-2 12 2 67l4 60q0 9 6 57h-2q-20 -35 -33 -51l-32 -49q-4 -6 -37 -51l-90 -111q-6 -8 -19 -23q-12 -14 -17 -20t-7 -9l-19 -19t-16 -21zM1399 297v-102h-99v-193h-106v193h-383v81l403 527h86v-506h99zM1171 1436h117l-921 -1434h-119z
M316 721q77 0 118 41t41 103q0 61 -46 99t-122 37h-71v89h69q76 0 117 38t41 92t-37 91t-115 37q-137 0 -168 -146l-100 27q18 104 92 164q77 59 191 59t182 -61t67 -156q0 -35 -16 -71q-32 -71 -96 -97q-37 -12 -57 -14v-4l6 -7q22 -2 56 -13q120 -39 122 -160
q2 -119 -75 -187t-199 -68t-191 70q-82 69 -92 168l104 27q4 -72 53 -115t126 -43z" />
  </font>
</defs>
</svg>
